AbhayaLibre-sinhala-1.ufo
<glyph name="si_O" format="1">
  <advance width="621"/>
  <unicode hex="0D94"/>
  <outline>
    <contour>
      <point x="268" y="353" type="curve" smooth="yes"/>
      <point x="268" y="328"/>
      <point x="288" y="308"/>
      <point x="313" y="308" type="curve" smooth="yes"/>
      <point x="338" y="308"/>
      <point x="358" y="328"/>
      <point x="358" y="353" type="curve" smooth="yes"/>
      <point x="358" y="378"/>
      <point x="338" y="398"/>
      <point x="313" y="398" type="curve" smooth="yes"/>
      <point x="288" y="398"/>
      <point x="268" y="378"/>
    </contour>
    <contour>
      <point x="29" y="219" type="curve" smooth="yes"/>
      <point x="29" y="324"/>
      <point x="73" y="421"/>
      <point x="145" y="421" type="curve" smooth="yes"/>
      <point x="164" y="421"/>
      <point x="171" y="418"/>
      <point x="178" y="413" type="curve" smooth="yes"/>
      <point x="188" y="406"/>
      <point x="196" y="391"/>
      <point x="196" y="362" type="curve" smooth="yes"/>
      <point x="196" y="348"/>
      <point x="196" y="332"/>
      <point x="196" y="329" type="curve" smooth="yes"/>
      <point x="196" y="277"/>
      <point x="234" y="250"/>
      <point x="288" y="250" type="curve" smooth="yes"/>
      <point x="340" y="250"/>
      <point x="380" y="274"/>
      <point x="380" y="318" type="curve" smooth="yes"/>
      <point x="380" y="319"/>
      <point x="380" y="321"/>
      <point x="379" y="323" type="curve"/>
      <point x="374" y="308"/>
      <point x="354" y="278"/>
      <point x="311" y="278" type="curve" smooth="yes"/>
      <point x="265" y="278"/>
      <point x="237" y="315"/>
      <point x="237" y="352" type="curve" smooth="yes"/>
      <point x="237" y="393"/>
      <point x="267" y="424"/>
      <point x="314" y="424" type="curve" smooth="yes"/>
      <point x="375" y="424"/>
      <point x="410" y="380"/>
      <point x="410" y="322" type="curve" smooth="yes"/>
      <point x="410" y="259"/>
      <point x="358" y="220"/>
      <point x="289" y="220" type="curve" smooth="yes"/>
      <point x="217" y="220"/>
      <point x="166" y="258"/>
      <point x="166" y="331" type="curve" smooth="yes"/>
      <point x="166" y="336"/>
      <point x="166" y="354"/>
      <point x="166" y="363" type="curve" smooth="yes"/>
      <point x="166" y="383"/>
      <point x="161" y="394"/>
      <point x="142" y="394" type="curve" smooth="yes"/>
      <point x="96" y="394"/>
      <point x="72" y="321"/>
      <point x="72" y="272" type="curve" smooth="yes"/>
      <point x="72" y="193"/>
      <point x="123" y="135"/>
      <point x="199" y="135" type="curve" smooth="yes"/>
      <point x="266" y="135"/>
      <point x="284" y="167"/>
      <point x="284" y="200" type="curve" smooth="yes"/>
      <point x="284" y="203" type="line"/>
      <point x="312" y="203" type="line"/>
      <point x="312" y="199" type="line" smooth="yes"/>
      <point x="312" y="167"/>
      <point x="334" y="136"/>
      <point x="394" y="136" type="curve" smooth="yes"/>
      <point x="487" y="136"/>
      <point x="519" y="224"/>
      <point x="519" y="315" type="curve" smooth="yes"/>
      <point x="519" y="426"/>
      <point x="447" y="540"/>
      <point x="291" y="540" type="curve" smooth="yes"/>
      <point x="194" y="540"/>
      <point x="139" y="510"/>
      <point x="94" y="455" type="curve"/>
      <point x="61" y="455" type="line"/>
      <point x="105" y="518"/>
      <point x="169" y="565"/>
      <point x="293" y="565" type="curve" smooth="yes"/>
      <point x="477" y="565"/>
      <point x="576" y="421"/>
      <point x="576" y="248" type="curve" smooth="yes"/>
      <point x="576" y="123"/>
      <point x="530" y="0"/>
      <point x="396" y="0" type="curve" smooth="yes"/>
      <point x="356" y="0"/>
      <point x="314" y="16"/>
      <point x="298" y="54" type="curve"/>
      <point x="277" y="15"/>
      <point x="240" y="0"/>
      <point x="191" y="0" type="curve" smooth="yes"/>
      <point x="76" y="0"/>
      <point x="29" y="124"/>
    </contour>
  </outline>
</glyph>
<glyph name="si_Ja" format="1">
  <advance width="583"/>
  <unicode hex="0DA2"/>
  <outline>
    <contour>
      <point x="32" y="166" type="curve" smooth="yes"/>
      <point x="32" y="243"/>
      <point x="94" y="305"/>
      <point x="203" y="305" type="curve" smooth="yes"/>
      <point x="221" y="305"/>
      <point x="220" y="305"/>
      <point x="228" y="304" type="curve"/>
      <point x="229" y="311"/>
      <point x="229" y="316"/>
      <point x="229" y="323" type="curve" smooth="yes"/>
      <point x="229" y="345"/>
      <point x="219" y="377"/>
      <point x="183" y="377" type="curve" smooth="yes"/>
      <point x="162" y="377"/>
      <point x="147" y="361"/>
      <point x="140" y="346" type="curve" smooth="yes"/>
      <point x="129" y="323"/>
      <point x="117" y="312"/>
      <point x="95" y="312" type="curve" smooth="yes"/>
      <point x="71" y="312"/>
      <point x="55" y="327"/>
      <point x="55" y="352" type="curve" smooth="yes"/>
      <point x="55" y="400"/>
      <point x="104" y="422"/>
      <point x="150" y="422" type="curve" smooth="yes"/>
      <point x="215" y="422"/>
      <point x="260" y="384"/>
      <point x="260" y="318" type="curve" smooth="yes"/>
      <point x="260" y="306"/>
      <point x="259" y="291"/>
      <point x="256" y="278" type="curve"/>
      <point x="244" y="279"/>
      <point x="233" y="280"/>
      <point x="224" y="280" type="curve" smooth="yes"/>
      <point x="108" y="280"/>
      <point x="93" y="236"/>
      <point x="93" y="210" type="curve" smooth="yes"/>
      <point x="93" y="153"/>
      <point x="185" y="137"/>
      <point x="285" y="137" type="curve" smooth="yes"/>
      <point x="389" y="137"/>
      <point x="474" y="157"/>
      <point x="474" y="215" type="curve" smooth="yes"/>
      <point x="474" y="238"/>
      <point x="459" y="281"/>
      <point x="347" y="281" type="curve" smooth="yes"/>
      <point x="326" y="281"/>
      <point x="307" y="279"/>
      <point x="293" y="278" type="curve"/>
      <point x="288" y="294"/>
      <point x="286" y="309"/>
      <point x="286" y="323" type="curve" smooth="yes"/>
      <point x="286" y="399"/>
      <point x="342" y="424"/>
      <point x="409" y="424" type="curve" smooth="yes"/>
      <point x="449" y="424"/>
      <point x="508" y="403"/>
      <point x="508" y="345" type="curve" smooth="yes"/>
      <point x="508" y="317"/>
      <point x="491" y="278"/>
      <point x="428" y="278" type="curve" smooth="yes"/>
      <point x="375" y="278"/>
      <point x="354" y="323"/>
      <point x="354" y="360" type="curve" smooth="yes"/>
      <point x="354" y="449"/>
      <point x="397" y="523"/>
      <point x="440" y="563" type="curve" smooth="yes"/>
      <point x="469" y="590"/>
      <point x="502" y="604"/>
      <point x="521" y="604" type="curve" smooth="yes"/>
      <point x="549" y="604"/>
      <point x="555" y="586"/>
      <point x="555" y="573" type="curve" smooth="yes"/>
      <point x="555" y="542"/>
      <point x="509" y="534"/>
      <point x="453" y="495" type="curve" smooth="yes"/>
      <point x="422" y="474"/>
      <point x="383" y="425"/>
      <point x="383" y="361" type="curve" smooth="yes"/>
      <point x="383" y="329"/>
      <point x="400" y="304"/>
      <point x="429" y="304" type="curve" smooth="yes"/>
      <point x="457" y="304"/>
      <point x="478" y="321"/>
      <point x="478" y="347" type="curve" smooth="yes"/>
      <point x="478" y="379"/>
      <point x="448" y="396"/>
      <point x="405" y="396" type="curve" smooth="yes"/>
      <point x="336" y="396"/>
      <point x="316" y="365"/>
      <point x="316" y="326" type="curve" smooth="yes"/>
      <point x="316" y="319"/>
      <point x="317" y="311"/>
      <point x="319" y="302" type="curve"/>
      <point x="327" y="303"/>
      <point x="335" y="304"/>
      <point x="348" y="304" type="curve" smooth="yes"/>
      <point x="437" y="304"/>
      <point x="536" y="276"/>
      <point x="536" y="164" type="curve" smooth="yes"/>
      <point x="536" y="44"/>
      <point x="414" y="0"/>
      <point x="291" y="0" type="curve" smooth="yes"/>
      <point x="156" y="0"/>
      <point x="32" y="43"/>
    </contour>
  </outline>
</glyph>
<glyph name="si_Ttha" format="1">
  <advance width="599"/>
  <unicode hex="0DA8"/>
  <outline>
    <contour>
      <point x="32" y="190" type="curve" smooth="yes"/>
      <point x="32" y="281"/>
      <point x="84" y="355"/>
      <point x="148" y="378" type="curve" smooth="yes"/>
      <point x="168" y="385"/>
      <point x="191" y="389"/>
      <point x="216" y="389" type="curve"/>
      <point x="216" y="362" type="line"/>
      <point x="213" y="362"/>
      <point x="209" y="363"/>
      <point x="206" y="363" type="curve" smooth="yes"/>
      <point x="129" y="363"/>
      <point x="88" y="297"/>
      <point x="88" y="240" type="curve" smooth="yes"/>
      <point x="88" y="188"/>
      <point x="111" y="137"/>
      <point x="185" y="137" type="curve" smooth="yes"/>
      <point x="235" y="137"/>
      <point x="282" y="158"/>
      <point x="282" y="220" type="curve" smooth="yes"/>
      <point x="282" y="242" type="line"/>
      <point x="312" y="242" type="line"/>
      <point x="312" y="220" type="line" smooth="yes"/>
      <point x="312" y="158"/>
      <point x="357" y="137"/>
      <point x="405" y="137" type="curve" smooth="yes"/>
      <point x="498" y="137"/>
      <point x="523" y="219"/>
      <point x="523" y="273" type="curve" smooth="yes"/>
      <point x="523" y="330"/>
      <point x="512" y="376"/>
      <point x="491" y="407" type="curve"/>
      <point x="477" y="379"/>
      <point x="448" y="358"/>
      <point x="406" y="358" type="curve" smooth="yes"/>
      <point x="344" y="358"/>
      <point x="309" y="413"/>
      <point x="309" y="477" type="curve" smooth="yes"/>
      <point x="309" y="526"/>
      <point x="324" y="561"/>
      <point x="350" y="591" type="curve"/>
      <point x="410" y="559"/>
      <point x="479" y="489"/>
      <point x="514" y="428" type="curve" smooth="yes"/>
      <point x="552" y="363"/>
      <point x="575" y="300"/>
      <point x="575" y="227" type="curve" smooth="yes"/>
      <point x="575" y="127"/>
      <point x="535" y="0"/>
      <point x="412" y="0" type="curve" smooth="yes"/>
      <point x="364" y="0"/>
      <point x="325" y="20"/>
      <point x="296" y="58" type="curve"/>
      <point x="266" y="20"/>
      <point x="230" y="0"/>
      <point x="186" y="0" type="curve" smooth="yes"/>
      <point x="86" y="0"/>
      <point x="32" y="93"/>
    </contour>
    <contour>
      <point x="340" y="479" type="curve" smooth="yes"/>
      <point x="340" y="432"/>
      <point x="359" y="395"/>
      <point x="413" y="395" type="curve" smooth="yes"/>
      <point x="436" y="395"/>
      <point x="461" y="406"/>
      <point x="471" y="438" type="curve"/>
      <point x="443" y="482"/>
      <point x="396" y="524"/>
      <point x="360" y="551" type="curve"/>
      <point x="349" y="534"/>
      <point x="340" y="512"/>
    </contour>
  </outline>
</glyph>
<glyph name="si_Ddha" format="1">
  <advance width="631"/>
  <unicode hex="0DAA"/>
  <outline>
    <contour>
      <point x="15" y="278" type="line"/>
      <point x="15" y="308" type="line"/>
      <point x="250" y="308" type="line"/>
      <point x="249" y="346"/>
      <point x="223" y="379"/>
      <point x="192" y="379" type="curve" smooth="yes"/>
      <point x="183" y="379"/>
      <point x="165" y="379"/>
      <point x="150" y="352" type="curve" smooth="yes"/>
      <point x="140" y="334"/>
      <point x="126" y="327"/>
      <point x="110" y="327" type="curve" smooth="yes"/>
      <point x="87" y="327"/>
      <point x="71" y="342"/>
      <point x="71" y="364" type="curve" smooth="yes"/>
      <point x="71" y="403"/>
      <point x="118" y="422"/>
      <point x="159" y="422" type="curve" smooth="yes"/>
      <point x="236" y="422"/>
      <point x="286" y="373"/>
      <point x="286" y="278" type="curve"/>
      <point x="219" y="278" type="line" smooth="yes"/>
      <point x="128" y="278"/>
      <point x="107" y="228"/>
      <point x="107" y="205" type="curve" smooth="yes"/>
      <point x="107" y="160"/>
      <point x="146" y="137"/>
      <point x="198" y="137" type="curve" smooth="yes"/>
      <point x="260" y="137"/>
      <point x="290" y="157"/>
      <point x="290" y="195" type="curve" smooth="yes"/>
      <point x="290" y="216" type="line"/>
      <point x="320" y="216" type="line"/>
      <point x="320" y="195" type="line" smooth="yes"/>
      <point x="320" y="160"/>
      <point x="344" y="137"/>
      <point x="404" y="137" type="curve" smooth="yes"/>
      <point x="477" y="137"/>
      <point x="525" y="195"/>
      <point x="525" y="286" type="curve" smooth="yes"/>
      <point x="525" y="328"/>
      <point x="513" y="368"/>
      <point x="496" y="404" type="curve"/>
      <point x="479" y="379"/>
      <point x="454" y="354"/>
      <point x="412" y="354" type="curve" smooth="yes"/>
      <point x="348" y="354"/>
      <point x="311" y="402"/>
      <point x="311" y="466" type="curve" smooth="yes"/>
      <point x="311" y="528"/>
      <point x="340" y="572"/>
      <point x="351" y="589" type="curve"/>
      <point x="462" y="545"/>
      <point x="584" y="392"/>
      <point x="584" y="250" type="curve" smooth="yes"/>
      <point x="584" y="107"/>
      <point x="535" y="0"/>
      <point x="418" y="-0" type="curve" smooth="yes"/>
      <point x="355" y="0"/>
      <point x="327" y="28"/>
      <point x="306" y="58" type="curve"/>
      <point x="277" y="22"/>
      <point x="244" y="0"/>
      <point x="194" y="0" type="curve" smooth="yes"/>
      <point x="95" y="0"/>
      <point x="45" y="79"/>
      <point x="45" y="158" type="curve" smooth="yes"/>
      <point x="45" y="207"/>
      <point x="69" y="255"/>
      <point x="122" y="278" type="curve"/>
    </contour>
    <contour>
      <point x="342" y="470" type="curve" smooth="yes"/>
      <point x="342" y="414"/>
      <point x="369" y="387"/>
      <point x="414" y="387" type="curve" smooth="yes"/>
      <point x="444" y="387"/>
      <point x="467" y="411"/>
      <point x="480" y="435" type="curve"/>
      <point x="446" y="491"/>
      <point x="399" y="532"/>
      <point x="365" y="549" type="curve"/>
      <point x="352" y="534"/>
      <point x="342" y="498"/>
    </contour>
  </outline>
</glyph>
<glyph name="si_Ta" format="1">
  <advance width="687"/>
  <unicode hex="0DAD"/>
  <outline>
    <contour>
      <point x="21" y="24" type="line"/>
      <point x="34" y="127"/>
      <point x="101" y="240"/>
      <point x="161" y="306" type="curve"/>
      <point x="168" y="314"/>
      <point x="174" y="324"/>
      <point x="174" y="338" type="curve" smooth="yes"/>
      <point x="174" y="363"/>
      <point x="162" y="376"/>
      <point x="148" y="376" type="curve" smooth="yes"/>
      <point x="132" y="376"/>
      <point x="122" y="365"/>
      <point x="121" y="345" type="curve" smooth="yes"/>
      <point x="120" y="316"/>
      <point x="110" y="286"/>
      <point x="76" y="286" type="curve" smooth="yes"/>
      <point x="48" y="286"/>
      <point x="36" y="309"/>
      <point x="36" y="334" type="curve" smooth="yes"/>
      <point x="36" y="383"/>
      <point x="76" y="423"/>
      <point x="124" y="423" type="curve" smooth="yes"/>
      <point x="173" y="423"/>
      <point x="201" y="391"/>
      <point x="201" y="345" type="curve" smooth="yes"/>
      <point x="201" y="343"/>
      <point x="201" y="342"/>
      <point x="201" y="340" type="curve"/>
      <point x="265" y="410"/>
      <point x="351" y="425"/>
      <point x="413" y="425" type="curve" smooth="yes"/>
      <point x="549" y="425"/>
      <point x="648" y="327"/>
      <point x="648" y="181" type="curve" smooth="yes"/>
      <point x="648" y="80"/>
      <point x="596" y="-1"/>
      <point x="498" y="-1" type="curve" smooth="yes"/>
      <point x="472" y="-1"/>
      <point x="452" y="6"/>
      <point x="443" y="11" type="curve"/>
      <point x="443" y="40" type="line"/>
      <point x="451" y="37"/>
      <point x="461" y="34"/>
      <point x="478" y="34" type="curve" smooth="yes"/>
      <point x="522" y="34"/>
      <point x="540" y="96"/>
      <point x="540" y="142" type="curve" smooth="yes"/>
      <point x="540" y="286"/>
      <point x="447" y="348"/>
      <point x="331" y="348" type="curve" smooth="yes"/>
      <point x="292" y="348"/>
      <point x="228" y="336"/>
      <point x="195" y="298" type="curve"/>
      <point x="216" y="307"/>
      <point x="243" y="312"/>
      <point x="274" y="312" type="curve" smooth="yes"/>
      <point x="373" y="312"/>
      <point x="448" y="262"/>
      <point x="448" y="158" type="curve" smooth="yes"/>
      <point x="448" y="68"/>
      <point x="382" y="-2"/>
      <point x="275" y="-2" type="curve" smooth="yes"/>
      <point x="130" y="-2"/>
      <point x="137" y="77"/>
      <point x="87" y="77" type="curve" smooth="yes"/>
      <point x="64" y="77"/>
      <point x="53" y="52"/>
      <point x="45" y="9" type="curve"/>
    </contour>
    <contour>
      <point x="93" y="152" type="curve"/>
      <point x="102" y="159"/>
      <point x="114" y="161"/>
      <point x="125" y="161" type="curve" smooth="yes"/>
      <point x="161" y="161"/>
      <point x="191" y="137"/>
      <point x="257" y="137" type="curve" smooth="yes"/>
      <point x="330" y="137"/>
      <point x="380" y="157"/>
      <point x="380" y="212" type="curve" smooth="yes"/>
      <point x="380" y="250"/>
      <point x="343" y="287"/>
      <point x="276" y="287" type="curve" smooth="yes"/>
      <point x="228" y="287"/>
      <point x="186" y="275"/>
      <point x="155" y="253" type="curve"/>
      <point x="124" y="215"/>
      <point x="112" y="189"/>
    </contour>
  </outline>
</glyph>
<glyph name="si_Pha" format="1">
  <advance width="569"/>
  <unicode hex="0DB5"/>
  <outline>
    <contour>
      <point x="32" y="161" type="curve" smooth="yes"/>
      <point x="32" y="271"/>
      <point x="124" y="302"/>
      <point x="231" y="302" type="curve" smooth="yes"/>
      <point x="241" y="302" type="line"/>
      <point x="241" y="304"/>
      <point x="241" y="306"/>
      <point x="241" y="308" type="curve" smooth="yes"/>
      <point x="241" y="349"/>
      <point x="211" y="380"/>
      <point x="177" y="380" type="curve" smooth="yes"/>
      <point x="155" y="380"/>
      <point x="137" y="363"/>
      <point x="132" y="347" type="curve" smooth="yes"/>
      <point x="125" y="325"/>
      <point x="113" y="313"/>
      <point x="88" y="313" type="curve" smooth="yes"/>
      <point x="70" y="313"/>
      <point x="51" y="326"/>
      <point x="51" y="351" type="curve" smooth="yes"/>
      <point x="51" y="397"/>
      <point x="99" y="421"/>
      <point x="153" y="421" type="curve" smooth="yes"/>
      <point x="239" y="421"/>
      <point x="274" y="356"/>
      <point x="274" y="290" type="curve" smooth="yes"/>
      <point x="274" y="287"/>
      <point x="274" y="278"/>
      <point x="274" y="275" type="curve"/>
      <point x="214" y="275" type="line" smooth="yes"/>
      <point x="151" y="275"/>
      <point x="99" y="256"/>
      <point x="99" y="208" type="curve" smooth="yes"/>
      <point x="99" y="154"/>
      <point x="183" y="137"/>
      <point x="261" y="137" type="curve" smooth="yes"/>
      <point x="410" y="137"/>
      <point x="473" y="205"/>
      <point x="473" y="294" type="curve" smooth="yes"/>
      <point x="473" y="342"/>
      <point x="462" y="375"/>
      <point x="448" y="400" type="curve"/>
      <point x="433" y="370"/>
      <point x="404" y="351"/>
      <point x="362" y="351" type="curve" smooth="yes"/>
      <point x="300" y="351"/>
      <point x="265" y="405"/>
      <point x="265" y="469" type="curve" smooth="yes"/>
      <point x="265" y="518"/>
      <point x="280" y="553"/>
      <point x="306" y="583" type="curve"/>
      <point x="366" y="551"/>
      <point x="435" y="481"/>
      <point x="470" y="420" type="curve" smooth="yes"/>
      <point x="508" y="355"/>
      <point x="521" y="307"/>
      <point x="521" y="239" type="curve" smooth="yes"/>
      <point x="521" y="114"/>
      <point x="437" y="0"/>
      <point x="258" y="0" type="curve" smooth="yes"/>
      <point x="140" y="0"/>
      <point x="32" y="45"/>
    </contour>
    <contour>
      <point x="298" y="477" type="curve" smooth="yes"/>
      <point x="298" y="429"/>
      <point x="330" y="396"/>
      <point x="373" y="396" type="curve" smooth="yes"/>
      <point x="392" y="396"/>
      <point x="417" y="407"/>
      <point x="427" y="431" type="curve"/>
      <point x="398" y="474"/>
      <point x="351" y="517"/>
      <point x="314" y="544" type="curve"/>
      <point x="306" y="527"/>
      <point x="298" y="506"/>
    </contour>
  </outline>
</glyph>
<glyph name="si_Ba" format="1">
  <advance width="604"/>
  <unicode hex="0DB6"/>
  <outline>
    <contour>
      <point x="100" y="74" type="curve" smooth="yes"/>
      <point x="100" y="49"/>
      <point x="121" y="28"/>
      <point x="146" y="28" type="curve" smooth="yes"/>
      <point x="171" y="28"/>
      <point x="193" y="49"/>
      <point x="193" y="74" type="curve" smooth="yes"/>
      <point x="193" y="99"/>
      <point x="171" y="121"/>
      <point x="146" y="121" type="curve" smooth="yes"/>
      <point x="121" y="121"/>
      <point x="100" y="99"/>
    </contour>
    <contour>
      <point x="32" y="183" type="curve" smooth="yes"/>
      <point x="32" y="307"/>
      <point x="121" y="387"/>
      <point x="233" y="387" type="curve" smooth="yes"/>
      <point x="323" y="387"/>
      <point x="395" y="346"/>
      <point x="395" y="260" type="curve" smooth="yes"/>
      <point x="395" y="156"/>
      <point x="285" y="171"/>
      <point x="285" y="124" type="curve" smooth="yes"/>
      <point x="285" y="105"/>
      <point x="309" y="102"/>
      <point x="325" y="102" type="curve" smooth="yes"/>
      <point x="421" y="102"/>
      <point x="492" y="224"/>
      <point x="492" y="347" type="curve" smooth="yes"/>
      <point x="492" y="462"/>
      <point x="415" y="545"/>
      <point x="285" y="545" type="curve" smooth="yes"/>
      <point x="193" y="545"/>
      <point x="133" y="516"/>
      <point x="95" y="459" type="curve"/>
      <point x="62" y="459" type="line"/>
      <point x="96" y="529"/>
      <point x="174" y="571"/>
      <point x="285" y="571" type="curve" smooth="yes"/>
      <point x="459" y="571"/>
      <point x="562" y="454"/>
      <point x="562" y="277" type="curve" smooth="yes"/>
      <point x="562" y="138"/>
      <point x="506" y="-2"/>
      <point x="372" y="-2" type="curve" smooth="yes"/>
      <point x="295" y="-2"/>
      <point x="253" y="48"/>
      <point x="253" y="106" type="curve" smooth="yes"/>
      <point x="253" y="185"/>
      <point x="323" y="168"/>
      <point x="323" y="225" type="curve" smooth="yes"/>
      <point x="323" y="246"/>
      <point x="301" y="269"/>
      <point x="231" y="269" type="curve" smooth="yes"/>
      <point x="142" y="269"/>
      <point x="68" y="217"/>
      <point x="68" y="135" type="curve" smooth="yes"/>
      <point x="68" y="127"/>
      <point x="70" y="102"/>
      <point x="75" y="89" type="curve"/>
      <point x="79" y="123"/>
      <point x="106" y="149"/>
      <point x="146" y="149" type="curve" smooth="yes"/>
      <point x="188" y="149"/>
      <point x="224" y="116"/>
      <point x="224" y="75" type="curve" smooth="yes"/>
      <point x="224" y="28"/>
      <point x="185" y="-1"/>
      <point x="146" y="-1" type="curve" smooth="yes"/>
      <point x="66" y="-1"/>
      <point x="32" y="89"/>
    </contour>
  </outline>
</glyph>
<glyph name="si_Halant" format="1">
  <advance width="1"/>
  <unicode hex="0DCA"/>
  <outline>
    <contour>
      <point x="-138" y="340" type="line"/>
      <point x="-138" y="665" type="line"/>
      <point x="-85" y="624"/>
      <point x="10" y="619"/>
      <point x="10" y="529" type="curve" smooth="yes"/>
      <point x="10" y="486"/>
      <point x="-24" y="457"/>
      <point x="-66" y="457" type="curve" smooth="yes"/>
      <point x="-80" y="457"/>
      <point x="-95" y="460"/>
      <point x="-110" y="467" type="curve"/>
      <point x="-110" y="323" type="line"/>
    </contour>
    <contour>
      <point x="-110" y="492" type="line"/>
      <point x="-102" y="488"/>
      <point x="-92" y="486"/>
      <point x="-79" y="486" type="curve" smooth="yes"/>
      <point x="-48" y="486"/>
      <point x="-34" y="510"/>
      <point x="-34" y="533" type="curve" smooth="yes"/>
      <point x="-34" y="573"/>
      <point x="-65" y="592"/>
      <point x="-110" y="622" type="curve"/>
    </contour>
  </outline>
</glyph>
<glyph name="si_kundaliya" format="1">
  <advance width="1701"/>
  <unicode hex="0DF4"/>
  <outline>
    <contour>
      <point x="1250" y="38" type="curve"/>
      <point x="1275" y="127" type="line"/>
      <point x="1130" y="37" type="line"/>
      <point x="1156" y="166" type="line"/>
      <point x="1009" y="69" type="line"/>
      <point x="1024" y="228" type="line"/>
      <point x="870" y="82" type="line"/>
      <point x="857" y="253" type="line"/>
      <point x="728" y="109" type="line"/>
      <point x="697" y="250" type="line"/>
      <point x="572" y="108" type="line"/>
      <point x="546" y="218" type="line"/>
      <point x="437" y="71" type="line"/>
      <point x="408" y="155" type="line"/>
      <point x="350" y="55" type="line"/>
      <point x="341" y="70"/>
      <point x="330" y="85"/>
      <point x="309" y="85" type="curve" smooth="yes"/>
      <point x="246" y="85"/>
      <point x="208" y="-2"/>
      <point x="123" y="-2" type="curve" smooth="yes"/>
      <point x="84" y="-2"/>
      <point x="49" y="21"/>
      <point x="49" y="71" type="curve" smooth="yes"/>
      <point x="49" y="106"/>
      <point x="71" y="141"/>
      <point x="113" y="141" type="curve" smooth="yes"/>
      <point x="154" y="141"/>
      <point x="174" y="109"/>
      <point x="174" y="81" type="curve" smooth="yes"/>
      <point x="174" y="68"/>
      <point x="168" y="51"/>
      <point x="162" y="45" type="curve"/>
      <point x="163" y="44"/>
      <point x="166" y="43"/>
      <point x="169" y="43" type="curve" smooth="yes"/>
      <point x="231" y="43"/>
      <point x="282" y="144"/>
      <point x="334" y="144" type="curve" smooth="yes"/>
      <point x="344" y="144"/>
      <point x="356" y="142"/>
      <point x="365" y="129" type="curve"/>
      <point x="448" y="271" type="line"/>
      <point x="486" y="173" type="line"/>
      <point x="612" y="341" type="line"/>
      <point x="641" y="222" type="line"/>
      <point x="776" y="377" type="line"/>
      <point x="808" y="231" type="line"/>
      <point x="953" y="398" type="line"/>
      <point x="966" y="205" type="line"/>
      <point x="1143" y="367" type="line"/>
      <point x="1119" y="170" type="line"/>
      <point x="1277" y="272" type="line"/>
      <point x="1245" y="135" type="line"/>
      <point x="1383" y="222" type="line"/>
      <point x="1352" y="137" type="line"/>
      <point x="1361" y="143"/>
      <point x="1370" y="144"/>
      <point x="1380" y="144" type="curve" smooth="yes"/>
      <point x="1432" y="144"/>
      <point x="1480" y="42"/>
      <point x="1543" y="42" type="curve" smooth="yes"/>
      <point x="1546" y="42"/>
      <point x="1549" y="43"/>
      <point x="1552" y="45" type="curve"/>
      <point x="1546" y="51"/>
      <point x="1540" y="65"/>
      <point x="1540" y="81" type="curve" smooth="yes"/>
      <point x="1540" y="106"/>
      <point x="1560" y="141"/>
      <point x="1601" y="141" type="curve" smooth="yes"/>
      <point x="1643" y="141"/>
      <point x="1665" y="106"/>
      <point x="1665" y="71" type="curve" smooth="yes"/>
      <point x="1665" y="21"/>
      <point x="1630" y="-2"/>
      <point x="1591" y="-2" type="curve" smooth="yes"/>
      <point x="1506" y="-2"/>
      <point x="1456" y="92"/>
      <point x="1380" y="92" type="curve" smooth="yes"/>
      <point x="1358" y="92"/>
      <point x="1325" y="90"/>
    </contour>
  </outline>
</glyph>
<glyph name="si_TVa.reph" format="1">
  <advance width="977"/>
  <outline>
    <contour>
      <point x="659" y="602" type="curve" smooth="yes"/>
      <point x="659" y="582"/>
      <point x="677" y="567"/>
      <point x="698" y="567" type="curve" smooth="yes"/>
      <point x="719" y="567"/>
      <point x="737" y="582"/>
      <point x="737" y="602" type="curve" smooth="yes"/>
      <point x="737" y="622"/>
      <point x="719" y="638"/>
      <point x="698" y="638" type="curve" smooth="yes"/>
      <point x="677" y="638"/>
      <point x="659" y="622"/>
    </contour>
    <contour>
      <point x="558" y="621" type="curve" smooth="yes"/>
      <point x="558" y="683"/>
      <point x="615" y="720"/>
      <point x="695" y="720" type="curve" smooth="yes"/>
      <point x="770" y="720"/>
      <point x="833" y="677"/>
      <point x="833" y="608" type="curve" smooth="yes"/>
      <point x="833" y="585"/>
      <point x="824" y="564"/>
      <point x="808" y="545" type="curve"/>
      <point x="774" y="545" type="line"/>
      <point x="787" y="557"/>
      <point x="802" y="580"/>
      <point x="802" y="607" type="curve" smooth="yes"/>
      <point x="802" y="660"/>
      <point x="754" y="692"/>
      <point x="694" y="692" type="curve" smooth="yes"/>
      <point x="642" y="692"/>
      <point x="590" y="670"/>
      <point x="590" y="621" type="curve" smooth="yes"/>
      <point x="590" y="583"/>
      <point x="633" y="566"/>
      <point x="650" y="564" type="curve"/>
      <point x="642" y="570"/>
      <point x="632" y="582"/>
      <point x="632" y="603" type="curve" smooth="yes"/>
      <point x="632" y="637"/>
      <point x="662" y="662"/>
      <point x="697" y="662" type="curve" smooth="yes"/>
      <point x="737" y="662"/>
      <point x="765" y="635"/>
      <point x="765" y="601" type="curve" smooth="yes"/>
      <point x="765" y="563"/>
      <point x="731" y="538"/>
      <point x="674" y="538" type="curve" smooth="yes"/>
      <point x="616" y="538"/>
      <point x="558" y="566"/>
    </contour>
    <component base="si_TVa"/>
  </outline>
</glyph>
<glyph name=".notdef" format="1">
  <advance width="631"/>
  <outline>
    <contour>
      <point x="50" y="-92.6602" type="line"/>
      <point x="50" y="754.34" type="line"/>
      <point x="581" y="754.34" type="line"/>
      <point x="581" y="-92.6602" type="line"/>
    </contour>
    <contour>
      <point x="260.653" y="154.374" type="curve" smooth="yes"/>
      <point x="260.653" y="176.734"/>
      <point x="277.787" y="194.836"/>
      <point x="299.593" y="194.836" type="curve" smooth="yes"/>
      <point x="321.4" y="194.836"/>
      <point x="339.053" y="176.734"/>
      <point x="339.053" y="154.374" type="curve" smooth="yes"/>
      <point x="339.053" y="132.013"/>
      <point x="321.4" y="114.443"/>
      <point x="299.593" y="114.443" type="curve" smooth="yes"/>
      <point x="277.787" y="114.443"/>
      <point x="260.653" y="132.013"/>
    </contour>
    <contour>
      <point x="157.38" y="633.34" type="line"/>
      <point x="157.38" y="17.4502" type="line"/>
      <point x="473.62" y="17.4502" type="line"/>
      <point x="473.62" y="633.34" type="line"/>
    </contour>
    <contour>
      <point x="212.887" y="451.452" type="line"/>
      <point x="228.464" y="471.685"/>
      <point x="254.424" y="500.434"/>
      <point x="310.496" y="500.434" type="curve" smooth="yes"/>
      <point x="376.954" y="500.434"/>
      <point x="418.49" y="456.244"/>
      <point x="420.567" y="387.564" type="curve" smooth="yes"/>
      <point x="420.567" y="283.047"/>
      <point x="333.86" y="273.1"/>
      <point x="333.86" y="273.1" type="curve"/>
      <point x="333.86" y="214.534" type="line"/>
      <point x="266.884" y="214.534" type="line"/>
      <point x="266.884" y="331.662" type="line"/>
      <point x="327.631" y="332.728"/>
      <point x="354.109" y="339.116"/>
      <point x="354.109" y="388.629" type="curve" smooth="yes"/>
      <point x="354.109" y="416.314"/>
      <point x="330.745" y="432.286"/>
      <point x="306.344" y="432.286" type="curve" smooth="yes"/>
      <point x="284.018" y="432.286"/>
      <point x="266.365" y="421.105"/>
      <point x="255.462" y="406.199" type="curve"/>
    </contour>
  </outline>
</glyph>
<glyph name="si_BI" format="1">
  <advance width="604"/>
  <outline>
    <contour>
      <point x="65" y="549" type="curve" smooth="yes"/>
      <point x="65" y="637"/>
      <point x="192" y="654"/>
      <point x="290" y="654" type="curve" smooth="yes"/>
      <point x="423" y="654"/>
      <point x="531" y="624"/>
      <point x="531" y="541" type="curve" smooth="yes"/>
      <point x="531" y="490"/>
      <point x="478" y="469"/>
      <point x="445" y="463" type="curve"/>
      <point x="396" y="479" type="line"/>
      <point x="431" y="480"/>
      <point x="457" y="493"/>
      <point x="457" y="515" type="curve" smooth="yes"/>
      <point x="457" y="551"/>
      <point x="395" y="567"/>
      <point x="290" y="567" type="curve" smooth="yes"/>
      <point x="216" y="567"/>
      <point x="122" y="559"/>
      <point x="122" y="525" type="curve" smooth="yes"/>
      <point x="122" y="499"/>
      <point x="169" y="496"/>
      <point x="269" y="492" type="curve" smooth="yes"/>
      <point x="332" y="490"/>
      <point x="424" y="487"/>
      <point x="478" y="448" type="curve" smooth="yes"/>
      <point x="526" y="413"/>
      <point x="562" y="349"/>
      <point x="562" y="275" type="curve"/>
      <point x="489" y="318" type="line"/>
      <point x="489" y="348"/>
      <point x="484" y="389"/>
      <point x="457" y="416" type="curve" smooth="yes"/>
      <point x="416" y="457"/>
      <point x="369" y="459"/>
      <point x="270" y="465" type="curve" smooth="yes"/>
      <point x="183" y="470"/>
      <point x="65" y="465"/>
    </contour>
    <contour>
      <point x="100" y="74" type="curve" smooth="yes"/>
      <point x="100" y="49"/>
      <point x="121" y="28"/>
      <point x="146" y="28" type="curve" smooth="yes"/>
      <point x="171" y="28"/>
      <point x="193" y="49"/>
      <point x="193" y="74" type="curve" smooth="yes"/>
      <point x="193" y="99"/>
      <point x="171" y="121"/>
      <point x="146" y="121" type="curve" smooth="yes"/>
      <point x="121" y="121"/>
      <point x="100" y="99"/>
    </contour>
    <contour>
      <point x="32" y="183" type="curve" smooth="yes"/>
      <point x="32" y="307"/>
      <point x="121" y="387"/>
      <point x="233" y="387" type="curve" smooth="yes"/>
      <point x="323" y="387"/>
      <point x="395" y="346"/>
      <point x="395" y="260" type="curve" smooth="yes"/>
      <point x="395" y="156"/>
      <point x="285" y="171"/>
      <point x="285" y="124" type="curve" smooth="yes"/>
      <point x="285" y="105"/>
      <point x="309" y="102"/>
      <point x="325" y="102" type="curve" smooth="yes"/>
      <point x="421" y="102"/>
      <point x="489" y="221"/>
      <point x="489" y="323" type="curve"/>
      <point x="506" y="308"/>
      <point x="535" y="316"/>
      <point x="562" y="277" type="curve"/>
      <point x="562" y="138"/>
      <point x="506" y="-2"/>
      <point x="372" y="-2" type="curve" smooth="yes"/>
      <point x="295" y="-2"/>
      <point x="253" y="48"/>
      <point x="253" y="106" type="curve" smooth="yes"/>
      <point x="253" y="185"/>
      <point x="323" y="168"/>
      <point x="323" y="225" type="curve" smooth="yes"/>
      <point x="323" y="246"/>
      <point x="301" y="269"/>
      <point x="231" y="269" type="curve" smooth="yes"/>
      <point x="142" y="269"/>
      <point x="68" y="217"/>
      <point x="68" y="135" type="curve" smooth="yes"/>
      <point x="68" y="127"/>
      <point x="70" y="102"/>
      <point x="75" y="89" type="curve"/>
      <point x="79" y="123"/>
      <point x="106" y="149"/>
      <point x="146" y="149" type="curve" smooth="yes"/>
      <point x="188" y="149"/>
      <point x="224" y="116"/>
      <point x="224" y="75" type="curve" smooth="yes"/>
      <point x="224" y="28"/>
      <point x="185" y="-1"/>
      <point x="146" y="-1" type="curve" smooth="yes"/>
      <point x="66" y="-1"/>
      <point x="32" y="89"/>
    </contour>
  </outline>
</glyph>
<glyph name="si_BRa" format="1">
  <advance width="604"/>
  <outline>
    <contour>
      <point x="57" y="-43" type="curve"/>
      <point x="86" y="-43" type="line"/>
      <point x="123" y="-85"/>
      <point x="175" y="-112"/>
      <point x="278" y="-112" type="curve" smooth="yes"/>
      <point x="418" y="-112"/>
      <point x="523" y="-30"/>
      <point x="523" y="62" type="curve" smooth="yes"/>
      <point x="523" y="77"/>
      <point x="521" y="89"/>
      <point x="516" y="100" type="curve"/>
      <point x="529" y="130" type="line"/>
      <point x="547" y="104"/>
      <point x="555" y="73"/>
      <point x="555" y="37" type="curve" smooth="yes"/>
      <point x="555" y="-121"/>
      <point x="434" y="-214"/>
      <point x="293" y="-214" type="curve" smooth="yes"/>
      <point x="171" y="-214"/>
      <point x="93" y="-150"/>
    </contour>
    <component base="si_Ba"/>
  </outline>
</glyph>
<glyph name="si_DAe" format="1">
  <advance width="445"/>
  <outline>
    <contour>
      <point x="30" y="165" type="curve" smooth="yes"/>
      <point x="30" y="268"/>
      <point x="102" y="310"/>
      <point x="218" y="310" type="curve" smooth="yes"/>
      <point x="332" y="310" type="line"/>
      <point x="323" y="355"/>
      <point x="294" y="381"/>
      <point x="262" y="381" type="curve" smooth="yes"/>
      <point x="243" y="381"/>
      <point x="229" y="370"/>
      <point x="221" y="353" type="curve" smooth="yes"/>
      <point x="211" y="332"/>
      <point x="194" y="325"/>
      <point x="175" y="325" type="curve" smooth="yes"/>
      <point x="151" y="325"/>
      <point x="133" y="341"/>
      <point x="133" y="362" type="curve" smooth="yes"/>
      <point x="133" y="397"/>
      <point x="173" y="423"/>
      <point x="227" y="423" type="curve" smooth="yes"/>
      <point x="311" y="423"/>
      <point x="353" y="379"/>
      <point x="370" y="284" type="curve"/>
      <point x="310" y="284" type="line" smooth="yes"/>
      <point x="224" y="284"/>
      <point x="180" y="251"/>
      <point x="180" y="169" type="curve" smooth="yes"/>
      <point x="180" y="87"/>
      <point x="231" y="43"/>
      <point x="279" y="43" type="curve" smooth="yes"/>
      <point x="309" y="43"/>
      <point x="333" y="47"/>
      <point x="372" y="92" type="curve"/>
      <point x="397" y="73" type="line"/>
      <point x="382" y="46"/>
      <point x="376" y="5"/>
      <point x="376" y="-59" type="curve" smooth="yes"/>
      <point x="376" y="-125"/>
      <point x="399" y="-195"/>
      <point x="422" y="-195" type="curve"/>
      <point x="422" y="-223" type="line"/>
      <point x="419" y="-224"/>
      <point x="415" y="-224"/>
      <point x="411" y="-224" type="curve" smooth="yes"/>
      <point x="356" y="-224"/>
      <point x="301" y="-175"/>
      <point x="301" y="-103" type="curve" smooth="yes"/>
      <point x="301" y="-49"/>
      <point x="321" y="-10"/>
      <point x="336" y="21" type="curve"/>
      <point x="309" y="5"/>
      <point x="271" y="-52"/>
      <point x="271" y="-105" type="curve" smooth="yes"/>
      <point x="271" y="-153"/>
      <point x="282" y="-189"/>
      <point x="308" y="-196" type="curve"/>
      <point x="308" y="-223" type="line"/>
      <point x="304" y="-224"/>
      <point x="294" y="-225"/>
      <point x="289" y="-225" type="curve" smooth="yes"/>
      <point x="228" y="-225"/>
      <point x="182" y="-193"/>
      <point x="182" y="-129" type="curve" smooth="yes"/>
      <point x="182" y="-77"/>
      <point x="220" y="-40"/>
      <point x="266" y="1" type="curve"/>
      <point x="258" y="-1"/>
      <point x="256" y="-1"/>
      <point x="229" y="-1" type="curve" smooth="yes"/>
      <point x="101" y="-1"/>
      <point x="30" y="67"/>
    </contour>
  </outline>
</glyph>
<glyph name="si_DDha.reph" format="1">
  <advance width="711"/>
  <outline>
    <contour>
      <point x="359" y="607" type="curve" smooth="yes"/>
      <point x="359" y="587"/>
      <point x="377" y="572"/>
      <point x="398" y="572" type="curve" smooth="yes"/>
      <point x="419" y="572"/>
      <point x="437" y="587"/>
      <point x="437" y="607" type="curve" smooth="yes"/>
      <point x="437" y="627"/>
      <point x="419" y="643"/>
      <point x="398" y="643" type="curve" smooth="yes"/>
      <point x="377" y="643"/>
      <point x="359" y="627"/>
    </contour>
    <contour>
      <point x="258" y="626" type="curve" smooth="yes"/>
      <point x="258" y="688"/>
      <point x="315" y="725"/>
      <point x="395" y="725" type="curve" smooth="yes"/>
      <point x="470" y="725"/>
      <point x="533" y="682"/>
      <point x="533" y="613" type="curve" smooth="yes"/>
      <point x="533" y="590"/>
      <point x="524" y="569"/>
      <point x="508" y="550" type="curve"/>
      <point x="474" y="550" type="line"/>
      <point x="487" y="562"/>
      <point x="502" y="585"/>
      <point x="502" y="612" type="curve" smooth="yes"/>
      <point x="502" y="665"/>
      <point x="454" y="697"/>
      <point x="394" y="697" type="curve" smooth="yes"/>
      <point x="342" y="697"/>
      <point x="290" y="675"/>
      <point x="290" y="626" type="curve" smooth="yes"/>
      <point x="290" y="588"/>
      <point x="333" y="571"/>
      <point x="350" y="569" type="curve"/>
      <point x="342" y="575"/>
      <point x="332" y="587"/>
      <point x="332" y="608" type="curve" smooth="yes"/>
      <point x="332" y="642"/>
      <point x="362" y="667"/>
      <point x="397" y="667" type="curve" smooth="yes"/>
      <point x="437" y="667"/>
      <point x="465" y="640"/>
      <point x="465" y="606" type="curve" smooth="yes"/>
      <point x="465" y="568"/>
      <point x="431" y="543"/>
      <point x="374" y="543" type="curve" smooth="yes"/>
      <point x="316" y="543"/>
      <point x="258" y="571"/>
    </contour>
    <contour>
      <point x="26" y="207" type="curve" smooth="yes"/>
      <point x="26" y="336"/>
      <point x="99" y="423"/>
      <point x="215" y="423" type="curve" smooth="yes"/>
      <point x="240" y="423"/>
      <point x="282" y="417"/>
      <point x="306" y="389" type="curve"/>
      <point x="293" y="387"/>
      <point x="269" y="384"/>
      <point x="265" y="384" type="curve"/>
      <point x="260" y="390"/>
      <point x="243" y="395"/>
      <point x="219" y="395" type="curve" smooth="yes"/>
      <point x="95" y="395"/>
      <point x="57" y="291"/>
      <point x="57" y="204" type="curve" smooth="yes"/>
      <point x="57" y="129"/>
      <point x="84" y="74"/>
      <point x="132" y="33" type="curve"/>
      <point x="132" y="0" type="line"/>
      <point x="67" y="32"/>
      <point x="26" y="108"/>
    </contour>
    <component base="si_Dha" xOffset="91"/>
  </outline>
</glyph>
<glyph name="si_DV.halant" format="1">
  <advance width="671"/>
  <outline>
    <contour>
      <point x="121" y="161" type="curve" smooth="yes"/>
      <point x="121" y="244"/>
      <point x="184" y="297"/>
      <point x="283" y="297" type="curve" smooth="yes"/>
      <point x="339" y="297" type="line" smooth="yes"/>
      <point x="339" y="299"/>
      <point x="339" y="299"/>
      <point x="339" y="301" type="curve" smooth="yes"/>
      <point x="339" y="350"/>
      <point x="307" y="378"/>
      <point x="275" y="378" type="curve" smooth="yes"/>
      <point x="242" y="378"/>
      <point x="231" y="363"/>
      <point x="226" y="347" type="curve" smooth="yes"/>
      <point x="220" y="328"/>
      <point x="208" y="312"/>
      <point x="183" y="312" type="curve" smooth="yes"/>
      <point x="161" y="312"/>
      <point x="144" y="326"/>
      <point x="144" y="351" type="curve" smooth="yes"/>
      <point x="144" y="397"/>
      <point x="192" y="421"/>
      <point x="246" y="421" type="curve" smooth="yes"/>
      <point x="332" y="421"/>
      <point x="374" y="367"/>
      <point x="374" y="283" type="curve" smooth="yes"/>
      <point x="374" y="280"/>
      <point x="374" y="274"/>
      <point x="374" y="271" type="curve" smooth="yes"/>
      <point x="295" y="271" type="line" smooth="yes"/>
      <point x="223" y="271"/>
      <point x="188" y="244"/>
      <point x="188" y="208" type="curve" smooth="yes"/>
      <point x="188" y="147"/>
      <point x="281" y="137"/>
      <point x="353" y="137" type="curve" smooth="yes"/>
      <point x="501" y="137"/>
      <point x="563" y="206"/>
      <point x="562" y="308" type="curve" smooth="yes"/>
      <point x="561" y="417"/>
      <point x="486" y="480"/>
      <point x="342" y="480" type="curve" smooth="yes"/>
      <point x="268" y="480"/>
      <point x="206" y="467"/>
      <point x="127" y="430" type="curve"/>
      <point x="127" y="462" type="line"/>
      <point x="158" y="474"/>
      <point x="207" y="487"/>
      <point x="207" y="496" type="curve" smooth="yes"/>
      <point x="207" y="508"/>
      <point x="179" y="508"/>
      <point x="179" y="533" type="curve" smooth="yes"/>
      <point x="179" y="569"/>
      <point x="244" y="614"/>
      <point x="348" y="614" type="curve" smooth="yes"/>
      <point x="546" y="614"/>
      <point x="604" y="479"/>
      <point x="616" y="348" type="curve" smooth="yes"/>
      <point x="622" y="321"/>
      <point x="624" y="299"/>
      <point x="624" y="268" type="curve" smooth="yes"/>
      <point x="624" y="112"/>
      <point x="528" y="0"/>
      <point x="350" y="0" type="curve" smooth="yes"/>
      <point x="232" y="0"/>
      <point x="121" y="45"/>
    </contour>
    <contour>
      <point x="227" y="525" type="curve" smooth="yes"/>
      <point x="227" y="513"/>
      <point x="245" y="514"/>
      <point x="245" y="503" type="curve" smooth="yes"/>
      <point x="245" y="501"/>
      <point x="244" y="498"/>
      <point x="242" y="496" type="curve"/>
      <point x="273" y="503"/>
      <point x="300" y="507"/>
      <point x="345" y="507" type="curve" smooth="yes"/>
      <point x="450" y="507"/>
      <point x="519" y="477"/>
      <point x="573" y="415" type="curve"/>
      <point x="541" y="523"/>
      <point x="463" y="561"/>
      <point x="350" y="561" type="curve" smooth="yes"/>
      <point x="280" y="561"/>
      <point x="227" y="544"/>
    </contour>
    <contour>
      <point x="26" y="216" type="curve" smooth="yes"/>
      <point x="26" y="345"/>
      <point x="97" y="423"/>
      <point x="233" y="423" type="curve" smooth="yes"/>
      <point x="242" y="423"/>
      <point x="265" y="423"/>
      <point x="286" y="417" type="curve"/>
      <point x="265" y="406"/>
      <point x="191" y="395"/>
      <point x="174" y="389" type="curve"/>
      <point x="104" y="372"/>
      <point x="58" y="312"/>
      <point x="58" y="213" type="curve" smooth="yes"/>
      <point x="58" y="134"/>
      <point x="84" y="76"/>
      <point x="132" y="33" type="curve"/>
      <point x="132" y="0" type="line"/>
      <point x="67" y="32"/>
      <point x="26" y="117"/>
    </contour>
  </outline>
</glyph>
<glyph name="si_DVU" format="1">
  <advance width="671"/>
  <outline>
    <contour>
      <point x="133" y="-139" type="curve" smooth="yes"/>
      <point x="133" y="-88"/>
      <point x="178" y="-49"/>
      <point x="232" y="-49" type="curve" smooth="yes"/>
      <point x="273" y="-49"/>
      <point x="310" y="-72"/>
      <point x="324" y="-107" type="curve"/>
      <point x="292" y="-119" type="line"/>
      <point x="285" y="-102"/>
      <point x="264" y="-80"/>
      <point x="232" y="-80" type="curve" smooth="yes"/>
      <point x="196" y="-80"/>
      <point x="167" y="-107"/>
      <point x="167" y="-139" type="curve" smooth="yes"/>
      <point x="167" y="-167"/>
      <point x="189" y="-188"/>
      <point x="257" y="-188" type="curve" smooth="yes"/>
      <point x="581" y="-188" type="line"/>
      <point x="581" y="125" type="line"/>
      <point x="615" y="214" type="line"/>
      <point x="615" y="-229" type="line"/>
      <point x="236" y="-229" type="line" smooth="yes"/>
      <point x="158" y="-229"/>
      <point x="133" y="-182"/>
    </contour>
    <contour>
      <point x="122" y="161" type="curve" smooth="yes"/>
      <point x="122" y="244"/>
      <point x="185" y="297"/>
      <point x="284" y="297" type="curve" smooth="yes"/>
      <point x="340" y="297" type="line"/>
      <point x="340" y="299"/>
      <point x="340" y="299"/>
      <point x="340" y="301" type="curve" smooth="yes"/>
      <point x="340" y="350"/>
      <point x="308" y="378"/>
      <point x="276" y="378" type="curve" smooth="yes"/>
      <point x="243" y="378"/>
      <point x="232" y="363"/>
      <point x="227" y="347" type="curve" smooth="yes"/>
      <point x="221" y="328"/>
      <point x="209" y="312"/>
      <point x="184" y="312" type="curve" smooth="yes"/>
      <point x="162" y="312"/>
      <point x="145" y="326"/>
      <point x="145" y="351" type="curve" smooth="yes"/>
      <point x="145" y="397"/>
      <point x="193" y="421"/>
      <point x="247" y="421" type="curve" smooth="yes"/>
      <point x="333" y="421"/>
      <point x="375" y="367"/>
      <point x="375" y="283" type="curve" smooth="yes"/>
      <point x="375" y="280"/>
      <point x="375" y="274"/>
      <point x="375" y="271" type="curve"/>
      <point x="296" y="271" type="line" smooth="yes"/>
      <point x="224" y="271"/>
      <point x="188" y="244"/>
      <point x="188" y="208" type="curve" smooth="yes"/>
      <point x="188" y="147"/>
      <point x="282" y="137"/>
      <point x="354" y="137" type="curve" smooth="yes"/>
      <point x="503" y="137"/>
      <point x="569" y="206"/>
      <point x="569" y="310" type="curve" smooth="yes"/>
      <point x="569" y="426"/>
      <point x="490" y="538"/>
      <point x="359" y="538" type="curve" smooth="yes"/>
      <point x="282" y="538"/>
      <point x="223" y="510"/>
      <point x="180" y="459" type="curve"/>
      <point x="146" y="459" type="line"/>
      <point x="194" y="527"/>
      <point x="263" y="563"/>
      <point x="359" y="563" type="curve" smooth="yes"/>
      <point x="515" y="563"/>
      <point x="625" y="433"/>
      <point x="625" y="268" type="curve" smooth="yes"/>
      <point x="625" y="112"/>
      <point x="530" y="0"/>
      <point x="351" y="0" type="curve" smooth="yes"/>
      <point x="233" y="0"/>
      <point x="122" y="45"/>
    </contour>
    <contour>
      <point x="26" y="216" type="curve" smooth="yes"/>
      <point x="26" y="345"/>
      <point x="97" y="423"/>
      <point x="233" y="423" type="curve" smooth="yes"/>
      <point x="242" y="423"/>
      <point x="265" y="423"/>
      <point x="286" y="417" type="curve"/>
      <point x="265" y="406"/>
      <point x="191" y="395"/>
      <point x="174" y="389" type="curve"/>
      <point x="104" y="372"/>
      <point x="58" y="312"/>
      <point x="58" y="213" type="curve" smooth="yes"/>
      <point x="58" y="134"/>
      <point x="84" y="76"/>
      <point x="132" y="33" type="curve"/>
      <point x="132" y="0" type="line"/>
      <point x="67" y="32"/>
      <point x="26" y="117"/>
    </contour>
  </outline>
</glyph>
<glyph name="si_DVa.reph" format="1">
  <advance width="671"/>
  <outline>
    <contour>
      <point x="338" y="606" type="curve" smooth="yes"/>
      <point x="338" y="626"/>
      <point x="356" y="642"/>
      <point x="377" y="642" type="curve" smooth="yes"/>
      <point x="398" y="642"/>
      <point x="416" y="626"/>
      <point x="416" y="606" type="curve" smooth="yes"/>
      <point x="416" y="586"/>
      <point x="398" y="571"/>
      <point x="377" y="571" type="curve" smooth="yes"/>
      <point x="356" y="571"/>
      <point x="338" y="586"/>
    </contour>
    <contour>
      <point x="237" y="625" type="curve" smooth="yes"/>
      <point x="237" y="570"/>
      <point x="294" y="542"/>
      <point x="352" y="542" type="curve" smooth="yes"/>
      <point x="409" y="542"/>
      <point x="443" y="567"/>
      <point x="443" y="605" type="curve" smooth="yes"/>
      <point x="443" y="639"/>
      <point x="416" y="666"/>
      <point x="376" y="666" type="curve" smooth="yes"/>
      <point x="341" y="666"/>
      <point x="310" y="641"/>
      <point x="310" y="607" type="curve" smooth="yes"/>
      <point x="310" y="586"/>
      <point x="321" y="574"/>
      <point x="329" y="568" type="curve"/>
      <point x="312" y="570"/>
      <point x="269" y="587"/>
      <point x="269" y="625" type="curve" smooth="yes"/>
      <point x="269" y="674"/>
      <point x="321" y="696"/>
      <point x="373" y="696" type="curve" smooth="yes"/>
      <point x="433" y="696"/>
      <point x="480" y="664"/>
      <point x="480" y="611" type="curve" smooth="yes"/>
      <point x="480" y="584"/>
      <point x="465" y="561"/>
      <point x="452" y="549" type="curve"/>
      <point x="487" y="549" type="line"/>
      <point x="503" y="568"/>
      <point x="512" y="589"/>
      <point x="512" y="612" type="curve" smooth="yes"/>
      <point x="512" y="681"/>
      <point x="449" y="724"/>
      <point x="374" y="724" type="curve" smooth="yes"/>
      <point x="294" y="724"/>
      <point x="237" y="687"/>
    </contour>
    <contour>
      <point x="26" y="216" type="curve" smooth="yes"/>
      <point x="26" y="345"/>
      <point x="97" y="423"/>
      <point x="233" y="423" type="curve" smooth="yes"/>
      <point x="242" y="423"/>
      <point x="265" y="423"/>
      <point x="286" y="417" type="curve"/>
      <point x="265" y="406"/>
      <point x="191" y="395"/>
      <point x="174" y="389" type="curve"/>
      <point x="104" y="372"/>
      <point x="58" y="312"/>
      <point x="58" y="213" type="curve" smooth="yes"/>
      <point x="58" y="134"/>
      <point x="84" y="76"/>
      <point x="132" y="33" type="curve"/>
      <point x="132" y="0" type="line"/>
      <point x="67" y="32"/>
      <point x="26" y="117"/>
    </contour>
    <component base="si_Va" xOffset="90"/>
  </outline>
</glyph>
<glyph name="si_Dda.reph" format="1">
  <advance width="631"/>
  <outline>
    <contour>
      <point x="272" y="607" type="curve" smooth="yes"/>
      <point x="272" y="587"/>
      <point x="290" y="572"/>
      <point x="311" y="572" type="curve" smooth="yes"/>
      <point x="332" y="572"/>
      <point x="350" y="587"/>
      <point x="350" y="607" type="curve" smooth="yes"/>
      <point x="350" y="627"/>
      <point x="332" y="643"/>
      <point x="311" y="643" type="curve" smooth="yes"/>
      <point x="290" y="643"/>
      <point x="272" y="627"/>
    </contour>
    <contour>
      <point x="171" y="626" type="curve" smooth="yes"/>
      <point x="171" y="688"/>
      <point x="228" y="725"/>
      <point x="308" y="725" type="curve" smooth="yes"/>
      <point x="383" y="725"/>
      <point x="446" y="682"/>
      <point x="446" y="613" type="curve" smooth="yes"/>
      <point x="446" y="590"/>
      <point x="437" y="569"/>
      <point x="421" y="550" type="curve"/>
      <point x="386" y="550" type="line"/>
      <point x="399" y="562"/>
      <point x="414" y="585"/>
      <point x="414" y="612" type="curve" smooth="yes"/>
      <point x="414" y="665"/>
      <point x="367" y="697"/>
      <point x="307" y="697" type="curve" smooth="yes"/>
      <point x="255" y="697"/>
      <point x="203" y="675"/>
      <point x="203" y="626" type="curve" smooth="yes"/>
      <point x="203" y="588"/>
      <point x="245" y="571"/>
      <point x="262" y="569" type="curve"/>
      <point x="254" y="575"/>
      <point x="244" y="587"/>
      <point x="244" y="608" type="curve" smooth="yes"/>
      <point x="244" y="642"/>
      <point x="275" y="667"/>
      <point x="310" y="667" type="curve" smooth="yes"/>
      <point x="350" y="667"/>
      <point x="377" y="640"/>
      <point x="377" y="606" type="curve" smooth="yes"/>
      <point x="377" y="568"/>
      <point x="343" y="543"/>
      <point x="286" y="543" type="curve" smooth="yes"/>
      <point x="228" y="543"/>
      <point x="171" y="571"/>
    </contour>
    <component base="si_Dda"/>
  </outline>
</glyph>
<glyph name="si_FUu" format="1">
  <advance width="592"/>
  <outline>
    <contour>
      <point x="52" y="-135" type="curve" smooth="yes"/>
      <point x="52" y="-78"/>
      <point x="99" y="-39"/>
      <point x="151" y="-39" type="curve" smooth="yes"/>
      <point x="192" y="-39"/>
      <point x="213" y="-54"/>
      <point x="235" y="-89" type="curve"/>
      <point x="214" y="-100" type="line"/>
      <point x="203" y="-83"/>
      <point x="184" y="-68"/>
      <point x="156" y="-68" type="curve" smooth="yes"/>
      <point x="118" y="-68"/>
      <point x="94" y="-93"/>
      <point x="94" y="-117" type="curve" smooth="yes"/>
      <point x="94" y="-148"/>
      <point x="122" y="-163"/>
      <point x="155" y="-163" type="curve" smooth="yes"/>
      <point x="229" y="-163"/>
      <point x="286" y="-112"/>
      <point x="383" y="-112" type="curve" smooth="yes"/>
      <point x="426" y="-112"/>
      <point x="473" y="-131"/>
      <point x="499" y="-162" type="curve"/>
      <point x="499" y="148" type="line"/>
      <point x="533" y="207" type="line"/>
      <point x="533" y="-226" type="line"/>
      <point x="508" y="-226" type="line"/>
      <point x="493" y="-191"/>
      <point x="453" y="-143"/>
      <point x="392" y="-143" type="curve" smooth="yes"/>
      <point x="303" y="-143"/>
      <point x="256" y="-231"/>
      <point x="160" y="-231" type="curve" smooth="yes"/>
      <point x="106" y="-231"/>
      <point x="52" y="-201"/>
    </contour>
    <component base="si_Fa"/>
  </outline>
</glyph>
<glyph name="si_GRa" format="1">
  <advance width="621"/>
  <outline>
    <contour>
      <point x="54" y="-43" type="curve"/>
      <point x="83" y="-43" type="line"/>
      <point x="116" y="-91"/>
      <point x="171" y="-111"/>
      <point x="282" y="-111" type="curve" smooth="yes"/>
      <point x="430" y="-111"/>
      <point x="539" y="-30"/>
      <point x="539" y="62" type="curve" smooth="yes"/>
      <point x="539" y="77"/>
      <point x="536" y="89"/>
      <point x="529" y="100" type="curve"/>
      <point x="542" y="130" type="line"/>
      <point x="560" y="104"/>
      <point x="568" y="73"/>
      <point x="568" y="37" type="curve" smooth="yes"/>
      <point x="568" y="-121"/>
      <point x="452" y="-214"/>
      <point x="304" y="-214" type="curve" smooth="yes"/>
      <point x="167" y="-214"/>
      <point x="90" y="-150"/>
    </contour>
    <component base="si_Ga"/>
  </outline>
</glyph>
<glyph name="si_GUu" format="1">
  <advance width="621"/>
  <outline>
    <contour>
      <point x="328" y="-126" type="curve" smooth="yes"/>
      <point x="328" y="-91"/>
      <point x="355" y="-70"/>
      <point x="391" y="-65" type="curve"/>
      <point x="337" y="-38" type="line"/>
      <point x="420" y="-14" type="line"/>
      <point x="331" y="1" type="line"/>
      <point x="384" y="14" type="line"/>
      <point x="503" y="-6" type="line"/>
      <point x="398" y="-42" type="line"/>
      <point x="457" y="-74" type="line"/>
      <point x="430" y="-81"/>
      <point x="377" y="-81"/>
      <point x="377" y="-102" type="curve" smooth="yes"/>
      <point x="377" y="-118"/>
      <point x="408" y="-126"/>
      <point x="449" y="-126" type="curve" smooth="yes"/>
      <point x="502" y="-126"/>
      <point x="545" y="-110"/>
      <point x="545" y="-80" type="curve" smooth="yes"/>
      <point x="545" y="-75"/>
      <point x="544" y="-66"/>
      <point x="539" y="-58" type="curve"/>
      <point x="573" y="-58" type="line"/>
      <point x="577" y="-70"/>
      <point x="577" y="-81"/>
      <point x="577" y="-92" type="curve" smooth="yes"/>
      <point x="577" y="-157"/>
      <point x="527" y="-200"/>
      <point x="447" y="-200" type="curve" smooth="yes"/>
      <point x="390" y="-200"/>
      <point x="328" y="-183"/>
    </contour>
    <component base="si_Ga"/>
  </outline>
</glyph>
<glyph name="si_GhR.halant" format="1">
  <advance width="661"/>
  <outline>
    <contour>
      <point x="62" y="-43" type="curve"/>
      <point x="91" y="-43" type="line"/>
      <point x="126" y="-85"/>
      <point x="192" y="-113"/>
      <point x="303" y="-113" type="curve" smooth="yes"/>
      <point x="451" y="-113"/>
      <point x="583" y="-30"/>
      <point x="583" y="62" type="curve" smooth="yes"/>
      <point x="583" y="77"/>
      <point x="581" y="89"/>
      <point x="574" y="100" type="curve"/>
      <point x="586" y="130" type="line"/>
      <point x="604" y="104"/>
      <point x="613" y="73"/>
      <point x="613" y="37" type="curve" smooth="yes"/>
      <point x="613" y="-121"/>
      <point x="473" y="-214"/>
      <point x="325" y="-214" type="curve" smooth="yes"/>
      <point x="188" y="-214"/>
      <point x="98" y="-150"/>
    </contour>
    <component base="si_Gh.halant"/>
  </outline>
</glyph>
<glyph name="si_Gha.reph" format="1">
  <advance width="661"/>
  <outline>
    <contour>
      <point x="290" y="499" type="curve" smooth="yes"/>
      <point x="290" y="479"/>
      <point x="308" y="463"/>
      <point x="329" y="463" type="curve" smooth="yes"/>
      <point x="350" y="463"/>
      <point x="368" y="479"/>
      <point x="368" y="499" type="curve" smooth="yes"/>
      <point x="368" y="519"/>
      <point x="350" y="535"/>
      <point x="329" y="535" type="curve" smooth="yes"/>
      <point x="308" y="535"/>
      <point x="290" y="519"/>
    </contour>
    <contour>
      <point x="189" y="518" type="curve" smooth="yes"/>
      <point x="189" y="580"/>
      <point x="246" y="616"/>
      <point x="326" y="616" type="curve" smooth="yes"/>
      <point x="401" y="616"/>
      <point x="464" y="574"/>
      <point x="464" y="505" type="curve" smooth="yes"/>
      <point x="464" y="482"/>
      <point x="455" y="460"/>
      <point x="439" y="441" type="curve"/>
      <point x="405" y="441" type="line"/>
      <point x="418" y="453"/>
      <point x="433" y="477"/>
      <point x="433" y="504" type="curve" smooth="yes"/>
      <point x="433" y="557"/>
      <point x="385" y="588"/>
      <point x="325" y="588" type="curve" smooth="yes"/>
      <point x="273" y="588"/>
      <point x="221" y="567"/>
      <point x="221" y="518" type="curve" smooth="yes"/>
      <point x="221" y="480"/>
      <point x="264" y="462"/>
      <point x="281" y="460" type="curve"/>
      <point x="273" y="466"/>
      <point x="263" y="479"/>
      <point x="263" y="500" type="curve" smooth="yes"/>
      <point x="263" y="534"/>
      <point x="293" y="559"/>
      <point x="328" y="559" type="curve" smooth="yes"/>
      <point x="368" y="559"/>
      <point x="396" y="532"/>
      <point x="396" y="498" type="curve" smooth="yes"/>
      <point x="396" y="460"/>
      <point x="362" y="435"/>
      <point x="305" y="435" type="curve" smooth="yes"/>
      <point x="247" y="435"/>
      <point x="189" y="463"/>
    </contour>
    <component base="si_Gha"/>
  </outline>
</glyph>
<glyph name="si_HRIi" format="1">
  <advance width="637"/>
  <outline>
    <contour>
      <point x="384" y="508" type="curve" smooth="yes"/>
      <point x="384" y="476"/>
      <point x="413" y="449"/>
      <point x="449" y="449" type="curve" smooth="yes"/>
      <point x="485" y="449"/>
      <point x="514" y="476"/>
      <point x="514" y="508" type="curve" smooth="yes"/>
      <point x="514" y="540"/>
      <point x="485" y="566"/>
      <point x="449" y="566" type="curve" smooth="yes"/>
      <point x="413" y="566"/>
      <point x="384" y="540"/>
    </contour>
    <contour>
      <point x="146" y="524" type="curve" smooth="yes"/>
      <point x="146" y="613"/>
      <point x="243" y="651"/>
      <point x="343" y="651" type="curve" smooth="yes"/>
      <point x="446" y="651"/>
      <point x="546" y="604"/>
      <point x="546" y="513" type="curve" smooth="yes"/>
      <point x="546" y="446"/>
      <point x="490" y="421"/>
      <point x="449" y="421" type="curve" smooth="yes"/>
      <point x="404" y="421"/>
      <point x="353" y="453"/>
      <point x="353" y="508" type="curve" smooth="yes"/>
      <point x="353" y="527"/>
      <point x="359" y="542"/>
      <point x="366" y="553" type="curve"/>
      <point x="360" y="553"/>
      <point x="356" y="553"/>
      <point x="350" y="553" type="curve" smooth="yes"/>
      <point x="270" y="553"/>
      <point x="216" y="525"/>
      <point x="216" y="491" type="curve" smooth="yes"/>
      <point x="216" y="443"/>
      <point x="317" y="421"/>
      <point x="401" y="421" type="curve" smooth="yes"/>
      <point x="402" y="421"/>
      <point x="402" y="421"/>
      <point x="403" y="421" type="curve"/>
      <point x="388" y="400" type="line"/>
      <point x="232" y="403"/>
      <point x="146" y="451"/>
    </contour>
    <contour>
      <point x="60" y="-43" type="curve"/>
      <point x="89" y="-43" type="line"/>
      <point x="122" y="-91"/>
      <point x="180" y="-111"/>
      <point x="291" y="-111" type="curve" smooth="yes"/>
      <point x="439" y="-111"/>
      <point x="559" y="-30"/>
      <point x="559" y="62" type="curve" smooth="yes"/>
      <point x="559" y="77"/>
      <point x="556" y="89"/>
      <point x="549" y="100" type="curve"/>
      <point x="562" y="130" type="line"/>
      <point x="580" y="104"/>
      <point x="588" y="73"/>
      <point x="588" y="37" type="curve" smooth="yes"/>
      <point x="588" y="-121"/>
      <point x="460" y="-214"/>
      <point x="312" y="-214" type="curve" smooth="yes"/>
      <point x="175" y="-214"/>
      <point x="96" y="-150"/>
    </contour>
    <component base="si_Ha"/>
  </outline>
</glyph>
<glyph name="si_Ja.reph" format="1">
  <advance width="583"/>
  <outline>
    <contour>
      <point x="198" y="499" type="curve" smooth="yes"/>
      <point x="198" y="479"/>
      <point x="217" y="463"/>
      <point x="238" y="463" type="curve" smooth="yes"/>
      <point x="259" y="463"/>
      <point x="277" y="479"/>
      <point x="277" y="499" type="curve" smooth="yes"/>
      <point x="277" y="519"/>
      <point x="259" y="535"/>
      <point x="238" y="535" type="curve" smooth="yes"/>
      <point x="217" y="535"/>
      <point x="198" y="519"/>
    </contour>
    <contour>
      <point x="98" y="518" type="curve" smooth="yes"/>
      <point x="98" y="580"/>
      <point x="155" y="616"/>
      <point x="235" y="616" type="curve" smooth="yes"/>
      <point x="310" y="616"/>
      <point x="372" y="574"/>
      <point x="372" y="505" type="curve" smooth="yes"/>
      <point x="372" y="482"/>
      <point x="364" y="460"/>
      <point x="348" y="441" type="curve"/>
      <point x="313" y="441" type="line"/>
      <point x="326" y="453"/>
      <point x="341" y="477"/>
      <point x="341" y="504" type="curve" smooth="yes"/>
      <point x="341" y="557"/>
      <point x="294" y="588"/>
      <point x="234" y="588" type="curve" smooth="yes"/>
      <point x="182" y="588"/>
      <point x="130" y="567"/>
      <point x="130" y="518" type="curve" smooth="yes"/>
      <point x="130" y="480"/>
      <point x="172" y="462"/>
      <point x="189" y="460" type="curve"/>
      <point x="181" y="466"/>
      <point x="171" y="479"/>
      <point x="171" y="500" type="curve" smooth="yes"/>
      <point x="171" y="534"/>
      <point x="202" y="559"/>
      <point x="237" y="559" type="curve" smooth="yes"/>
      <point x="277" y="559"/>
      <point x="304" y="532"/>
      <point x="304" y="498" type="curve" smooth="yes"/>
      <point x="304" y="460"/>
      <point x="270" y="435"/>
      <point x="213" y="435" type="curve" smooth="yes"/>
      <point x="155" y="435"/>
      <point x="98" y="463"/>
    </contour>
    <component base="si_Ja"/>
  </outline>
</glyph>
<glyph name="si_JnyAa" format="1">
  <advance width="822"/>
  <outline>
    <contour>
      <point x="411" y="165" type="curve" smooth="yes"/>
      <point x="411" y="268"/>
      <point x="483" y="310"/>
      <point x="599" y="310" type="curve" smooth="yes"/>
      <point x="713" y="310" type="line"/>
      <point x="704" y="355"/>
      <point x="675" y="381"/>
      <point x="643" y="381" type="curve" smooth="yes"/>
      <point x="624" y="381"/>
      <point x="610" y="370"/>
      <point x="602" y="353" type="curve" smooth="yes"/>
      <point x="592" y="332"/>
      <point x="575" y="325"/>
      <point x="556" y="325" type="curve" smooth="yes"/>
      <point x="532" y="325"/>
      <point x="514" y="341"/>
      <point x="514" y="362" type="curve" smooth="yes"/>
      <point x="514" y="397"/>
      <point x="554" y="423"/>
      <point x="608" y="423" type="curve" smooth="yes"/>
      <point x="692" y="423"/>
      <point x="734" y="379"/>
      <point x="751" y="284" type="curve"/>
      <point x="691" y="284" type="line" smooth="yes"/>
      <point x="605" y="284"/>
      <point x="561" y="251"/>
      <point x="561" y="169" type="curve" smooth="yes"/>
      <point x="561" y="87"/>
      <point x="612" y="43"/>
      <point x="660" y="43" type="curve" smooth="yes"/>
      <point x="690" y="43"/>
      <point x="714" y="47"/>
      <point x="753" y="92" type="curve"/>
      <point x="784" y="73" type="line"/>
      <point x="764" y="57"/>
      <point x="748" y="40"/>
      <point x="733" y="32" type="curve"/>
      <point x="736" y="33"/>
      <point x="735" y="33"/>
      <point x="739" y="33" type="curve" smooth="yes"/>
      <point x="786" y="33"/>
      <point x="818" y="-17"/>
      <point x="818" y="-85" type="curve" smooth="yes"/>
      <point x="818" y="-171"/>
      <point x="781" y="-208"/>
      <point x="715" y="-208" type="curve" smooth="yes"/>
      <point x="667" y="-208"/>
      <point x="650" y="-183"/>
      <point x="650" y="-162" type="curve"/>
      <point x="683" y="-162" type="line"/>
      <point x="683" y="-169"/>
      <point x="690" y="-172"/>
      <point x="698" y="-172" type="curve" smooth="yes"/>
      <point x="722" y="-172"/>
      <point x="733" y="-148"/>
      <point x="733" y="-88" type="curve" smooth="yes"/>
      <point x="733" y="-44"/>
      <point x="719" y="-17"/>
      <point x="701" y="-17" type="curve" smooth="yes"/>
      <point x="684" y="-17"/>
      <point x="678" y="-29"/>
      <point x="678" y="-44" type="curve"/>
      <point x="646" y="-44" type="line"/>
      <point x="646" y="-29"/>
      <point x="653" y="-8"/>
      <point x="664" y="2" type="curve"/>
      <point x="653" y="1"/>
      <point x="637" y="-1"/>
      <point x="610" y="-1" type="curve" smooth="yes"/>
      <point x="482" y="-1"/>
      <point x="411" y="67"/>
    </contour>
    <contour>
      <point x="131" y="202" type="curve" smooth="yes"/>
      <point x="131" y="322"/>
      <point x="204" y="421"/>
      <point x="312" y="421" type="curve" smooth="yes"/>
      <point x="316" y="421"/>
      <point x="321" y="421"/>
      <point x="325" y="421" type="curve"/>
      <point x="325" y="396" type="line"/>
      <point x="322" y="396"/>
      <point x="317" y="396"/>
      <point x="314" y="396" type="curve" smooth="yes"/>
      <point x="230" y="396"/>
      <point x="183" y="320"/>
      <point x="183" y="252" type="curve" smooth="yes"/>
      <point x="183" y="198"/>
      <point x="222" y="137"/>
      <point x="301" y="137" type="curve" smooth="yes"/>
      <point x="359" y="137"/>
      <point x="385" y="157"/>
      <point x="385" y="186" type="curve" smooth="yes"/>
      <point x="385" y="197"/>
      <point x="379" y="215"/>
      <point x="358" y="215" type="curve" smooth="yes"/>
      <point x="351" y="215"/>
      <point x="343" y="212"/>
      <point x="338" y="208" type="curve"/>
      <point x="337" y="202"/>
      <point x="335" y="192"/>
      <point x="335" y="189" type="curve"/>
      <point x="307" y="189" type="line"/>
      <point x="320" y="346"/>
      <point x="397" y="428"/>
      <point x="547" y="428" type="curve" smooth="yes"/>
      <point x="577" y="428"/>
      <point x="626" y="426"/>
      <point x="658" y="416" type="curve"/>
      <point x="540" y="399" type="line"/>
      <point x="535" y="399"/>
      <point x="533" y="399"/>
      <point x="527" y="399" type="curve" smooth="yes"/>
      <point x="432" y="399"/>
      <point x="363" y="339"/>
      <point x="342" y="235" type="curve"/>
      <point x="350" y="239"/>
      <point x="354" y="240"/>
      <point x="361" y="240" type="curve" smooth="yes"/>
      <point x="408" y="240"/>
      <point x="441" y="197"/>
      <point x="441" y="133" type="curve" smooth="yes"/>
      <point x="441" y="55"/>
      <point x="386" y="-2"/>
      <point x="301" y="-2" type="curve" smooth="yes"/>
      <point x="193" y="-2"/>
      <point x="131" y="94"/>
    </contour>
    <contour>
      <point x="26" y="216" type="curve" smooth="yes"/>
      <point x="26" y="345"/>
      <point x="97" y="423"/>
      <point x="233" y="423" type="curve" smooth="yes"/>
      <point x="242" y="423"/>
      <point x="292" y="422"/>
      <point x="318" y="421" type="curve"/>
      <point x="297" y="410"/>
      <point x="248" y="404"/>
      <point x="233" y="396" type="curve"/>
      <point x="133" y="396"/>
      <point x="58" y="339"/>
      <point x="58" y="213" type="curve" smooth="yes"/>
      <point x="58" y="134"/>
      <point x="84" y="76"/>
      <point x="132" y="33" type="curve"/>
      <point x="132" y="0" type="line"/>
      <point x="67" y="32"/>
      <point x="26" y="117"/>
    </contour>
  </outline>
</glyph>
<glyph name="si_KI" format="1">
  <advance width="728"/>
  <outline>
    <contour>
      <point x="213" y="411" type="curve" smooth="yes"/>
      <point x="213" y="576"/>
      <point x="322" y="655"/>
      <point x="462" y="655" type="curve" smooth="yes"/>
      <point x="589" y="655"/>
      <point x="672" y="596"/>
      <point x="672" y="493" type="curve" smooth="yes"/>
      <point x="672" y="433"/>
      <point x="643" y="393"/>
      <point x="596" y="374" type="curve"/>
      <point x="565" y="394" type="line"/>
      <point x="598" y="398"/>
      <point x="618" y="416"/>
      <point x="618" y="445" type="curve" smooth="yes"/>
      <point x="618" y="502"/>
      <point x="542" y="537"/>
      <point x="462" y="537" type="curve" smooth="yes"/>
      <point x="328" y="537"/>
      <point x="241" y="463"/>
      <point x="241" y="387" type="curve" smooth="yes"/>
      <point x="241" y="378"/>
      <point x="241" y="366"/>
      <point x="244" y="357" type="curve"/>
      <point x="220" y="335" type="line"/>
      <point x="216" y="352"/>
      <point x="213" y="381"/>
    </contour>
    <component base="si_Ka"/>
  </outline>
</glyph>
<glyph name="si_KSsI" format="1">
  <advance width="1043"/>
  <outline>
    <contour>
      <point x="503" y="506" type="curve" smooth="yes"/>
      <point x="503" y="612"/>
      <point x="613" y="655"/>
      <point x="730" y="655" type="curve" smooth="yes"/>
      <point x="847" y="655"/>
      <point x="956" y="612"/>
      <point x="956" y="506" type="curve" smooth="yes"/>
      <point x="956" y="433"/>
      <point x="892" y="399"/>
      <point x="817" y="396" type="curve"/>
      <point x="819" y="416" type="line"/>
      <point x="871" y="419"/>
      <point x="893" y="437"/>
      <point x="893" y="468" type="curve" smooth="yes"/>
      <point x="893" y="509"/>
      <point x="814" y="523"/>
      <point x="730" y="523" type="curve" smooth="yes"/>
      <point x="643" y="523"/>
      <point x="562" y="510"/>
      <point x="562" y="468" type="curve" smooth="yes"/>
      <point x="562" y="440"/>
      <point x="588" y="419"/>
      <point x="640" y="416" type="curve"/>
      <point x="643" y="396" type="line"/>
      <point x="568" y="399"/>
      <point x="503" y="433"/>
    </contour>
    <component base="si_KSsa"/>
  </outline>
</glyph>
<glyph name="si_KSsa.reph" format="1">
  <advance width="1043"/>
  <outline>
    <contour>
      <point x="697" y="499" type="curve" smooth="yes"/>
      <point x="697" y="479"/>
      <point x="716" y="463"/>
      <point x="737" y="463" type="curve" smooth="yes"/>
      <point x="758" y="463"/>
      <point x="776" y="479"/>
      <point x="776" y="499" type="curve" smooth="yes"/>
      <point x="776" y="519"/>
      <point x="758" y="535"/>
      <point x="737" y="535" type="curve" smooth="yes"/>
      <point x="716" y="535"/>
      <point x="697" y="519"/>
    </contour>
    <contour>
      <point x="597" y="518" type="curve" smooth="yes"/>
      <point x="597" y="580"/>
      <point x="654" y="616"/>
      <point x="734" y="616" type="curve" smooth="yes"/>
      <point x="809" y="616"/>
      <point x="871" y="574"/>
      <point x="871" y="505" type="curve" smooth="yes"/>
      <point x="871" y="482"/>
      <point x="863" y="460"/>
      <point x="847" y="441" type="curve"/>
      <point x="812" y="441" type="line"/>
      <point x="825" y="453"/>
      <point x="840" y="477"/>
      <point x="840" y="504" type="curve" smooth="yes"/>
      <point x="840" y="557"/>
      <point x="793" y="588"/>
      <point x="733" y="588" type="curve" smooth="yes"/>
      <point x="681" y="588"/>
      <point x="629" y="567"/>
      <point x="629" y="518" type="curve" smooth="yes"/>
      <point x="629" y="480"/>
      <point x="671" y="462"/>
      <point x="688" y="460" type="curve"/>
      <point x="680" y="466"/>
      <point x="670" y="479"/>
      <point x="670" y="500" type="curve" smooth="yes"/>
      <point x="670" y="534"/>
      <point x="701" y="559"/>
      <point x="736" y="559" type="curve" smooth="yes"/>
      <point x="776" y="559"/>
      <point x="803" y="532"/>
      <point x="803" y="498" type="curve" smooth="yes"/>
      <point x="803" y="460"/>
      <point x="769" y="435"/>
      <point x="712" y="435" type="curve" smooth="yes"/>
      <point x="654" y="435"/>
      <point x="597" y="463"/>
    </contour>
    <contour>
      <point x="89" y="140" type="curve"/>
      <point x="101" y="150"/>
      <point x="112" y="156"/>
      <point x="126" y="156" type="curve" smooth="yes"/>
      <point x="157" y="156"/>
      <point x="168" y="137"/>
      <point x="207" y="137" type="curve" smooth="yes"/>
      <point x="252" y="137"/>
      <point x="273" y="153"/>
      <point x="273" y="209" type="curve" smooth="yes"/>
      <point x="273" y="211"/>
      <point x="273" y="209"/>
      <point x="273" y="211" type="curve"/>
      <point x="301" y="211" type="line"/>
      <point x="301" y="210"/>
      <point x="301" y="211"/>
      <point x="301" y="210" type="curve" smooth="yes"/>
      <point x="301" y="150"/>
      <point x="324" y="137"/>
      <point x="368" y="137" type="curve" smooth="yes"/>
      <point x="408" y="137"/>
      <point x="433" y="165"/>
      <point x="433" y="199" type="curve" smooth="yes"/>
      <point x="433" y="240"/>
      <point x="393" y="280"/>
      <point x="294" y="280" type="curve" smooth="yes"/>
      <point x="239" y="280"/>
      <point x="200" y="274"/>
      <point x="176" y="262" type="curve"/>
      <point x="159" y="248"/>
      <point x="143" y="229"/>
      <point x="128" y="207" type="curve" smooth="yes"/>
      <point x="102" y="168"/>
      <point x="99" y="160"/>
    </contour>
    <contour>
      <point x="21" y="21" type="line"/>
      <point x="29" y="89"/>
      <point x="72" y="180"/>
      <point x="106" y="227" type="curve" smooth="yes"/>
      <point x="131" y="262"/>
      <point x="145" y="274"/>
      <point x="167" y="297" type="curve"/>
      <point x="176" y="307"/>
      <point x="187" y="323"/>
      <point x="187" y="344" type="curve" smooth="yes"/>
      <point x="187" y="363"/>
      <point x="177" y="377"/>
      <point x="154" y="377" type="curve" smooth="yes"/>
      <point x="140" y="377"/>
      <point x="125" y="369"/>
      <point x="121" y="354" type="curve" smooth="yes"/>
      <point x="115" y="333"/>
      <point x="119" y="334"/>
      <point x="110" y="315" type="curve" smooth="yes"/>
      <point x="102" y="298"/>
      <point x="85" y="290"/>
      <point x="70" y="290" type="curve" smooth="yes"/>
      <point x="34" y="290"/>
      <point x="28" y="320"/>
      <point x="28" y="332" type="curve" smooth="yes"/>
      <point x="28" y="385"/>
      <point x="78" y="423"/>
      <point x="133" y="423" type="curve" smooth="yes"/>
      <point x="184" y="423"/>
      <point x="215" y="390"/>
      <point x="215" y="350" type="curve" smooth="yes"/>
      <point x="215" y="344"/>
      <point x="215" y="341"/>
      <point x="214" y="333" type="curve"/>
      <point x="285" y="383"/>
      <point x="395" y="425"/>
      <point x="531" y="425" type="curve" smooth="yes"/>
      <point x="585" y="425"/>
      <point x="609" y="422"/>
      <point x="609" y="422" type="curve"/>
      <point x="602" y="421"/>
      <point x="532" y="395"/>
      <point x="530" y="394" type="curve"/>
      <point x="530" y="394"/>
      <point x="527" y="395"/>
      <point x="523" y="395" type="curve" smooth="yes"/>
      <point x="352" y="395"/>
      <point x="246" y="327"/>
      <point x="211" y="297" type="curve"/>
      <point x="240" y="305"/>
      <point x="271" y="307"/>
      <point x="298" y="307" type="curve" smooth="yes"/>
      <point x="415" y="307"/>
      <point x="503" y="244"/>
      <point x="503" y="123" type="curve" smooth="yes"/>
      <point x="503" y="66"/>
      <point x="471" y="-1"/>
      <point x="388" y="-1" type="curve" smooth="yes"/>
      <point x="343" y="-1"/>
      <point x="310" y="20"/>
      <point x="289" y="62" type="curve"/>
      <point x="272" y="22"/>
      <point x="240" y="-1"/>
      <point x="199" y="-1" type="curve" smooth="yes"/>
      <point x="114" y="-1"/>
      <point x="117" y="71"/>
      <point x="85" y="71" type="curve" smooth="yes"/>
      <point x="63" y="71"/>
      <point x="51" y="50"/>
      <point x="48" y="11" type="curve"/>
    </contour>
    <component base="si_Ssa" xOffset="436"/>
  </outline>
</glyph>
<glyph name="si_KUu" format="1">
  <advance width="728"/>
  <outline>
    <contour>
      <point x="435" y="-126" type="curve" smooth="yes"/>
      <point x="435" y="-91"/>
      <point x="464" y="-70"/>
      <point x="498" y="-65" type="curve"/>
      <point x="444" y="-38" type="line"/>
      <point x="528" y="-14" type="line"/>
      <point x="492" y="-0" type="line"/>
      <point x="492" y="21" type="line"/>
      <point x="588" y="-15" type="line"/>
      <point x="506" y="-42" type="line"/>
      <point x="564" y="-74" type="line"/>
      <point x="537" y="-81"/>
      <point x="484" y="-81"/>
      <point x="484" y="-102" type="curve" smooth="yes"/>
      <point x="484" y="-118"/>
      <point x="516" y="-126"/>
      <point x="557" y="-126" type="curve" smooth="yes"/>
      <point x="610" y="-126"/>
      <point x="653" y="-110"/>
      <point x="653" y="-80" type="curve" smooth="yes"/>
      <point x="653" y="-75"/>
      <point x="652" y="-66"/>
      <point x="647" y="-58" type="curve"/>
      <point x="681" y="-58" type="line"/>
      <point x="685" y="-70"/>
      <point x="685" y="-81"/>
      <point x="685" y="-92" type="curve" smooth="yes"/>
      <point x="685" y="-157"/>
      <point x="635" y="-200"/>
      <point x="555" y="-200" type="curve" smooth="yes"/>
      <point x="498" y="-200"/>
      <point x="435" y="-183"/>
    </contour>
    <component base="si_Ka"/>
  </outline>
</glyph>
<glyph name="si_KVa.reph" format="1">
  <advance width="1036"/>
  <outline>
    <contour>
      <point x="702" y="606" type="curve" smooth="yes"/>
      <point x="702" y="626"/>
      <point x="720" y="642"/>
      <point x="741" y="642" type="curve" smooth="yes"/>
      <point x="762" y="642"/>
      <point x="780" y="626"/>
      <point x="780" y="606" type="curve" smooth="yes"/>
      <point x="780" y="586"/>
      <point x="762" y="571"/>
      <point x="741" y="571" type="curve" smooth="yes"/>
      <point x="720" y="571"/>
      <point x="702" y="586"/>
    </contour>
    <contour>
      <point x="601" y="625" type="curve" smooth="yes"/>
      <point x="601" y="570"/>
      <point x="658" y="542"/>
      <point x="716" y="542" type="curve" smooth="yes"/>
      <point x="773" y="542"/>
      <point x="807" y="567"/>
      <point x="807" y="605" type="curve" smooth="yes"/>
      <point x="807" y="639"/>
      <point x="780" y="666"/>
      <point x="740" y="666" type="curve" smooth="yes"/>
      <point x="705" y="666"/>
      <point x="674" y="641"/>
      <point x="674" y="607" type="curve" smooth="yes"/>
      <point x="674" y="586"/>
      <point x="685" y="574"/>
      <point x="693" y="568" type="curve"/>
      <point x="676" y="570"/>
      <point x="633" y="587"/>
      <point x="633" y="625" type="curve" smooth="yes"/>
      <point x="633" y="674"/>
      <point x="685" y="696"/>
      <point x="737" y="696" type="curve" smooth="yes"/>
      <point x="797" y="696"/>
      <point x="844" y="664"/>
      <point x="844" y="611" type="curve" smooth="yes"/>
      <point x="844" y="584"/>
      <point x="829" y="561"/>
      <point x="816" y="549" type="curve"/>
      <point x="851" y="549" type="line"/>
      <point x="867" y="568"/>
      <point x="876" y="589"/>
      <point x="876" y="612" type="curve" smooth="yes"/>
      <point x="876" y="681"/>
      <point x="813" y="724"/>
      <point x="738" y="724" type="curve" smooth="yes"/>
      <point x="658" y="724"/>
      <point x="601" y="687"/>
    </contour>
    <contour>
      <point x="21" y="21" type="line"/>
      <point x="29" y="89"/>
      <point x="72" y="180"/>
      <point x="106" y="227" type="curve" smooth="yes"/>
      <point x="131" y="262"/>
      <point x="145" y="274"/>
      <point x="167" y="297" type="curve"/>
      <point x="176" y="307"/>
      <point x="187" y="323"/>
      <point x="187" y="344" type="curve" smooth="yes"/>
      <point x="187" y="363"/>
      <point x="177" y="377"/>
      <point x="154" y="377" type="curve" smooth="yes"/>
      <point x="140" y="377"/>
      <point x="125" y="369"/>
      <point x="121" y="354" type="curve" smooth="yes"/>
      <point x="115" y="333"/>
      <point x="119" y="334"/>
      <point x="110" y="315" type="curve" smooth="yes"/>
      <point x="102" y="298"/>
      <point x="85" y="290"/>
      <point x="70" y="290" type="curve" smooth="yes"/>
      <point x="34" y="290"/>
      <point x="28" y="320"/>
      <point x="28" y="332" type="curve" smooth="yes"/>
      <point x="28" y="385"/>
      <point x="78" y="423"/>
      <point x="133" y="423" type="curve" smooth="yes"/>
      <point x="184" y="423"/>
      <point x="215" y="390"/>
      <point x="215" y="350" type="curve" smooth="yes"/>
      <point x="215" y="344"/>
      <point x="215" y="341"/>
      <point x="214" y="333" type="curve"/>
      <point x="249" y="358"/>
      <point x="295" y="382"/>
      <point x="358" y="401" type="curve" smooth="yes"/>
      <point x="423" y="422"/>
      <point x="496" y="426"/>
      <point x="538" y="426" type="curve" smooth="yes"/>
      <point x="605" y="426"/>
      <point x="640" y="419"/>
      <point x="657" y="415" type="curve"/>
      <point x="652" y="414"/>
      <point x="592" y="396"/>
      <point x="583" y="395" type="curve"/>
      <point x="568" y="396"/>
      <point x="548" y="396"/>
      <point x="536" y="396" type="curve" smooth="yes"/>
      <point x="479" y="396"/>
      <point x="430" y="388"/>
      <point x="402" y="382" type="curve" smooth="yes"/>
      <point x="317" y="364"/>
      <point x="256" y="327"/>
      <point x="215" y="299" type="curve"/>
      <point x="243" y="305"/>
      <point x="271" y="307"/>
      <point x="298" y="307" type="curve" smooth="yes"/>
      <point x="415" y="307"/>
      <point x="503" y="244"/>
      <point x="503" y="123" type="curve" smooth="yes"/>
      <point x="503" y="66"/>
      <point x="471" y="-1"/>
      <point x="388" y="-1" type="curve" smooth="yes"/>
      <point x="343" y="-1"/>
      <point x="310" y="20"/>
      <point x="289" y="62" type="curve"/>
      <point x="272" y="22"/>
      <point x="240" y="-1"/>
      <point x="199" y="-1" type="curve" smooth="yes"/>
      <point x="114" y="-1"/>
      <point x="117" y="71"/>
      <point x="85" y="71" type="curve" smooth="yes"/>
      <point x="63" y="71"/>
      <point x="51" y="50"/>
      <point x="48" y="11" type="curve"/>
    </contour>
    <contour>
      <point x="89" y="140" type="curve"/>
      <point x="101" y="150"/>
      <point x="112" y="156"/>
      <point x="126" y="156" type="curve" smooth="yes"/>
      <point x="157" y="156"/>
      <point x="168" y="137"/>
      <point x="207" y="137" type="curve" smooth="yes"/>
      <point x="252" y="137"/>
      <point x="273" y="153"/>
      <point x="273" y="209" type="curve" smooth="yes"/>
      <point x="273" y="211"/>
      <point x="273" y="209"/>
      <point x="273" y="211" type="curve"/>
      <point x="301" y="211" type="line"/>
      <point x="301" y="210"/>
      <point x="301" y="211"/>
      <point x="301" y="210" type="curve" smooth="yes"/>
      <point x="301" y="150"/>
      <point x="324" y="137"/>
      <point x="368" y="137" type="curve" smooth="yes"/>
      <point x="408" y="137"/>
      <point x="433" y="165"/>
      <point x="433" y="199" type="curve" smooth="yes"/>
      <point x="433" y="240"/>
      <point x="393" y="280"/>
      <point x="294" y="280" type="curve" smooth="yes"/>
      <point x="239" y="280"/>
      <point x="200" y="274"/>
      <point x="176" y="262" type="curve"/>
      <point x="159" y="248"/>
      <point x="143" y="229"/>
      <point x="128" y="207" type="curve" smooth="yes"/>
      <point x="102" y="168"/>
      <point x="99" y="160"/>
    </contour>
    <component base="si_Va" xOffset="454"/>
  </outline>
</glyph>
<glyph name="si_LlIi" format="1">
  <advance width="621"/>
  <outline>
    <contour>
      <point x="405" y="502" type="curve" smooth="yes"/>
      <point x="405" y="472"/>
      <point x="434" y="448"/>
      <point x="468" y="448" type="curve" smooth="yes"/>
      <point x="502" y="448"/>
      <point x="531" y="472"/>
      <point x="531" y="502" type="curve" smooth="yes"/>
      <point x="531" y="532"/>
      <point x="502" y="556"/>
      <point x="468" y="556" type="curve" smooth="yes"/>
      <point x="434" y="556"/>
      <point x="405" y="532"/>
    </contour>
    <contour>
      <point x="85" y="505" type="curve" smooth="yes"/>
      <point x="85" y="610"/>
      <point x="199" y="655"/>
      <point x="323" y="655" type="curve" smooth="yes"/>
      <point x="437" y="655"/>
      <point x="566" y="613"/>
      <point x="566" y="512" type="curve" smooth="yes"/>
      <point x="566" y="458"/>
      <point x="523" y="419"/>
      <point x="468" y="419" type="curve" smooth="yes"/>
      <point x="411" y="419"/>
      <point x="372" y="459"/>
      <point x="372" y="503" type="curve" smooth="yes"/>
      <point x="372" y="513"/>
      <point x="375" y="536"/>
      <point x="388" y="549" type="curve"/>
      <point x="379" y="550"/>
      <point x="344" y="552"/>
      <point x="312" y="552" type="curve" smooth="yes"/>
      <point x="220" y="552"/>
      <point x="144" y="526"/>
      <point x="144" y="473" type="curve" smooth="yes"/>
      <point x="144" y="435"/>
      <point x="197" y="420"/>
      <point x="231" y="418" type="curve"/>
      <point x="261" y="414" type="line"/>
      <point x="185" y="399" type="line"/>
      <point x="139" y="408"/>
      <point x="85" y="445"/>
    </contour>
    <component base="si_Lla"/>
  </outline>
</glyph>
<glyph name="si_NDI" format="1">
  <advance width="873"/>
  <outline>
    <contour>
      <point x="462" y="508" type="curve" smooth="yes"/>
      <point x="462" y="606"/>
      <point x="552" y="655"/>
      <point x="646" y="655" type="curve" smooth="yes"/>
      <point x="740" y="655"/>
      <point x="830" y="603"/>
      <point x="830" y="506" type="curve" smooth="yes"/>
      <point x="830" y="433"/>
      <point x="767" y="397"/>
      <point x="716" y="396" type="curve"/>
      <point x="701" y="417" type="line"/>
      <point x="754" y="417"/>
      <point x="777" y="450"/>
      <point x="777" y="475" type="curve" smooth="yes"/>
      <point x="777" y="523"/>
      <point x="719" y="539"/>
      <point x="649" y="539" type="curve" smooth="yes"/>
      <point x="579" y="539"/>
      <point x="510" y="524"/>
      <point x="510" y="479" type="curve" smooth="yes"/>
      <point x="510" y="457"/>
      <point x="527" y="429"/>
      <point x="573" y="426" type="curve"/>
      <point x="518" y="421" type="line"/>
      <point x="510" y="421"/>
      <point x="462" y="447"/>
    </contour>
    <component base="si_NDa"/>
  </outline>
</glyph>
<glyph name="si_NDa" format="1">
  <advance width="873"/>
  <outline>
    <contour>
      <point x="23" y="172" type="curve"/>
      <point x="31" y="163"/>
      <point x="48" y="156"/>
      <point x="65" y="156" type="curve" smooth="yes"/>
      <point x="127" y="156"/>
      <point x="128" y="201"/>
      <point x="203" y="272" type="curve"/>
      <point x="216" y="285"/>
      <point x="218" y="301"/>
      <point x="218" y="314" type="curve" smooth="yes"/>
      <point x="218" y="347"/>
      <point x="199" y="371"/>
      <point x="176" y="371" type="curve" smooth="yes"/>
      <point x="156" y="371"/>
      <point x="142" y="361"/>
      <point x="140" y="337" type="curve" smooth="yes"/>
      <point x="138" y="316"/>
      <point x="128" y="287"/>
      <point x="97" y="287" type="curve" smooth="yes"/>
      <point x="80" y="287"/>
      <point x="54" y="297"/>
      <point x="54" y="331" type="curve" smooth="yes"/>
      <point x="54" y="375"/>
      <point x="87" y="421"/>
      <point x="150" y="421" type="curve" smooth="yes"/>
      <point x="214" y="421"/>
      <point x="247" y="377"/>
      <point x="247" y="326" type="curve" smooth="yes"/>
      <point x="247" y="318"/>
      <point x="246" y="312"/>
      <point x="245" y="308" type="curve"/>
      <point x="301" y="361"/>
      <point x="392" y="426"/>
      <point x="577" y="426" type="curve" smooth="yes"/>
      <point x="601" y="426"/>
      <point x="659" y="426"/>
      <point x="693" y="419" type="curve"/>
      <point x="592" y="397" type="line"/>
      <point x="583" y="397"/>
      <point x="580" y="397"/>
      <point x="571" y="397" type="curve" smooth="yes"/>
      <point x="418" y="397"/>
      <point x="335" y="352"/>
      <point x="266" y="292" type="curve"/>
      <point x="291" y="300"/>
      <point x="310" y="301"/>
      <point x="337" y="301" type="curve" smooth="yes"/>
      <point x="419" y="301"/>
      <point x="486" y="243"/>
      <point x="486" y="165" type="curve" smooth="yes"/>
      <point x="486" y="52"/>
      <point x="389" y="-1"/>
      <point x="270" y="-1" type="curve" smooth="yes"/>
      <point x="133" y="-1"/>
      <point x="23" y="64"/>
    </contour>
    <contour>
      <point x="122" y="144" type="curve"/>
      <point x="150" y="135"/>
      <point x="185" y="130"/>
      <point x="242" y="130" type="curve" smooth="yes"/>
      <point x="351" y="130"/>
      <point x="408" y="173"/>
      <point x="408" y="220" type="curve" smooth="yes"/>
      <point x="408" y="253"/>
      <point x="381" y="274"/>
      <point x="326" y="274" type="curve" smooth="yes"/>
      <point x="185" y="274"/>
      <point x="184" y="186"/>
    </contour>
    <component base="si_Da" xOffset="429"/>
  </outline>
</glyph>
<glyph name="si_NDa.reph" format="1">
  <advance width="873"/>
  <outline>
    <contour>
      <point x="624" y="499" type="curve" smooth="yes"/>
      <point x="624" y="479"/>
      <point x="642" y="463"/>
      <point x="663" y="463" type="curve" smooth="yes"/>
      <point x="684" y="463"/>
      <point x="702" y="479"/>
      <point x="702" y="499" type="curve" smooth="yes"/>
      <point x="702" y="519"/>
      <point x="684" y="535"/>
      <point x="663" y="535" type="curve" smooth="yes"/>
      <point x="642" y="535"/>
      <point x="624" y="519"/>
    </contour>
    <contour>
      <point x="523" y="518" type="curve" smooth="yes"/>
      <point x="523" y="580"/>
      <point x="580" y="616"/>
      <point x="660" y="616" type="curve" smooth="yes"/>
      <point x="735" y="616"/>
      <point x="798" y="574"/>
      <point x="798" y="505" type="curve" smooth="yes"/>
      <point x="798" y="482"/>
      <point x="789" y="460"/>
      <point x="773" y="441" type="curve"/>
      <point x="738" y="441" type="line"/>
      <point x="751" y="453"/>
      <point x="766" y="477"/>
      <point x="766" y="504" type="curve" smooth="yes"/>
      <point x="766" y="557"/>
      <point x="719" y="588"/>
      <point x="659" y="588" type="curve" smooth="yes"/>
      <point x="607" y="588"/>
      <point x="555" y="567"/>
      <point x="555" y="518" type="curve" smooth="yes"/>
      <point x="555" y="480"/>
      <point x="598" y="462"/>
      <point x="615" y="460" type="curve"/>
      <point x="607" y="466"/>
      <point x="596" y="479"/>
      <point x="596" y="500" type="curve" smooth="yes"/>
      <point x="596" y="534"/>
      <point x="627" y="559"/>
      <point x="662" y="559" type="curve" smooth="yes"/>
      <point x="702" y="559"/>
      <point x="729" y="532"/>
      <point x="729" y="498" type="curve" smooth="yes"/>
      <point x="729" y="460"/>
      <point x="695" y="435"/>
      <point x="638" y="435" type="curve" smooth="yes"/>
      <point x="580" y="435"/>
      <point x="523" y="463"/>
    </contour>
    <contour>
      <point x="23" y="172" type="curve"/>
      <point x="31" y="163"/>
      <point x="48" y="156"/>
      <point x="65" y="156" type="curve" smooth="yes"/>
      <point x="127" y="156"/>
      <point x="128" y="201"/>
      <point x="203" y="272" type="curve"/>
      <point x="216" y="285"/>
      <point x="218" y="301"/>
      <point x="218" y="314" type="curve" smooth="yes"/>
      <point x="218" y="347"/>
      <point x="199" y="371"/>
      <point x="176" y="371" type="curve" smooth="yes"/>
      <point x="156" y="371"/>
      <point x="142" y="361"/>
      <point x="140" y="337" type="curve" smooth="yes"/>
      <point x="138" y="316"/>
      <point x="128" y="287"/>
      <point x="97" y="287" type="curve" smooth="yes"/>
      <point x="80" y="287"/>
      <point x="54" y="297"/>
      <point x="54" y="331" type="curve" smooth="yes"/>
      <point x="54" y="375"/>
      <point x="87" y="421"/>
      <point x="150" y="421" type="curve" smooth="yes"/>
      <point x="214" y="421"/>
      <point x="247" y="377"/>
      <point x="247" y="326" type="curve" smooth="yes"/>
      <point x="247" y="318"/>
      <point x="246" y="312"/>
      <point x="245" y="308" type="curve"/>
      <point x="301" y="361"/>
      <point x="392" y="426"/>
      <point x="577" y="426" type="curve" smooth="yes"/>
      <point x="601" y="426"/>
      <point x="659" y="426"/>
      <point x="693" y="419" type="curve"/>
      <point x="592" y="397" type="line"/>
      <point x="583" y="397"/>
      <point x="580" y="397"/>
      <point x="571" y="397" type="curve" smooth="yes"/>
      <point x="418" y="397"/>
      <point x="335" y="352"/>
      <point x="266" y="292" type="curve"/>
      <point x="291" y="300"/>
      <point x="310" y="301"/>
      <point x="337" y="301" type="curve" smooth="yes"/>
      <point x="419" y="301"/>
      <point x="486" y="243"/>
      <point x="486" y="165" type="curve" smooth="yes"/>
      <point x="486" y="52"/>
      <point x="389" y="-1"/>
      <point x="270" y="-1" type="curve" smooth="yes"/>
      <point x="133" y="-1"/>
      <point x="23" y="64"/>
    </contour>
    <contour>
      <point x="122" y="144" type="curve"/>
      <point x="150" y="135"/>
      <point x="185" y="130"/>
      <point x="242" y="130" type="curve" smooth="yes"/>
      <point x="351" y="130"/>
      <point x="408" y="173"/>
      <point x="408" y="220" type="curve" smooth="yes"/>
      <point x="408" y="253"/>
      <point x="381" y="274"/>
      <point x="326" y="274" type="curve" smooth="yes"/>
      <point x="185" y="274"/>
      <point x="184" y="186"/>
    </contour>
    <component base="si_Da" xOffset="429"/>
  </outline>
</glyph>
<glyph name="si_NDha.reph" format="1">
  <advance width="1052"/>
  <outline>
    <contour>
      <point x="699" y="607" type="curve" smooth="yes"/>
      <point x="699" y="587"/>
      <point x="717" y="572"/>
      <point x="738" y="572" type="curve" smooth="yes"/>
      <point x="759" y="572"/>
      <point x="777" y="587"/>
      <point x="777" y="607" type="curve" smooth="yes"/>
      <point x="777" y="627"/>
      <point x="759" y="643"/>
      <point x="738" y="643" type="curve" smooth="yes"/>
      <point x="717" y="643"/>
      <point x="699" y="627"/>
    </contour>
    <contour>
      <point x="598" y="626" type="curve" smooth="yes"/>
      <point x="598" y="688"/>
      <point x="655" y="725"/>
      <point x="735" y="725" type="curve" smooth="yes"/>
      <point x="810" y="725"/>
      <point x="873" y="682"/>
      <point x="873" y="613" type="curve" smooth="yes"/>
      <point x="873" y="590"/>
      <point x="864" y="569"/>
      <point x="848" y="550" type="curve"/>
      <point x="814" y="550" type="line"/>
      <point x="827" y="562"/>
      <point x="842" y="585"/>
      <point x="842" y="612" type="curve" smooth="yes"/>
      <point x="842" y="665"/>
      <point x="794" y="697"/>
      <point x="734" y="697" type="curve" smooth="yes"/>
      <point x="682" y="697"/>
      <point x="630" y="675"/>
      <point x="630" y="626" type="curve" smooth="yes"/>
      <point x="630" y="588"/>
      <point x="673" y="571"/>
      <point x="690" y="569" type="curve"/>
      <point x="682" y="575"/>
      <point x="672" y="587"/>
      <point x="672" y="608" type="curve" smooth="yes"/>
      <point x="672" y="642"/>
      <point x="702" y="667"/>
      <point x="737" y="667" type="curve" smooth="yes"/>
      <point x="777" y="667"/>
      <point x="805" y="640"/>
      <point x="805" y="606" type="curve" smooth="yes"/>
      <point x="805" y="568"/>
      <point x="771" y="543"/>
      <point x="714" y="543" type="curve" smooth="yes"/>
      <point x="656" y="543"/>
      <point x="598" y="571"/>
    </contour>
    <contour>
      <point x="23" y="172" type="curve"/>
      <point x="31" y="163"/>
      <point x="48" y="156"/>
      <point x="65" y="156" type="curve" smooth="yes"/>
      <point x="127" y="156"/>
      <point x="128" y="201"/>
      <point x="203" y="272" type="curve"/>
      <point x="216" y="285"/>
      <point x="218" y="301"/>
      <point x="218" y="314" type="curve" smooth="yes"/>
      <point x="218" y="347"/>
      <point x="199" y="371"/>
      <point x="176" y="371" type="curve" smooth="yes"/>
      <point x="156" y="371"/>
      <point x="142" y="361"/>
      <point x="140" y="337" type="curve" smooth="yes"/>
      <point x="138" y="316"/>
      <point x="128" y="287"/>
      <point x="97" y="287" type="curve" smooth="yes"/>
      <point x="80" y="287"/>
      <point x="54" y="297"/>
      <point x="54" y="331" type="curve" smooth="yes"/>
      <point x="54" y="375"/>
      <point x="87" y="421"/>
      <point x="150" y="421" type="curve" smooth="yes"/>
      <point x="214" y="421"/>
      <point x="247" y="377"/>
      <point x="247" y="323" type="curve" smooth="yes"/>
      <point x="247" y="317"/>
      <point x="246" y="311"/>
      <point x="245" y="308" type="curve"/>
      <point x="295" y="367"/>
      <point x="391" y="423"/>
      <point x="494" y="423" type="curve" smooth="yes"/>
      <point x="581" y="423"/>
      <point x="627" y="396"/>
      <point x="647" y="388" type="curve"/>
      <point x="591" y="381" type="line"/>
      <point x="574" y="387"/>
      <point x="546" y="396"/>
      <point x="489" y="396" type="curve" smooth="yes"/>
      <point x="391" y="396"/>
      <point x="307" y="335"/>
      <point x="264" y="291" type="curve"/>
      <point x="289" y="300"/>
      <point x="310" y="301"/>
      <point x="337" y="301" type="curve" smooth="yes"/>
      <point x="419" y="301"/>
      <point x="486" y="243"/>
      <point x="486" y="165" type="curve" smooth="yes"/>
      <point x="486" y="52"/>
      <point x="389" y="-1"/>
      <point x="270" y="-1" type="curve" smooth="yes"/>
      <point x="133" y="-1"/>
      <point x="23" y="64"/>
    </contour>
    <contour>
      <point x="122" y="144" type="curve"/>
      <point x="150" y="135"/>
      <point x="185" y="130"/>
      <point x="242" y="130" type="curve" smooth="yes"/>
      <point x="351" y="130"/>
      <point x="408" y="173"/>
      <point x="408" y="220" type="curve" smooth="yes"/>
      <point x="408" y="253"/>
      <point x="381" y="274"/>
      <point x="326" y="274" type="curve" smooth="yes"/>
      <point x="185" y="274"/>
      <point x="184" y="186"/>
    </contour>
    <component base="si_Dha" xOffset="431"/>
  </outline>
</glyph>
<glyph name="si_NThI" format="1">
  <advance width="1021"/>
  <outline>
    <contour>
      <point x="527" y="561" type="curve" smooth="yes"/>
      <point x="527" y="651"/>
      <point x="638" y="684"/>
      <point x="744" y="684" type="curve" smooth="yes"/>
      <point x="844" y="684"/>
      <point x="961" y="649"/>
      <point x="961" y="560" type="curve" smooth="yes"/>
      <point x="961" y="514"/>
      <point x="924" y="487"/>
      <point x="870" y="487" type="curve"/>
      <point x="865" y="492"/>
      <point x="858" y="502"/>
      <point x="854" y="509" type="curve"/>
      <point x="866" y="510"/>
      <point x="912" y="513"/>
      <point x="912" y="544" type="curve" smooth="yes"/>
      <point x="912" y="588"/>
      <point x="820" y="604"/>
      <point x="747" y="604" type="curve" smooth="yes"/>
      <point x="631" y="604"/>
      <point x="574" y="580"/>
      <point x="574" y="544" type="curve" smooth="yes"/>
      <point x="574" y="517"/>
      <point x="607" y="504"/>
      <point x="640" y="504" type="curve" smooth="yes"/>
      <point x="684" y="504"/>
      <point x="717" y="516"/>
      <point x="734" y="524" type="curve"/>
      <point x="733" y="518"/>
      <point x="734" y="507"/>
      <point x="730" y="492" type="curve"/>
      <point x="706" y="484"/>
      <point x="680" y="476"/>
      <point x="638" y="476" type="curve" smooth="yes"/>
      <point x="579" y="476"/>
      <point x="527" y="504"/>
    </contour>
    <component base="si_NTha"/>
  </outline>
</glyph>
<glyph name="si_NTha.reph" format="1">
  <advance width="1021"/>
  <outline>
    <contour>
      <point x="536" y="499" type="curve" smooth="yes"/>
      <point x="536" y="479"/>
      <point x="555" y="463"/>
      <point x="576" y="463" type="curve" smooth="yes"/>
      <point x="597" y="463"/>
      <point x="615" y="479"/>
      <point x="615" y="499" type="curve" smooth="yes"/>
      <point x="615" y="519"/>
      <point x="597" y="535"/>
      <point x="576" y="535" type="curve" smooth="yes"/>
      <point x="555" y="535"/>
      <point x="536" y="519"/>
    </contour>
    <contour>
      <point x="436" y="518" type="curve" smooth="yes"/>
      <point x="436" y="580"/>
      <point x="493" y="616"/>
      <point x="573" y="616" type="curve" smooth="yes"/>
      <point x="648" y="616"/>
      <point x="710" y="574"/>
      <point x="710" y="505" type="curve" smooth="yes"/>
      <point x="710" y="482"/>
      <point x="702" y="460"/>
      <point x="686" y="441" type="curve"/>
      <point x="651" y="441" type="line"/>
      <point x="664" y="453"/>
      <point x="679" y="477"/>
      <point x="679" y="504" type="curve" smooth="yes"/>
      <point x="679" y="557"/>
      <point x="632" y="588"/>
      <point x="572" y="588" type="curve" smooth="yes"/>
      <point x="520" y="588"/>
      <point x="468" y="567"/>
      <point x="468" y="518" type="curve" smooth="yes"/>
      <point x="468" y="480"/>
      <point x="510" y="462"/>
      <point x="527" y="460" type="curve"/>
      <point x="519" y="466"/>
      <point x="509" y="479"/>
      <point x="509" y="500" type="curve" smooth="yes"/>
      <point x="509" y="534"/>
      <point x="540" y="559"/>
      <point x="575" y="559" type="curve" smooth="yes"/>
      <point x="615" y="559"/>
      <point x="642" y="532"/>
      <point x="642" y="498" type="curve" smooth="yes"/>
      <point x="642" y="460"/>
      <point x="608" y="435"/>
      <point x="551" y="435" type="curve" smooth="yes"/>
      <point x="493" y="435"/>
      <point x="436" y="463"/>
    </contour>
    <contour>
      <point x="23" y="172" type="curve"/>
      <point x="31" y="163"/>
      <point x="48" y="156"/>
      <point x="65" y="156" type="curve" smooth="yes"/>
      <point x="127" y="156"/>
      <point x="128" y="201"/>
      <point x="203" y="272" type="curve"/>
      <point x="216" y="285"/>
      <point x="218" y="301"/>
      <point x="218" y="314" type="curve" smooth="yes"/>
      <point x="218" y="347"/>
      <point x="199" y="371"/>
      <point x="176" y="371" type="curve" smooth="yes"/>
      <point x="156" y="371"/>
      <point x="142" y="361"/>
      <point x="140" y="337" type="curve" smooth="yes"/>
      <point x="138" y="316"/>
      <point x="128" y="287"/>
      <point x="97" y="287" type="curve" smooth="yes"/>
      <point x="80" y="287"/>
      <point x="54" y="297"/>
      <point x="54" y="331" type="curve" smooth="yes"/>
      <point x="54" y="375"/>
      <point x="87" y="421"/>
      <point x="150" y="421" type="curve" smooth="yes"/>
      <point x="214" y="421"/>
      <point x="247" y="376"/>
      <point x="247" y="324" type="curve" smooth="yes"/>
      <point x="247" y="319"/>
      <point x="246" y="311"/>
      <point x="245" y="308" type="curve"/>
      <point x="301" y="361"/>
      <point x="392" y="426"/>
      <point x="577" y="426" type="curve" smooth="yes"/>
      <point x="601" y="426"/>
      <point x="640" y="423"/>
      <point x="663" y="420" type="curve"/>
      <point x="644" y="416"/>
      <point x="604" y="397"/>
      <point x="592" y="397" type="curve"/>
      <point x="583" y="397"/>
      <point x="580" y="397"/>
      <point x="571" y="397" type="curve" smooth="yes"/>
      <point x="418" y="397"/>
      <point x="335" y="351"/>
      <point x="268" y="293" type="curve"/>
      <point x="290" y="298"/>
      <point x="310" y="301"/>
      <point x="337" y="301" type="curve" smooth="yes"/>
      <point x="419" y="301"/>
      <point x="486" y="243"/>
      <point x="486" y="165" type="curve" smooth="yes"/>
      <point x="486" y="52"/>
      <point x="389" y="-1"/>
      <point x="270" y="-1" type="curve" smooth="yes"/>
      <point x="133" y="-1"/>
      <point x="23" y="64"/>
    </contour>
    <contour>
      <point x="122" y="144" type="curve"/>
      <point x="150" y="135"/>
      <point x="185" y="130"/>
      <point x="242" y="130" type="curve" smooth="yes"/>
      <point x="351" y="130"/>
      <point x="408" y="173"/>
      <point x="408" y="220" type="curve" smooth="yes"/>
      <point x="408" y="253"/>
      <point x="381" y="274"/>
      <point x="326" y="274" type="curve" smooth="yes"/>
      <point x="185" y="274"/>
      <point x="184" y="186"/>
    </contour>
    <component base="si_Tha" xOffset="423"/>
  </outline>
</glyph>
<glyph name="si_NVIi" format="1">
  <advance width="1007"/>
  <outline>
    <contour>
      <point x="23" y="172" type="curve"/>
      <point x="31" y="163"/>
      <point x="48" y="156"/>
      <point x="65" y="156" type="curve" smooth="yes"/>
      <point x="127" y="156"/>
      <point x="128" y="201"/>
      <point x="203" y="272" type="curve"/>
      <point x="216" y="285"/>
      <point x="218" y="301"/>
      <point x="218" y="314" type="curve" smooth="yes"/>
      <point x="218" y="347"/>
      <point x="199" y="371"/>
      <point x="176" y="371" type="curve" smooth="yes"/>
      <point x="156" y="371"/>
      <point x="142" y="361"/>
      <point x="140" y="337" type="curve" smooth="yes"/>
      <point x="138" y="316"/>
      <point x="128" y="287"/>
      <point x="97" y="287" type="curve" smooth="yes"/>
      <point x="80" y="287"/>
      <point x="54" y="297"/>
      <point x="54" y="331" type="curve" smooth="yes"/>
      <point x="54" y="375"/>
      <point x="87" y="421"/>
      <point x="150" y="421" type="curve" smooth="yes"/>
      <point x="214" y="421"/>
      <point x="247" y="376"/>
      <point x="247" y="324" type="curve" smooth="yes"/>
      <point x="247" y="317"/>
      <point x="246" y="311"/>
      <point x="245" y="308" type="curve"/>
      <point x="292" y="359"/>
      <point x="386" y="424"/>
      <point x="544" y="424" type="curve" smooth="yes"/>
      <point x="555" y="424"/>
      <point x="583" y="423"/>
      <point x="606" y="420" type="curve"/>
      <point x="591" y="413"/>
      <point x="527" y="401"/>
      <point x="515" y="395" type="curve"/>
      <point x="414" y="395"/>
      <point x="317" y="343"/>
      <point x="269" y="293" type="curve"/>
      <point x="290" y="299"/>
      <point x="310" y="301"/>
      <point x="337" y="301" type="curve" smooth="yes"/>
      <point x="419" y="301"/>
      <point x="486" y="243"/>
      <point x="486" y="165" type="curve" smooth="yes"/>
      <point x="486" y="52"/>
      <point x="389" y="-1"/>
      <point x="270" y="-1" type="curve" smooth="yes"/>
      <point x="133" y="-1"/>
      <point x="23" y="64"/>
    </contour>
    <contour>
      <point x="122" y="144" type="curve"/>
      <point x="150" y="135"/>
      <point x="185" y="130"/>
      <point x="242" y="130" type="curve" smooth="yes"/>
      <point x="351" y="130"/>
      <point x="408" y="173"/>
      <point x="408" y="220" type="curve" smooth="yes"/>
      <point x="408" y="253"/>
      <point x="381" y="274"/>
      <point x="326" y="274" type="curve" smooth="yes"/>
      <point x="185" y="274"/>
      <point x="184" y="186"/>
    </contour>
    <component base="si_VIi" xOffset="427"/>
  </outline>
</glyph>
<glyph name="si_NdjUu" format="1">
  <advance width="682"/>
  <outline>
    <contour>
      <point x="137" y="-135" type="curve" smooth="yes"/>
      <point x="137" y="-78"/>
      <point x="184" y="-39"/>
      <point x="236" y="-39" type="curve" smooth="yes"/>
      <point x="277" y="-39"/>
      <point x="309" y="-54"/>
      <point x="331" y="-89" type="curve"/>
      <point x="299" y="-100" type="line"/>
      <point x="288" y="-83"/>
      <point x="269" y="-68"/>
      <point x="241" y="-68" type="curve" smooth="yes"/>
      <point x="203" y="-68"/>
      <point x="179" y="-93"/>
      <point x="179" y="-117" type="curve" smooth="yes"/>
      <point x="179" y="-148"/>
      <point x="207" y="-163"/>
      <point x="240" y="-163" type="curve" smooth="yes"/>
      <point x="314" y="-163"/>
      <point x="369" y="-112"/>
      <point x="474" y="-112" type="curve" smooth="yes"/>
      <point x="524" y="-112"/>
      <point x="567" y="-131"/>
      <point x="593" y="-162" type="curve"/>
      <point x="593" y="148" type="line"/>
      <point x="627" y="207" type="line"/>
      <point x="627" y="-226" type="line"/>
      <point x="602" y="-226" type="line"/>
      <point x="587" y="-191"/>
      <point x="544" y="-143"/>
      <point x="483" y="-143" type="curve" smooth="yes"/>
      <point x="394" y="-143"/>
      <point x="341" y="-231"/>
      <point x="245" y="-231" type="curve" smooth="yes"/>
      <point x="191" y="-231"/>
      <point x="137" y="-201"/>
    </contour>
    <component base="si_Ndja"/>
  </outline>
</glyph>
<glyph name="si_Nna.reph" format="1">
  <advance width="940"/>
  <outline>
    <contour>
      <point x="355" y="499" type="curve" smooth="yes"/>
      <point x="355" y="479"/>
      <point x="373" y="463"/>
      <point x="394" y="463" type="curve" smooth="yes"/>
      <point x="415" y="463"/>
      <point x="433" y="479"/>
      <point x="433" y="499" type="curve" smooth="yes"/>
      <point x="433" y="519"/>
      <point x="415" y="535"/>
      <point x="394" y="535" type="curve" smooth="yes"/>
      <point x="373" y="535"/>
      <point x="355" y="519"/>
    </contour>
    <contour>
      <point x="255" y="518" type="curve" smooth="yes"/>
      <point x="255" y="580"/>
      <point x="311" y="616"/>
      <point x="391" y="616" type="curve" smooth="yes"/>
      <point x="466" y="616"/>
      <point x="529" y="574"/>
      <point x="529" y="505" type="curve" smooth="yes"/>
      <point x="529" y="482"/>
      <point x="521" y="460"/>
      <point x="505" y="441" type="curve"/>
      <point x="470" y="441" type="line"/>
      <point x="483" y="453"/>
      <point x="498" y="477"/>
      <point x="498" y="504" type="curve" smooth="yes"/>
      <point x="498" y="557"/>
      <point x="450" y="588"/>
      <point x="390" y="588" type="curve" smooth="yes"/>
      <point x="338" y="588"/>
      <point x="287" y="567"/>
      <point x="287" y="518" type="curve" smooth="yes"/>
      <point x="287" y="480"/>
      <point x="329" y="462"/>
      <point x="346" y="460" type="curve"/>
      <point x="338" y="466"/>
      <point x="328" y="479"/>
      <point x="328" y="500" type="curve" smooth="yes"/>
      <point x="328" y="534"/>
      <point x="358" y="559"/>
      <point x="393" y="559" type="curve" smooth="yes"/>
      <point x="433" y="559"/>
      <point x="461" y="532"/>
      <point x="461" y="498" type="curve" smooth="yes"/>
      <point x="461" y="460"/>
      <point x="427" y="435"/>
      <point x="370" y="435" type="curve" smooth="yes"/>
      <point x="312" y="435"/>
      <point x="255" y="463"/>
    </contour>
    <component base="si_Nna"/>
  </outline>
</glyph>
<glyph name="si_NnddI" format="1">
  <advance width="713"/>
  <outline>
    <contour>
      <point x="162" y="549" type="curve" smooth="yes"/>
      <point x="162" y="637"/>
      <point x="295" y="654"/>
      <point x="393" y="654" type="curve" smooth="yes"/>
      <point x="526" y="654"/>
      <point x="638" y="624"/>
      <point x="638" y="541" type="curve" smooth="yes"/>
      <point x="638" y="490"/>
      <point x="585" y="469"/>
      <point x="552" y="463" type="curve"/>
      <point x="503" y="479" type="line"/>
      <point x="538" y="480"/>
      <point x="564" y="493"/>
      <point x="564" y="515" type="curve" smooth="yes"/>
      <point x="564" y="551"/>
      <point x="498" y="567"/>
      <point x="393" y="567" type="curve" smooth="yes"/>
      <point x="319" y="567"/>
      <point x="220" y="559"/>
      <point x="220" y="525" type="curve" smooth="yes"/>
      <point x="220" y="499"/>
      <point x="271" y="496"/>
      <point x="371" y="492" type="curve" smooth="yes"/>
      <point x="434" y="490"/>
      <point x="531" y="487"/>
      <point x="585" y="448" type="curve" smooth="yes"/>
      <point x="633" y="413"/>
      <point x="669" y="336"/>
      <point x="669" y="250" type="curve"/>
      <point x="613" y="287" type="line"/>
      <point x="613" y="328"/>
      <point x="607" y="369"/>
      <point x="581" y="404" type="curve" smooth="yes"/>
      <point x="540" y="458"/>
      <point x="471" y="459"/>
      <point x="372" y="465" type="curve" smooth="yes"/>
      <point x="285" y="470"/>
      <point x="162" y="465"/>
    </contour>
    <contour>
      <point x="100" y="278" type="line"/>
      <point x="100" y="308" type="line"/>
      <point x="337" y="308" type="line"/>
      <point x="335" y="342"/>
      <point x="310" y="379"/>
      <point x="277" y="379" type="curve" smooth="yes"/>
      <point x="268" y="379"/>
      <point x="250" y="379"/>
      <point x="235" y="352" type="curve" smooth="yes"/>
      <point x="225" y="334"/>
      <point x="211" y="327"/>
      <point x="195" y="327" type="curve" smooth="yes"/>
      <point x="172" y="327"/>
      <point x="157" y="342"/>
      <point x="157" y="364" type="curve" smooth="yes"/>
      <point x="157" y="403"/>
      <point x="204" y="422"/>
      <point x="245" y="422" type="curve" smooth="yes"/>
      <point x="322" y="422"/>
      <point x="373" y="375"/>
      <point x="373" y="278" type="curve"/>
      <point x="304" y="278" type="line" smooth="yes"/>
      <point x="213" y="278"/>
      <point x="192" y="228"/>
      <point x="192" y="205" type="curve" smooth="yes"/>
      <point x="192" y="160"/>
      <point x="231" y="137"/>
      <point x="283" y="137" type="curve" smooth="yes"/>
      <point x="345" y="137"/>
      <point x="375" y="157"/>
      <point x="375" y="195" type="curve" smooth="yes"/>
      <point x="375" y="216" type="line"/>
      <point x="405" y="216" type="line"/>
      <point x="405" y="195" type="line" smooth="yes"/>
      <point x="405" y="160"/>
      <point x="429" y="137"/>
      <point x="489" y="137" type="curve" smooth="yes"/>
      <point x="562" y="137"/>
      <point x="613" y="193"/>
      <point x="613" y="291" type="curve"/>
      <point x="631" y="282"/>
      <point x="647" y="260"/>
      <point x="669" y="252" type="curve"/>
      <point x="669" y="107"/>
      <point x="620" y="0"/>
      <point x="503" y="-0" type="curve" smooth="yes"/>
      <point x="440" y="0"/>
      <point x="412" y="28"/>
      <point x="391" y="58" type="curve"/>
      <point x="362" y="22"/>
      <point x="329" y="0"/>
      <point x="279" y="0" type="curve" smooth="yes"/>
      <point x="180" y="0"/>
      <point x="130" y="79"/>
      <point x="130" y="158" type="curve" smooth="yes"/>
      <point x="130" y="207"/>
      <point x="154" y="255"/>
      <point x="207" y="278" type="curve"/>
    </contour>
    <contour>
      <point x="26" y="216" type="curve" smooth="yes"/>
      <point x="26" y="345"/>
      <point x="97" y="423"/>
      <point x="233" y="423" type="curve" smooth="yes"/>
      <point x="242" y="423"/>
      <point x="265" y="423"/>
      <point x="286" y="417" type="curve"/>
      <point x="265" y="406"/>
      <point x="191" y="395"/>
      <point x="174" y="389" type="curve"/>
      <point x="104" y="372"/>
      <point x="58" y="312"/>
      <point x="58" y="213" type="curve" smooth="yes"/>
      <point x="58" y="134"/>
      <point x="84" y="76"/>
      <point x="132" y="33" type="curve"/>
      <point x="132" y="0" type="line"/>
      <point x="67" y="32"/>
      <point x="26" y="117"/>
    </contour>
  </outline>
</glyph>
<glyph name="si_Nng.halant" format="1">
  <advance width="731"/>
  <outline>
    <contour>
      <point x="539" y="340" type="line"/>
      <point x="539" y="665" type="line"/>
      <point x="592" y="624"/>
      <point x="687" y="619"/>
      <point x="687" y="529" type="curve" smooth="yes"/>
      <point x="687" y="486"/>
      <point x="652" y="457"/>
      <point x="610" y="457" type="curve" smooth="yes"/>
      <point x="596" y="457"/>
      <point x="581" y="460"/>
      <point x="566" y="467" type="curve"/>
      <point x="566" y="323" type="line"/>
    </contour>
    <contour>
      <point x="567" y="492" type="line"/>
      <point x="575" y="488"/>
      <point x="585" y="486"/>
      <point x="598" y="486" type="curve" smooth="yes"/>
      <point x="629" y="486"/>
      <point x="643" y="510"/>
      <point x="643" y="533" type="curve" smooth="yes"/>
      <point x="643" y="573"/>
      <point x="612" y="592"/>
      <point x="567" y="622" type="curve"/>
    </contour>
    <component base="si_Nnga"/>
  </outline>
</glyph>
<glyph name="si_NngU" format="1">
  <advance width="731"/>
  <outline>
    <contour>
      <point x="413" y="-78" type="curve" smooth="yes"/>
      <point x="413" y="-24"/>
      <point x="438" y="6"/>
      <point x="477" y="22" type="curve"/>
      <point x="486" y="-5" type="line"/>
      <point x="471" y="-11"/>
      <point x="457" y="-25"/>
      <point x="457" y="-47" type="curve" smooth="yes"/>
      <point x="457" y="-83"/>
      <point x="499" y="-103"/>
      <point x="549" y="-103" type="curve" smooth="yes"/>
      <point x="609" y="-103"/>
      <point x="655" y="-81"/>
      <point x="655" y="-44" type="curve" smooth="yes"/>
      <point x="655" y="-41"/>
      <point x="654" y="-38"/>
      <point x="654" y="-35" type="curve"/>
      <point x="683" y="-35" type="line"/>
      <point x="685" y="-44"/>
      <point x="686" y="-59"/>
      <point x="686" y="-68" type="curve" smooth="yes"/>
      <point x="686" y="-119"/>
      <point x="643" y="-187"/>
      <point x="545" y="-187" type="curve" smooth="yes"/>
      <point x="479" y="-187"/>
      <point x="413" y="-146"/>
    </contour>
    <contour>
      <point x="147" y="202" type="curve" smooth="yes"/>
      <point x="147" y="322"/>
      <point x="221" y="421"/>
      <point x="329" y="421" type="curve" smooth="yes"/>
      <point x="333" y="421"/>
      <point x="338" y="421"/>
      <point x="342" y="421" type="curve"/>
      <point x="342" y="396" type="line"/>
      <point x="339" y="396"/>
      <point x="334" y="396"/>
      <point x="331" y="396" type="curve" smooth="yes"/>
      <point x="249" y="396"/>
      <point x="200" y="321"/>
      <point x="200" y="252" type="curve" smooth="yes"/>
      <point x="200" y="182"/>
      <point x="253" y="137"/>
      <point x="320" y="137" type="curve" smooth="yes"/>
      <point x="378" y="137"/>
      <point x="401" y="161"/>
      <point x="401" y="187" type="curve" smooth="yes"/>
      <point x="401" y="211"/>
      <point x="384" y="215"/>
      <point x="377" y="215" type="curve" smooth="yes"/>
      <point x="366" y="215"/>
      <point x="359" y="212"/>
      <point x="354" y="209" type="curve"/>
      <point x="353" y="203"/>
      <point x="352" y="192"/>
      <point x="352" y="189" type="curve"/>
      <point x="325" y="189" type="line"/>
      <point x="334" y="313"/>
      <point x="395" y="421"/>
      <point x="514" y="421" type="curve" smooth="yes"/>
      <point x="623" y="421"/>
      <point x="686" y="324"/>
      <point x="686" y="212" type="curve" smooth="yes"/>
      <point x="686" y="93"/>
      <point x="610" y="-1"/>
      <point x="521" y="-1" type="curve" smooth="yes"/>
      <point x="501" y="-1"/>
      <point x="490" y="-4"/>
      <point x="482" y="-7" type="curve"/>
      <point x="474" y="21" type="line"/>
      <point x="480" y="24"/>
      <point x="496" y="28"/>
      <point x="509" y="28" type="curve" smooth="yes"/>
      <point x="569" y="28"/>
      <point x="600" y="108"/>
      <point x="600" y="171" type="curve" smooth="yes"/>
      <point x="600" y="249"/>
      <point x="565" y="312"/>
      <point x="469" y="312" type="curve" smooth="yes"/>
      <point x="400" y="312"/>
      <point x="365" y="270"/>
      <point x="358" y="235" type="curve"/>
      <point x="364" y="238"/>
      <point x="371" y="240"/>
      <point x="378" y="240" type="curve" smooth="yes"/>
      <point x="427" y="240"/>
      <point x="458" y="197"/>
      <point x="458" y="133" type="curve" smooth="yes"/>
      <point x="458" y="55"/>
      <point x="402" y="-2"/>
      <point x="317" y="-2" type="curve" smooth="yes"/>
      <point x="209" y="-2"/>
      <point x="147" y="94"/>
    </contour>
    <contour>
      <point x="26" y="216" type="curve" smooth="yes"/>
      <point x="26" y="345"/>
      <point x="97" y="423"/>
      <point x="233" y="423" type="curve" smooth="yes"/>
      <point x="242" y="423"/>
      <point x="292" y="422"/>
      <point x="318" y="421" type="curve"/>
      <point x="297" y="410"/>
      <point x="259" y="402"/>
      <point x="250" y="397" type="curve"/>
      <point x="168" y="397"/>
      <point x="58" y="371"/>
      <point x="58" y="213" type="curve" smooth="yes"/>
      <point x="58" y="134"/>
      <point x="84" y="76"/>
      <point x="132" y="33" type="curve"/>
      <point x="132" y="0" type="line"/>
      <point x="67" y="32"/>
      <point x="26" y="117"/>
    </contour>
  </outline>
</glyph>
<glyph name="si_PhI" format="1">
  <advance width="569"/>
  <outline>
    <contour>
      <point x="75" y="563" type="curve" smooth="yes"/>
      <point x="75" y="651"/>
      <point x="183" y="683"/>
      <point x="284" y="683" type="curve" smooth="yes"/>
      <point x="380" y="683"/>
      <point x="491" y="649"/>
      <point x="491" y="562" type="curve" smooth="yes"/>
      <point x="491" y="517"/>
      <point x="456" y="490"/>
      <point x="405" y="490" type="curve"/>
      <point x="400" y="494"/>
      <point x="393" y="505"/>
      <point x="389" y="512" type="curve"/>
      <point x="401" y="513"/>
      <point x="445" y="516"/>
      <point x="445" y="546" type="curve" smooth="yes"/>
      <point x="445" y="589"/>
      <point x="356" y="605"/>
      <point x="286" y="605" type="curve" smooth="yes"/>
      <point x="175" y="605"/>
      <point x="120" y="581"/>
      <point x="120" y="546" type="curve" smooth="yes"/>
      <point x="120" y="519"/>
      <point x="152" y="507"/>
      <point x="184" y="507" type="curve" smooth="yes"/>
      <point x="227" y="507"/>
      <point x="259" y="519"/>
      <point x="275" y="527" type="curve"/>
      <point x="274" y="521"/>
      <point x="273" y="510"/>
      <point x="270" y="495" type="curve"/>
      <point x="247" y="488"/>
      <point x="223" y="480"/>
      <point x="182" y="480" type="curve" smooth="yes"/>
      <point x="126" y="480"/>
      <point x="75" y="507"/>
    </contour>
    <component base="si_Pha"/>
  </outline>
</glyph>
<glyph name="si_S.halant" format="1">
  <advance width="661"/>
  <outline>
    <contour>
      <point x="480" y="417" type="line"/>
      <point x="480" y="665" type="line"/>
      <point x="533" y="624"/>
      <point x="628" y="619"/>
      <point x="628" y="529" type="curve" smooth="yes"/>
      <point x="628" y="486"/>
      <point x="594" y="457"/>
      <point x="552" y="457" type="curve" smooth="yes"/>
      <point x="538" y="457"/>
      <point x="523" y="460"/>
      <point x="508" y="467" type="curve"/>
      <point x="508" y="400" type="line"/>
    </contour>
    <contour>
      <point x="508" y="492" type="line"/>
      <point x="516" y="488"/>
      <point x="527" y="486"/>
      <point x="540" y="486" type="curve" smooth="yes"/>
      <point x="571" y="486"/>
      <point x="584" y="510"/>
      <point x="584" y="533" type="curve" smooth="yes"/>
      <point x="584" y="573"/>
      <point x="553" y="592"/>
      <point x="508" y="622" type="curve"/>
    </contour>
    <component base="si_Sa"/>
  </outline>
</glyph>
<glyph name="si_SUu" format="1">
  <advance width="661"/>
  <outline>
    <contour>
      <point x="67" y="-135" type="curve" smooth="yes"/>
      <point x="67" y="-78"/>
      <point x="115" y="-39"/>
      <point x="167" y="-39" type="curve" smooth="yes"/>
      <point x="208" y="-39"/>
      <point x="239" y="-54"/>
      <point x="261" y="-89" type="curve"/>
      <point x="229" y="-100" type="line"/>
      <point x="218" y="-83"/>
      <point x="199" y="-68"/>
      <point x="171" y="-68" type="curve" smooth="yes"/>
      <point x="133" y="-68"/>
      <point x="109" y="-93"/>
      <point x="109" y="-117" type="curve" smooth="yes"/>
      <point x="109" y="-148"/>
      <point x="137" y="-163"/>
      <point x="170" y="-163" type="curve" smooth="yes"/>
      <point x="244" y="-163"/>
      <point x="344" y="-112"/>
      <point x="449" y="-112" type="curve" smooth="yes"/>
      <point x="499" y="-112"/>
      <point x="544" y="-131"/>
      <point x="570" y="-162" type="curve"/>
      <point x="570" y="148" type="line"/>
      <point x="604" y="207" type="line"/>
      <point x="604" y="-226" type="line"/>
      <point x="580" y="-226" type="line"/>
      <point x="565" y="-191"/>
      <point x="520" y="-143"/>
      <point x="459" y="-143" type="curve" smooth="yes"/>
      <point x="370" y="-143"/>
      <point x="271" y="-231"/>
      <point x="175" y="-231" type="curve" smooth="yes"/>
      <point x="121" y="-231"/>
      <point x="67" y="-201"/>
    </contour>
    <component base="si_Sa"/>
  </outline>
</glyph>
<glyph name="si_SsRIi" format="1">
  <advance width="607"/>
  <outline>
    <contour>
      <point x="49" y="-43" type="curve"/>
      <point x="78" y="-43" type="line"/>
      <point x="115" y="-85"/>
      <point x="176" y="-112"/>
      <point x="279" y="-112" type="curve" smooth="yes"/>
      <point x="419" y="-112"/>
      <point x="525" y="-30"/>
      <point x="525" y="62" type="curve" smooth="yes"/>
      <point x="525" y="77"/>
      <point x="523" y="89"/>
      <point x="518" y="100" type="curve"/>
      <point x="531" y="130" type="line"/>
      <point x="549" y="104"/>
      <point x="557" y="73"/>
      <point x="557" y="37" type="curve" smooth="yes"/>
      <point x="557" y="-121"/>
      <point x="433" y="-214"/>
      <point x="292" y="-214" type="curve" smooth="yes"/>
      <point x="170" y="-214"/>
      <point x="85" y="-150"/>
    </contour>
    <component base="si_SsIi"/>
  </outline>
</glyph>
<glyph name="si_TThUu" format="1">
  <advance width="992"/>
  <outline>
    <contour>
      <point x="443" y="-135" type="curve" smooth="yes"/>
      <point x="443" y="-78"/>
      <point x="490" y="-39"/>
      <point x="542" y="-39" type="curve" smooth="yes"/>
      <point x="583" y="-39"/>
      <point x="615" y="-54"/>
      <point x="637" y="-89" type="curve"/>
      <point x="605" y="-100" type="line"/>
      <point x="594" y="-83"/>
      <point x="575" y="-68"/>
      <point x="547" y="-68" type="curve" smooth="yes"/>
      <point x="509" y="-68"/>
      <point x="485" y="-93"/>
      <point x="485" y="-117" type="curve" smooth="yes"/>
      <point x="485" y="-148"/>
      <point x="513" y="-163"/>
      <point x="546" y="-163" type="curve" smooth="yes"/>
      <point x="620" y="-163"/>
      <point x="678" y="-112"/>
      <point x="783" y="-112" type="curve" smooth="yes"/>
      <point x="833" y="-112"/>
      <point x="875" y="-131"/>
      <point x="901" y="-162" type="curve"/>
      <point x="901" y="148" type="line"/>
      <point x="936" y="207" type="line"/>
      <point x="936" y="-226" type="line"/>
      <point x="911" y="-226" type="line"/>
      <point x="896" y="-191"/>
      <point x="854" y="-143"/>
      <point x="793" y="-143" type="curve" smooth="yes"/>
      <point x="704" y="-143"/>
      <point x="647" y="-231"/>
      <point x="551" y="-231" type="curve" smooth="yes"/>
      <point x="497" y="-231"/>
      <point x="443" y="-201"/>
    </contour>
    <component base="si_TTha"/>
  </outline>
</glyph>
<glyph name="si_TTh.halant" format="1">
  <advance width="992"/>
  <outline>
    <contour>
      <point x="21" y="24" type="line"/>
      <point x="34" y="127"/>
      <point x="100" y="240"/>
      <point x="160" y="306" type="curve"/>
      <point x="167" y="314"/>
      <point x="173" y="324"/>
      <point x="173" y="338" type="curve" smooth="yes"/>
      <point x="173" y="363"/>
      <point x="161" y="376"/>
      <point x="147" y="376" type="curve" smooth="yes"/>
      <point x="131" y="376"/>
      <point x="121" y="365"/>
      <point x="120" y="345" type="curve" smooth="yes"/>
      <point x="119" y="316"/>
      <point x="109" y="286"/>
      <point x="75" y="286" type="curve" smooth="yes"/>
      <point x="47" y="286"/>
      <point x="35" y="309"/>
      <point x="35" y="334" type="curve" smooth="yes"/>
      <point x="35" y="383"/>
      <point x="75" y="423"/>
      <point x="123" y="423" type="curve" smooth="yes"/>
      <point x="172" y="423"/>
      <point x="200" y="390"/>
      <point x="200" y="348" type="curve" smooth="yes"/>
      <point x="200" y="344"/>
      <point x="200" y="342"/>
      <point x="199" y="339" type="curve"/>
      <point x="285" y="401"/>
      <point x="372" y="424"/>
      <point x="535" y="424" type="curve" smooth="yes"/>
      <point x="555" y="424"/>
      <point x="587" y="424"/>
      <point x="615" y="420" type="curve"/>
      <point x="553" y="396" type="line"/>
      <point x="404" y="396"/>
      <point x="284" y="378"/>
      <point x="201" y="301" type="curve"/>
      <point x="222" y="308"/>
      <point x="242" y="312"/>
      <point x="273" y="312" type="curve" smooth="yes"/>
      <point x="372" y="312"/>
      <point x="447" y="262"/>
      <point x="447" y="158" type="curve" smooth="yes"/>
      <point x="447" y="68"/>
      <point x="381" y="-2"/>
      <point x="274" y="-2" type="curve" smooth="yes"/>
      <point x="129" y="-2"/>
      <point x="136" y="77"/>
      <point x="86" y="77" type="curve" smooth="yes"/>
      <point x="63" y="77"/>
      <point x="52" y="52"/>
      <point x="44" y="9" type="curve"/>
    </contour>
    <contour>
      <point x="92" y="152" type="curve"/>
      <point x="101" y="159"/>
      <point x="113" y="161"/>
      <point x="124" y="161" type="curve" smooth="yes"/>
      <point x="160" y="161"/>
      <point x="190" y="137"/>
      <point x="256" y="137" type="curve" smooth="yes"/>
      <point x="329" y="137"/>
      <point x="379" y="157"/>
      <point x="379" y="212" type="curve" smooth="yes"/>
      <point x="379" y="250"/>
      <point x="342" y="287"/>
      <point x="275" y="287" type="curve" smooth="yes"/>
      <point x="227" y="287"/>
      <point x="185" y="275"/>
      <point x="154" y="253" type="curve"/>
      <point x="123" y="215"/>
      <point x="111" y="189"/>
    </contour>
    <component base="si_Th.halant" xOffset="391"/>
  </outline>
</glyph>
<glyph name="si_TTha.reph" format="1">
  <advance width="992"/>
  <outline>
    <contour>
      <point x="505" y="499" type="curve" smooth="yes"/>
      <point x="505" y="479"/>
      <point x="524" y="463"/>
      <point x="545" y="463" type="curve" smooth="yes"/>
      <point x="566" y="463"/>
      <point x="584" y="479"/>
      <point x="584" y="499" type="curve" smooth="yes"/>
      <point x="584" y="519"/>
      <point x="566" y="535"/>
      <point x="545" y="535" type="curve" smooth="yes"/>
      <point x="524" y="535"/>
      <point x="505" y="519"/>
    </contour>
    <contour>
      <point x="405" y="518" type="curve" smooth="yes"/>
      <point x="405" y="580"/>
      <point x="462" y="616"/>
      <point x="542" y="616" type="curve" smooth="yes"/>
      <point x="617" y="616"/>
      <point x="679" y="574"/>
      <point x="679" y="505" type="curve" smooth="yes"/>
      <point x="679" y="482"/>
      <point x="671" y="460"/>
      <point x="655" y="441" type="curve"/>
      <point x="620" y="441" type="line"/>
      <point x="633" y="453"/>
      <point x="648" y="477"/>
      <point x="648" y="504" type="curve" smooth="yes"/>
      <point x="648" y="557"/>
      <point x="601" y="588"/>
      <point x="541" y="588" type="curve" smooth="yes"/>
      <point x="489" y="588"/>
      <point x="437" y="567"/>
      <point x="437" y="518" type="curve" smooth="yes"/>
      <point x="437" y="480"/>
      <point x="479" y="462"/>
      <point x="496" y="460" type="curve"/>
      <point x="488" y="466"/>
      <point x="478" y="479"/>
      <point x="478" y="500" type="curve" smooth="yes"/>
      <point x="478" y="534"/>
      <point x="509" y="559"/>
      <point x="544" y="559" type="curve" smooth="yes"/>
      <point x="584" y="559"/>
      <point x="611" y="532"/>
      <point x="611" y="498" type="curve" smooth="yes"/>
      <point x="611" y="460"/>
      <point x="577" y="435"/>
      <point x="520" y="435" type="curve" smooth="yes"/>
      <point x="462" y="435"/>
      <point x="405" y="463"/>
    </contour>
    <contour>
      <point x="21" y="24" type="line"/>
      <point x="34" y="127"/>
      <point x="101" y="240"/>
      <point x="161" y="306" type="curve"/>
      <point x="168" y="314"/>
      <point x="174" y="324"/>
      <point x="174" y="338" type="curve" smooth="yes"/>
      <point x="174" y="363"/>
      <point x="162" y="376"/>
      <point x="148" y="376" type="curve" smooth="yes"/>
      <point x="132" y="376"/>
      <point x="122" y="365"/>
      <point x="121" y="345" type="curve" smooth="yes"/>
      <point x="120" y="316"/>
      <point x="110" y="286"/>
      <point x="76" y="286" type="curve" smooth="yes"/>
      <point x="48" y="286"/>
      <point x="36" y="309"/>
      <point x="36" y="334" type="curve" smooth="yes"/>
      <point x="36" y="383"/>
      <point x="76" y="423"/>
      <point x="124" y="423" type="curve" smooth="yes"/>
      <point x="173" y="423"/>
      <point x="201" y="390"/>
      <point x="201" y="348" type="curve" smooth="yes"/>
      <point x="201" y="344"/>
      <point x="201" y="342"/>
      <point x="200" y="339" type="curve"/>
      <point x="286" y="401"/>
      <point x="373" y="424"/>
      <point x="536" y="424" type="curve" smooth="yes"/>
      <point x="559" y="424"/>
      <point x="596" y="424"/>
      <point x="628" y="420" type="curve"/>
      <point x="607" y="409"/>
      <point x="570" y="404"/>
      <point x="554" y="396" type="curve"/>
      <point x="405" y="396"/>
      <point x="285" y="378"/>
      <point x="202" y="301" type="curve"/>
      <point x="223" y="308"/>
      <point x="243" y="312"/>
      <point x="274" y="312" type="curve" smooth="yes"/>
      <point x="373" y="312"/>
      <point x="448" y="262"/>
      <point x="448" y="158" type="curve" smooth="yes"/>
      <point x="448" y="68"/>
      <point x="382" y="-2"/>
      <point x="275" y="-2" type="curve" smooth="yes"/>
      <point x="130" y="-2"/>
      <point x="137" y="77"/>
      <point x="87" y="77" type="curve" smooth="yes"/>
      <point x="64" y="77"/>
      <point x="53" y="52"/>
      <point x="45" y="9" type="curve"/>
    </contour>
    <contour>
      <point x="93" y="152" type="curve"/>
      <point x="102" y="159"/>
      <point x="114" y="161"/>
      <point x="125" y="161" type="curve" smooth="yes"/>
      <point x="161" y="161"/>
      <point x="191" y="137"/>
      <point x="257" y="137" type="curve" smooth="yes"/>
      <point x="330" y="137"/>
      <point x="380" y="157"/>
      <point x="380" y="212" type="curve" smooth="yes"/>
      <point x="380" y="250"/>
      <point x="343" y="287"/>
      <point x="276" y="287" type="curve" smooth="yes"/>
      <point x="228" y="287"/>
      <point x="186" y="275"/>
      <point x="155" y="253" type="curve"/>
      <point x="124" y="215"/>
      <point x="112" y="189"/>
    </contour>
    <component base="si_Tha" xOffset="392"/>
  </outline>
</glyph>
<glyph name="si_TVI" format="1">
  <advance width="977"/>
  <outline>
    <contour>
      <point x="441" y="549" type="curve" smooth="yes"/>
      <point x="441" y="637"/>
      <point x="563" y="654"/>
      <point x="661" y="654" type="curve" smooth="yes"/>
      <point x="794" y="654"/>
      <point x="900" y="624"/>
      <point x="900" y="541" type="curve" smooth="yes"/>
      <point x="900" y="490"/>
      <point x="847" y="469"/>
      <point x="814" y="463" type="curve"/>
      <point x="765" y="479" type="line"/>
      <point x="800" y="480"/>
      <point x="827" y="493"/>
      <point x="827" y="515" type="curve" smooth="yes"/>
      <point x="827" y="551"/>
      <point x="766" y="567"/>
      <point x="661" y="567" type="curve" smooth="yes"/>
      <point x="587" y="567"/>
      <point x="500" y="559"/>
      <point x="500" y="525" type="curve" smooth="yes"/>
      <point x="500" y="499"/>
      <point x="540" y="496"/>
      <point x="640" y="492" type="curve" smooth="yes"/>
      <point x="703" y="490"/>
      <point x="793" y="487"/>
      <point x="847" y="448" type="curve" smooth="yes"/>
      <point x="895" y="413"/>
      <point x="931" y="348"/>
      <point x="931" y="262" type="curve"/>
      <point x="868" y="312" type="line"/>
      <point x="868" y="326"/>
      <point x="867" y="372"/>
      <point x="841" y="406" type="curve" smooth="yes"/>
      <point x="800" y="460"/>
      <point x="740" y="459"/>
      <point x="641" y="465" type="curve" smooth="yes"/>
      <point x="554" y="470"/>
      <point x="441" y="465"/>
    </contour>
    <contour>
      <point x="428" y="161" type="curve" smooth="yes"/>
      <point x="428" y="244"/>
      <point x="491" y="297"/>
      <point x="590" y="297" type="curve" smooth="yes"/>
      <point x="646" y="297" type="line"/>
      <point x="646" y="299"/>
      <point x="646" y="299"/>
      <point x="646" y="301" type="curve" smooth="yes"/>
      <point x="646" y="350"/>
      <point x="614" y="378"/>
      <point x="582" y="378" type="curve" smooth="yes"/>
      <point x="549" y="378"/>
      <point x="538" y="363"/>
      <point x="533" y="347" type="curve" smooth="yes"/>
      <point x="527" y="328"/>
      <point x="514" y="312"/>
      <point x="489" y="312" type="curve" smooth="yes"/>
      <point x="467" y="312"/>
      <point x="450" y="326"/>
      <point x="450" y="351" type="curve" smooth="yes"/>
      <point x="450" y="397"/>
      <point x="499" y="421"/>
      <point x="553" y="421" type="curve" smooth="yes"/>
      <point x="639" y="421"/>
      <point x="681" y="367"/>
      <point x="681" y="283" type="curve" smooth="yes"/>
      <point x="681" y="280"/>
      <point x="681" y="274"/>
      <point x="681" y="271" type="curve"/>
      <point x="602" y="271" type="line" smooth="yes"/>
      <point x="530" y="271"/>
      <point x="494" y="244"/>
      <point x="494" y="208" type="curve" smooth="yes"/>
      <point x="494" y="147"/>
      <point x="587" y="137"/>
      <point x="659" y="137" type="curve" smooth="yes"/>
      <point x="808" y="137"/>
      <point x="868" y="209"/>
      <point x="868" y="318" type="curve"/>
      <point x="886" y="303"/>
      <point x="910" y="285"/>
      <point x="931" y="268" type="curve"/>
      <point x="931" y="112"/>
      <point x="835" y="0"/>
      <point x="656" y="0" type="curve" smooth="yes"/>
      <point x="538" y="0"/>
      <point x="428" y="45"/>
    </contour>
    <contour>
      <point x="21" y="24" type="line"/>
      <point x="34" y="127"/>
      <point x="101" y="240"/>
      <point x="161" y="306" type="curve"/>
      <point x="168" y="314"/>
      <point x="174" y="324"/>
      <point x="174" y="338" type="curve" smooth="yes"/>
      <point x="174" y="363"/>
      <point x="162" y="376"/>
      <point x="148" y="376" type="curve" smooth="yes"/>
      <point x="132" y="376"/>
      <point x="122" y="365"/>
      <point x="121" y="345" type="curve" smooth="yes"/>
      <point x="120" y="316"/>
      <point x="110" y="286"/>
      <point x="76" y="286" type="curve" smooth="yes"/>
      <point x="48" y="286"/>
      <point x="36" y="309"/>
      <point x="36" y="334" type="curve" smooth="yes"/>
      <point x="36" y="383"/>
      <point x="76" y="423"/>
      <point x="124" y="423" type="curve" smooth="yes"/>
      <point x="173" y="423"/>
      <point x="201" y="389"/>
      <point x="201" y="350" type="curve" smooth="yes"/>
      <point x="201" y="346"/>
      <point x="201" y="343"/>
      <point x="200" y="339" type="curve"/>
      <point x="222" y="355"/>
      <point x="264" y="386"/>
      <point x="337" y="407" type="curve" smooth="yes"/>
      <point x="380" y="420"/>
      <point x="438" y="426"/>
      <point x="494" y="426" type="curve" smooth="yes"/>
      <point x="515" y="426"/>
      <point x="568" y="423"/>
      <point x="589" y="418" type="curve"/>
      <point x="568" y="407"/>
      <point x="504" y="405"/>
      <point x="488" y="397" type="curve"/>
      <point x="447" y="397"/>
      <point x="393" y="392"/>
      <point x="343" y="378" type="curve" smooth="yes"/>
      <point x="283" y="362"/>
      <point x="238" y="334"/>
      <point x="204" y="303" type="curve"/>
      <point x="222" y="308"/>
      <point x="243" y="312"/>
      <point x="274" y="312" type="curve" smooth="yes"/>
      <point x="373" y="312"/>
      <point x="448" y="262"/>
      <point x="448" y="158" type="curve" smooth="yes"/>
      <point x="448" y="68"/>
      <point x="382" y="-2"/>
      <point x="275" y="-2" type="curve" smooth="yes"/>
      <point x="130" y="-2"/>
      <point x="137" y="77"/>
      <point x="87" y="77" type="curve" smooth="yes"/>
      <point x="64" y="77"/>
      <point x="53" y="52"/>
      <point x="45" y="9" type="curve"/>
    </contour>
    <contour>
      <point x="93" y="152" type="curve"/>
      <point x="102" y="159"/>
      <point x="114" y="161"/>
      <point x="125" y="161" type="curve" smooth="yes"/>
      <point x="161" y="161"/>
      <point x="191" y="137"/>
      <point x="257" y="137" type="curve" smooth="yes"/>
      <point x="330" y="137"/>
      <point x="380" y="157"/>
      <point x="380" y="212" type="curve" smooth="yes"/>
      <point x="380" y="250"/>
      <point x="343" y="287"/>
      <point x="276" y="287" type="curve" smooth="yes"/>
      <point x="228" y="287"/>
      <point x="186" y="275"/>
      <point x="155" y="253" type="curve"/>
      <point x="124" y="215"/>
      <point x="112" y="189"/>
    </contour>
  </outline>
</glyph>
<glyph name="si_TVU" format="1">
  <advance width="977"/>
  <outline>
    <contour>
      <point x="438" y="-139" type="curve" smooth="yes"/>
      <point x="438" y="-88"/>
      <point x="484" y="-49"/>
      <point x="538" y="-49" type="curve" smooth="yes"/>
      <point x="579" y="-49"/>
      <point x="615" y="-72"/>
      <point x="629" y="-107" type="curve"/>
      <point x="597" y="-119" type="line"/>
      <point x="590" y="-102"/>
      <point x="570" y="-80"/>
      <point x="538" y="-80" type="curve" smooth="yes"/>
      <point x="502" y="-80"/>
      <point x="473" y="-107"/>
      <point x="473" y="-139" type="curve" smooth="yes"/>
      <point x="473" y="-167"/>
      <point x="494" y="-188"/>
      <point x="562" y="-188" type="curve" smooth="yes"/>
      <point x="886" y="-188" type="line"/>
      <point x="886" y="125" type="line"/>
      <point x="921" y="214" type="line"/>
      <point x="921" y="-229" type="line"/>
      <point x="542" y="-229" type="line" smooth="yes"/>
      <point x="464" y="-229"/>
      <point x="438" y="-182"/>
    </contour>
    <component base="si_TVa"/>
  </outline>
</glyph>
<glyph name="si_Th.halant" format="1">
  <advance width="599"/>
  <outline>
    <contour>
      <point x="458" y="503" type="line"/>
      <point x="464" y="500"/>
      <point x="479" y="497"/>
      <point x="490" y="497" type="curve" smooth="yes"/>
      <point x="519" y="497"/>
      <point x="542" y="510"/>
      <point x="542" y="545" type="curve" smooth="yes"/>
      <point x="542" y="600"/>
      <point x="479" y="616"/>
      <point x="458" y="633" type="curve"/>
    </contour>
    <contour>
      <point x="431" y="445" type="line"/>
      <point x="431" y="677" type="line"/>
      <point x="486" y="631"/>
      <point x="582" y="635"/>
      <point x="582" y="544" type="curve" smooth="yes"/>
      <point x="582" y="505"/>
      <point x="553" y="473"/>
      <point x="507" y="473" type="curve" smooth="yes"/>
      <point x="484" y="473"/>
      <point x="467" y="477"/>
      <point x="458" y="480" type="curve"/>
      <point x="458" y="407" type="line"/>
    </contour>
    <contour>
      <point x="32" y="229" type="curve" smooth="yes"/>
      <point x="32" y="336"/>
      <point x="124" y="420"/>
      <point x="225" y="420" type="curve"/>
      <point x="225" y="396" type="line"/>
      <point x="157" y="396"/>
      <point x="85" y="337"/>
      <point x="85" y="258" type="curve" smooth="yes"/>
      <point x="85" y="174"/>
      <point x="180" y="138"/>
      <point x="298" y="138" type="curve" smooth="yes"/>
      <point x="413" y="138"/>
      <point x="494" y="203"/>
      <point x="494" y="287" type="curve" smooth="yes"/>
      <point x="494" y="339"/>
      <point x="471" y="386"/>
      <point x="453" y="410" type="curve"/>
      <point x="439" y="378"/>
      <point x="407" y="352"/>
      <point x="365" y="352" type="curve" smooth="yes"/>
      <point x="303" y="352"/>
      <point x="267" y="406"/>
      <point x="267" y="470" type="curve" smooth="yes"/>
      <point x="267" y="519"/>
      <point x="282" y="553"/>
      <point x="308" y="584" type="curve"/>
      <point x="368" y="552"/>
      <point x="435" y="481"/>
      <point x="477" y="425" type="curve" smooth="yes"/>
      <point x="524" y="362"/>
      <point x="553" y="297"/>
      <point x="553" y="229" type="curve" smooth="yes"/>
      <point x="553" y="102"/>
      <point x="439" y="-1"/>
      <point x="288" y="-1" type="curve" smooth="yes"/>
      <point x="147" y="-1"/>
      <point x="32" y="89"/>
    </contour>
    <contour>
      <point x="297" y="474" type="curve" smooth="yes"/>
      <point x="297" y="426"/>
      <point x="316" y="387"/>
      <point x="372" y="387" type="curve" smooth="yes"/>
      <point x="395" y="387"/>
      <point x="424" y="402"/>
      <point x="434" y="435" type="curve"/>
      <point x="405" y="474"/>
      <point x="354" y="521"/>
      <point x="317" y="548" type="curve"/>
      <point x="306" y="530"/>
      <point x="297" y="508"/>
    </contour>
  </outline>
</glyph>
<glyph name="si_ThIi" format="1">
  <advance width="599"/>
  <outline>
    <contour>
      <point x="32" y="229" type="curve" smooth="yes"/>
      <point x="32" y="336"/>
      <point x="126" y="420"/>
      <point x="239" y="420" type="curve"/>
      <point x="239" y="394" type="line"/>
      <point x="158" y="394"/>
      <point x="85" y="339"/>
      <point x="85" y="259" type="curve" smooth="yes"/>
      <point x="85" y="165"/>
      <point x="189" y="137"/>
      <point x="292" y="137" type="curve" smooth="yes"/>
      <point x="411" y="137"/>
      <point x="501" y="204"/>
      <point x="501" y="312" type="curve" smooth="yes"/>
      <point x="501" y="343"/>
      <point x="489" y="381"/>
      <point x="471" y="407" type="curve"/>
      <point x="459" y="379"/>
      <point x="427" y="358"/>
      <point x="385" y="358" type="curve" smooth="yes"/>
      <point x="323" y="358"/>
      <point x="289" y="413"/>
      <point x="289" y="477" type="curve" smooth="yes"/>
      <point x="289" y="526"/>
      <point x="306" y="562"/>
      <point x="330" y="591" type="curve"/>
      <point x="390" y="559"/>
      <point x="457" y="487"/>
      <point x="494" y="428" type="curve" smooth="yes"/>
      <point x="533" y="366"/>
      <point x="553" y="314"/>
      <point x="553" y="246" type="curve" smooth="yes"/>
      <point x="553" y="100"/>
      <point x="439" y="-1"/>
      <point x="288" y="-1" type="curve" smooth="yes"/>
      <point x="147" y="-1"/>
      <point x="32" y="89"/>
    </contour>
    <contour>
      <point x="422" y="541" type="curve" smooth="yes"/>
      <point x="422" y="514"/>
      <point x="443" y="493"/>
      <point x="470" y="493" type="curve" smooth="yes"/>
      <point x="497" y="493"/>
      <point x="518" y="514"/>
      <point x="518" y="541" type="curve" smooth="yes"/>
      <point x="518" y="568"/>
      <point x="497" y="589"/>
      <point x="470" y="589" type="curve" smooth="yes"/>
      <point x="443" y="589"/>
      <point x="422" y="568"/>
    </contour>
    <contour>
      <point x="96" y="561" type="curve" smooth="yes"/>
      <point x="96" y="651"/>
      <point x="208" y="683"/>
      <point x="314" y="683" type="curve" smooth="yes"/>
      <point x="477" y="683"/>
      <point x="553" y="632"/>
      <point x="553" y="552" type="curve" smooth="yes"/>
      <point x="553" y="500"/>
      <point x="519" y="462"/>
      <point x="470" y="462" type="curve" smooth="yes"/>
      <point x="423" y="462"/>
      <point x="392" y="501"/>
      <point x="392" y="540" type="curve" smooth="yes"/>
      <point x="392" y="554"/>
      <point x="396" y="581"/>
      <point x="418" y="597" type="curve"/>
      <point x="408" y="602"/>
      <point x="371" y="609"/>
      <point x="323" y="609" type="curve" smooth="yes"/>
      <point x="211" y="609"/>
      <point x="148" y="583"/>
      <point x="148" y="545" type="curve" smooth="yes"/>
      <point x="148" y="517"/>
      <point x="177" y="504"/>
      <point x="210" y="504" type="curve" smooth="yes"/>
      <point x="254" y="504"/>
      <point x="286" y="516"/>
      <point x="303" y="524" type="curve"/>
      <point x="302" y="518"/>
      <point x="304" y="506"/>
      <point x="300" y="491" type="curve"/>
      <point x="276" y="483"/>
      <point x="250" y="476"/>
      <point x="208" y="476" type="curve" smooth="yes"/>
      <point x="149" y="476"/>
      <point x="96" y="504"/>
    </contour>
    <contour>
      <point x="320" y="480" type="curve" smooth="yes"/>
      <point x="320" y="432"/>
      <point x="342" y="398"/>
      <point x="392" y="398" type="curve" smooth="yes"/>
      <point x="415" y="398"/>
      <point x="442" y="411"/>
      <point x="448" y="438" type="curve"/>
      <point x="419" y="483"/>
      <point x="377" y="524"/>
      <point x="340" y="551" type="curve"/>
      <point x="333" y="541"/>
      <point x="320" y="514"/>
    </contour>
  </outline>
</glyph>
<glyph name="si_ThU" format="1">
  <advance width="599"/>
  <outline>
    <contour>
      <point x="52" y="-139" type="curve" smooth="yes"/>
      <point x="52" y="-88"/>
      <point x="97" y="-49"/>
      <point x="151" y="-49" type="curve" smooth="yes"/>
      <point x="192" y="-49"/>
      <point x="229" y="-72"/>
      <point x="243" y="-107" type="curve"/>
      <point x="211" y="-119" type="line"/>
      <point x="204" y="-102"/>
      <point x="183" y="-80"/>
      <point x="151" y="-80" type="curve" smooth="yes"/>
      <point x="115" y="-80"/>
      <point x="87" y="-107"/>
      <point x="87" y="-139" type="curve" smooth="yes"/>
      <point x="87" y="-167"/>
      <point x="108" y="-188"/>
      <point x="176" y="-188" type="curve" smooth="yes"/>
      <point x="510" y="-188" type="line"/>
      <point x="510" y="125" type="line"/>
      <point x="544" y="214" type="line"/>
      <point x="544" y="-229" type="line"/>
      <point x="155" y="-229" type="line" smooth="yes"/>
      <point x="77" y="-229"/>
      <point x="52" y="-182"/>
    </contour>
    <component base="si_Tha"/>
  </outline>
</glyph>
<glyph name="si_TtTth.halant" format="1">
  <advance width="711"/>
  <outline>
    <contour>
      <point x="548" y="505" type="line"/>
      <point x="556" y="501"/>
      <point x="567" y="498"/>
      <point x="580" y="498" type="curve" smooth="yes"/>
      <point x="611" y="498"/>
      <point x="624" y="522"/>
      <point x="624" y="545" type="curve" smooth="yes"/>
      <point x="624" y="585"/>
      <point x="593" y="604"/>
      <point x="548" y="634" type="curve"/>
    </contour>
    <contour>
      <point x="520" y="463" type="line"/>
      <point x="520" y="677" type="line"/>
      <point x="573" y="636"/>
      <point x="668" y="632"/>
      <point x="668" y="542" type="curve" smooth="yes"/>
      <point x="668" y="499"/>
      <point x="634" y="469"/>
      <point x="592" y="469" type="curve" smooth="yes"/>
      <point x="578" y="469"/>
      <point x="563" y="472"/>
      <point x="548" y="479" type="curve"/>
      <point x="548" y="425" type="line"/>
    </contour>
    <contour>
      <point x="122" y="190" type="curve" smooth="yes"/>
      <point x="122" y="281"/>
      <point x="174" y="355"/>
      <point x="238" y="378" type="curve" smooth="yes"/>
      <point x="258" y="385"/>
      <point x="281" y="389"/>
      <point x="306" y="389" type="curve"/>
      <point x="306" y="362" type="line"/>
      <point x="303" y="362"/>
      <point x="299" y="363"/>
      <point x="296" y="363" type="curve" smooth="yes"/>
      <point x="219" y="363"/>
      <point x="178" y="297"/>
      <point x="178" y="240" type="curve" smooth="yes"/>
      <point x="178" y="188"/>
      <point x="201" y="137"/>
      <point x="275" y="137" type="curve" smooth="yes"/>
      <point x="325" y="137"/>
      <point x="372" y="158"/>
      <point x="372" y="220" type="curve" smooth="yes"/>
      <point x="372" y="242" type="line"/>
      <point x="402" y="242" type="line"/>
      <point x="402" y="220" type="line" smooth="yes"/>
      <point x="402" y="158"/>
      <point x="447" y="137"/>
      <point x="495" y="137" type="curve" smooth="yes"/>
      <point x="588" y="137"/>
      <point x="605" y="219"/>
      <point x="605" y="270" type="curve" smooth="yes"/>
      <point x="605" y="320"/>
      <point x="583" y="370"/>
      <point x="562" y="398" type="curve"/>
      <point x="549" y="367"/>
      <point x="515" y="346"/>
      <point x="473" y="346" type="curve" smooth="yes"/>
      <point x="411" y="346"/>
      <point x="375" y="400"/>
      <point x="375" y="464" type="curve" smooth="yes"/>
      <point x="375" y="511"/>
      <point x="391" y="547"/>
      <point x="417" y="579" type="curve"/>
      <point x="477" y="547"/>
      <point x="544" y="477"/>
      <point x="587" y="419" type="curve" smooth="yes"/>
      <point x="629" y="362"/>
      <point x="665" y="283"/>
      <point x="665" y="210" type="curve" smooth="yes"/>
      <point x="665" y="129"/>
      <point x="625" y="0"/>
      <point x="502" y="0" type="curve" smooth="yes"/>
      <point x="454" y="0"/>
      <point x="415" y="20"/>
      <point x="386" y="58" type="curve"/>
      <point x="356" y="20"/>
      <point x="319" y="0"/>
      <point x="275" y="0" type="curve" smooth="yes"/>
      <point x="175" y="0"/>
      <point x="122" y="93"/>
    </contour>
    <contour>
      <point x="407" y="467" type="curve" smooth="yes"/>
      <point x="407" y="420"/>
      <point x="432" y="387"/>
      <point x="480" y="387" type="curve" smooth="yes"/>
      <point x="503" y="387"/>
      <point x="532" y="398"/>
      <point x="541" y="427" type="curve"/>
      <point x="517" y="462"/>
      <point x="462" y="512"/>
      <point x="426" y="539" type="curve"/>
      <point x="415" y="522"/>
      <point x="407" y="500"/>
    </contour>
    <contour>
      <point x="26" y="207" type="curve" smooth="yes"/>
      <point x="26" y="336"/>
      <point x="99" y="423"/>
      <point x="215" y="423" type="curve" smooth="yes"/>
      <point x="240" y="423"/>
      <point x="282" y="417"/>
      <point x="306" y="389" type="curve"/>
      <point x="293" y="387"/>
      <point x="269" y="384"/>
      <point x="265" y="384" type="curve"/>
      <point x="260" y="390"/>
      <point x="243" y="395"/>
      <point x="219" y="395" type="curve" smooth="yes"/>
      <point x="95" y="395"/>
      <point x="57" y="291"/>
      <point x="57" y="204" type="curve" smooth="yes"/>
      <point x="57" y="129"/>
      <point x="84" y="74"/>
      <point x="132" y="33" type="curve"/>
      <point x="132" y="0" type="line"/>
      <point x="67" y="32"/>
      <point x="26" y="108"/>
    </contour>
  </outline>
</glyph>
<glyph name="si_TtTtha.reph" format="1">
  <advance width="711"/>
  <outline>
    <contour>
      <point x="214" y="499" type="curve" smooth="yes"/>
      <point x="214" y="479"/>
      <point x="233" y="463"/>
      <point x="254" y="463" type="curve" smooth="yes"/>
      <point x="275" y="463"/>
      <point x="293" y="479"/>
      <point x="293" y="499" type="curve" smooth="yes"/>
      <point x="293" y="519"/>
      <point x="275" y="535"/>
      <point x="254" y="535" type="curve" smooth="yes"/>
      <point x="233" y="535"/>
      <point x="214" y="519"/>
    </contour>
    <contour>
      <point x="114" y="518" type="curve" smooth="yes"/>
      <point x="114" y="580"/>
      <point x="171" y="616"/>
      <point x="251" y="616" type="curve" smooth="yes"/>
      <point x="326" y="616"/>
      <point x="388" y="574"/>
      <point x="388" y="505" type="curve" smooth="yes"/>
      <point x="388" y="482"/>
      <point x="380" y="460"/>
      <point x="364" y="441" type="curve"/>
      <point x="329" y="441" type="line"/>
      <point x="342" y="453"/>
      <point x="357" y="477"/>
      <point x="357" y="504" type="curve" smooth="yes"/>
      <point x="357" y="557"/>
      <point x="310" y="588"/>
      <point x="250" y="588" type="curve" smooth="yes"/>
      <point x="198" y="588"/>
      <point x="146" y="567"/>
      <point x="146" y="518" type="curve" smooth="yes"/>
      <point x="146" y="480"/>
      <point x="188" y="462"/>
      <point x="205" y="460" type="curve"/>
      <point x="197" y="466"/>
      <point x="187" y="479"/>
      <point x="187" y="500" type="curve" smooth="yes"/>
      <point x="187" y="534"/>
      <point x="218" y="559"/>
      <point x="253" y="559" type="curve" smooth="yes"/>
      <point x="293" y="559"/>
      <point x="320" y="532"/>
      <point x="320" y="498" type="curve" smooth="yes"/>
      <point x="320" y="460"/>
      <point x="286" y="435"/>
      <point x="229" y="435" type="curve" smooth="yes"/>
      <point x="171" y="435"/>
      <point x="114" y="463"/>
    </contour>
    <contour>
      <point x="122" y="190" type="curve" smooth="yes"/>
      <point x="122" y="281"/>
      <point x="174" y="355"/>
      <point x="238" y="378" type="curve" smooth="yes"/>
      <point x="258" y="385"/>
      <point x="281" y="389"/>
      <point x="306" y="389" type="curve"/>
      <point x="306" y="362" type="line"/>
      <point x="303" y="362"/>
      <point x="299" y="363"/>
      <point x="296" y="363" type="curve" smooth="yes"/>
      <point x="219" y="363"/>
      <point x="178" y="297"/>
      <point x="178" y="240" type="curve" smooth="yes"/>
      <point x="178" y="188"/>
      <point x="201" y="137"/>
      <point x="275" y="137" type="curve" smooth="yes"/>
      <point x="325" y="137"/>
      <point x="372" y="158"/>
      <point x="372" y="220" type="curve" smooth="yes"/>
      <point x="372" y="242" type="line"/>
      <point x="402" y="242" type="line"/>
      <point x="402" y="220" type="line" smooth="yes"/>
      <point x="402" y="158"/>
      <point x="447" y="137"/>
      <point x="495" y="137" type="curve" smooth="yes"/>
      <point x="588" y="137"/>
      <point x="613" y="219"/>
      <point x="613" y="273" type="curve" smooth="yes"/>
      <point x="613" y="330"/>
      <point x="602" y="376"/>
      <point x="581" y="407" type="curve"/>
      <point x="567" y="379"/>
      <point x="538" y="358"/>
      <point x="496" y="358" type="curve" smooth="yes"/>
      <point x="434" y="358"/>
      <point x="398" y="413"/>
      <point x="398" y="477" type="curve" smooth="yes"/>
      <point x="398" y="526"/>
      <point x="413" y="561"/>
      <point x="439" y="591" type="curve"/>
      <point x="499" y="559"/>
      <point x="569" y="489"/>
      <point x="604" y="428" type="curve" smooth="yes"/>
      <point x="642" y="363"/>
      <point x="665" y="300"/>
      <point x="665" y="227" type="curve" smooth="yes"/>
      <point x="665" y="127"/>
      <point x="625" y="0"/>
      <point x="502" y="0" type="curve" smooth="yes"/>
      <point x="454" y="0"/>
      <point x="415" y="20"/>
      <point x="386" y="58" type="curve"/>
      <point x="356" y="20"/>
      <point x="319" y="0"/>
      <point x="275" y="0" type="curve" smooth="yes"/>
      <point x="175" y="0"/>
      <point x="122" y="93"/>
    </contour>
    <contour>
      <point x="430" y="479" type="curve" smooth="yes"/>
      <point x="430" y="432"/>
      <point x="448" y="395"/>
      <point x="502" y="395" type="curve" smooth="yes"/>
      <point x="525" y="395"/>
      <point x="551" y="406"/>
      <point x="561" y="438" type="curve"/>
      <point x="533" y="482"/>
      <point x="485" y="524"/>
      <point x="449" y="551" type="curve"/>
      <point x="438" y="534"/>
      <point x="430" y="512"/>
    </contour>
    <contour>
      <point x="26" y="207" type="curve" smooth="yes"/>
      <point x="26" y="336"/>
      <point x="99" y="423"/>
      <point x="215" y="423" type="curve" smooth="yes"/>
      <point x="240" y="423"/>
      <point x="282" y="417"/>
      <point x="306" y="389" type="curve"/>
      <point x="293" y="387"/>
      <point x="269" y="384"/>
      <point x="265" y="384" type="curve"/>
      <point x="260" y="390"/>
      <point x="243" y="395"/>
      <point x="219" y="395" type="curve" smooth="yes"/>
      <point x="95" y="395"/>
      <point x="57" y="291"/>
      <point x="57" y="204" type="curve" smooth="yes"/>
      <point x="57" y="129"/>
      <point x="84" y="74"/>
      <point x="132" y="33" type="curve"/>
      <point x="132" y="0" type="line"/>
      <point x="67" y="32"/>
      <point x="26" y="108"/>
    </contour>
  </outline>
</glyph>
<glyph name="si_TtU" format="1">
  <advance width="588"/>
  <outline>
    <contour>
      <point x="43" y="-139" type="curve" smooth="yes"/>
      <point x="43" y="-88"/>
      <point x="88" y="-49"/>
      <point x="142" y="-49" type="curve" smooth="yes"/>
      <point x="183" y="-49"/>
      <point x="220" y="-72"/>
      <point x="234" y="-107" type="curve"/>
      <point x="202" y="-119" type="line"/>
      <point x="195" y="-102"/>
      <point x="174" y="-80"/>
      <point x="142" y="-80" type="curve" smooth="yes"/>
      <point x="106" y="-80"/>
      <point x="78" y="-107"/>
      <point x="78" y="-139" type="curve" smooth="yes"/>
      <point x="78" y="-167"/>
      <point x="99" y="-188"/>
      <point x="167" y="-188" type="curve" smooth="yes"/>
      <point x="500" y="-188" type="line"/>
      <point x="500" y="125" type="line"/>
      <point x="535" y="214" type="line"/>
      <point x="535" y="-229" type="line"/>
      <point x="146" y="-229" type="line" smooth="yes"/>
      <point x="68" y="-229"/>
      <point x="43" y="-182"/>
    </contour>
    <component base="si_Tta"/>
  </outline>
</glyph>
<glyph name="si_TthU" format="1">
  <advance width="622"/>
  <outline>
    <contour>
      <point x="50" y="-139" type="curve" smooth="yes"/>
      <point x="50" y="-88"/>
      <point x="95" y="-49"/>
      <point x="149" y="-49" type="curve" smooth="yes"/>
      <point x="190" y="-49"/>
      <point x="227" y="-72"/>
      <point x="241" y="-107" type="curve"/>
      <point x="209" y="-119" type="line"/>
      <point x="202" y="-102"/>
      <point x="181" y="-80"/>
      <point x="149" y="-80" type="curve" smooth="yes"/>
      <point x="113" y="-80"/>
      <point x="85" y="-107"/>
      <point x="85" y="-139" type="curve" smooth="yes"/>
      <point x="85" y="-167"/>
      <point x="106" y="-188"/>
      <point x="174" y="-188" type="curve" smooth="yes"/>
      <point x="527" y="-188" type="line"/>
      <point x="527" y="125" type="line"/>
      <point x="562" y="214" type="line"/>
      <point x="562" y="-229" type="line"/>
      <point x="153" y="-229" type="line" smooth="yes"/>
      <point x="75" y="-229"/>
      <point x="50" y="-182"/>
    </contour>
    <component base="si_Ttha"/>
  </outline>
</glyph>
<glyph name="si_VRa" format="1">
  <advance width="583"/>
  <outline>
    <contour>
      <point x="45" y="-43" type="curve"/>
      <point x="74" y="-43" type="line"/>
      <point x="111" y="-85"/>
      <point x="162" y="-112"/>
      <point x="265" y="-112" type="curve" smooth="yes"/>
      <point x="405" y="-112"/>
      <point x="501" y="-30"/>
      <point x="501" y="62" type="curve" smooth="yes"/>
      <point x="501" y="77"/>
      <point x="496" y="97"/>
      <point x="486" y="107" type="curve"/>
      <point x="501" y="137" type="line"/>
      <point x="522" y="113"/>
      <point x="533" y="73"/>
      <point x="533" y="37" type="curve" smooth="yes"/>
      <point x="533" y="-121"/>
      <point x="421" y="-214"/>
      <point x="280" y="-214" type="curve" smooth="yes"/>
      <point x="157" y="-214"/>
      <point x="81" y="-150"/>
    </contour>
    <component base="si_Va"/>
  </outline>
</glyph>
<glyph name="si_Va.reph" format="1">
  <advance width="583"/>
  <outline>
    <contour>
      <point x="261" y="602" type="curve" smooth="yes"/>
      <point x="261" y="582"/>
      <point x="279" y="567"/>
      <point x="300" y="567" type="curve" smooth="yes"/>
      <point x="321" y="567"/>
      <point x="339" y="582"/>
      <point x="339" y="602" type="curve" smooth="yes"/>
      <point x="339" y="622"/>
      <point x="321" y="638"/>
      <point x="300" y="638" type="curve" smooth="yes"/>
      <point x="279" y="638"/>
      <point x="261" y="622"/>
    </contour>
    <contour>
      <point x="160" y="621" type="curve" smooth="yes"/>
      <point x="160" y="683"/>
      <point x="217" y="720"/>
      <point x="297" y="720" type="curve" smooth="yes"/>
      <point x="372" y="720"/>
      <point x="435" y="677"/>
      <point x="435" y="608" type="curve" smooth="yes"/>
      <point x="435" y="585"/>
      <point x="426" y="564"/>
      <point x="410" y="545" type="curve"/>
      <point x="375" y="545" type="line"/>
      <point x="388" y="557"/>
      <point x="403" y="580"/>
      <point x="403" y="607" type="curve" smooth="yes"/>
      <point x="403" y="660"/>
      <point x="356" y="692"/>
      <point x="296" y="692" type="curve" smooth="yes"/>
      <point x="244" y="692"/>
      <point x="192" y="670"/>
      <point x="192" y="621" type="curve" smooth="yes"/>
      <point x="192" y="583"/>
      <point x="235" y="566"/>
      <point x="252" y="564" type="curve"/>
      <point x="244" y="570"/>
      <point x="233" y="582"/>
      <point x="233" y="603" type="curve" smooth="yes"/>
      <point x="233" y="637"/>
      <point x="264" y="662"/>
      <point x="299" y="662" type="curve" smooth="yes"/>
      <point x="339" y="662"/>
      <point x="366" y="635"/>
      <point x="366" y="601" type="curve" smooth="yes"/>
      <point x="366" y="563"/>
      <point x="332" y="538"/>
      <point x="275" y="538" type="curve" smooth="yes"/>
      <point x="217" y="538"/>
      <point x="160" y="566"/>
    </contour>
    <component base="si_Va"/>
  </outline>
</glyph>
<glyph name="si_YU" format="1">
  <advance width="621"/>
  <outline>
    <contour>
      <point x="49" y="-139" type="curve" smooth="yes"/>
      <point x="49" y="-88"/>
      <point x="94" y="-49"/>
      <point x="148" y="-49" type="curve" smooth="yes"/>
      <point x="189" y="-49"/>
      <point x="226" y="-72"/>
      <point x="240" y="-107" type="curve"/>
      <point x="208" y="-119" type="line"/>
      <point x="201" y="-102"/>
      <point x="180" y="-80"/>
      <point x="148" y="-80" type="curve" smooth="yes"/>
      <point x="112" y="-80"/>
      <point x="83" y="-107"/>
      <point x="83" y="-139" type="curve" smooth="yes"/>
      <point x="83" y="-167"/>
      <point x="105" y="-188"/>
      <point x="173" y="-188" type="curve" smooth="yes"/>
      <point x="536" y="-188" type="line"/>
      <point x="536" y="125" type="line"/>
      <point x="571" y="214" type="line"/>
      <point x="571" y="-229" type="line"/>
      <point x="152" y="-229" type="line" smooth="yes"/>
      <point x="74" y="-229"/>
      <point x="49" y="-182"/>
    </contour>
    <component base="si_Ya"/>
  </outline>
</glyph>
<glyph name="si_YUu" format="1">
  <advance width="621"/>
  <outline>
    <contour>
      <point x="49" y="-135" type="curve" smooth="yes"/>
      <point x="49" y="-78"/>
      <point x="96" y="-39"/>
      <point x="148" y="-39" type="curve" smooth="yes"/>
      <point x="189" y="-39"/>
      <point x="221" y="-54"/>
      <point x="243" y="-89" type="curve"/>
      <point x="211" y="-100" type="line"/>
      <point x="200" y="-83"/>
      <point x="181" y="-68"/>
      <point x="153" y="-68" type="curve" smooth="yes"/>
      <point x="115" y="-68"/>
      <point x="91" y="-93"/>
      <point x="91" y="-117" type="curve" smooth="yes"/>
      <point x="91" y="-148"/>
      <point x="119" y="-163"/>
      <point x="152" y="-163" type="curve" smooth="yes"/>
      <point x="226" y="-163"/>
      <point x="310" y="-112"/>
      <point x="415" y="-112" type="curve" smooth="yes"/>
      <point x="465" y="-112"/>
      <point x="510" y="-131"/>
      <point x="536" y="-162" type="curve"/>
      <point x="536" y="148" type="line"/>
      <point x="571" y="207" type="line"/>
      <point x="571" y="-226" type="line"/>
      <point x="546" y="-226" type="line"/>
      <point x="531" y="-191"/>
      <point x="486" y="-143"/>
      <point x="425" y="-143" type="curve" smooth="yes"/>
      <point x="336" y="-143"/>
      <point x="253" y="-231"/>
      <point x="157" y="-231" type="curve" smooth="yes"/>
      <point x="103" y="-231"/>
      <point x="49" y="-201"/>
    </contour>
    <component base="si_Ya"/>
  </outline>
</glyph>
<glyph name="si_Ya.post.MatraI" format="1">
  <advance width="531"/>
  <outline>
    <contour>
      <point x="132" y="525" type="curve" smooth="yes"/>
      <point x="132" y="613.299"/>
      <point x="217.675" y="651"/>
      <point x="306" y="651" type="curve" smooth="yes"/>
      <point x="397.33" y="651"/>
      <point x="486" y="604.336"/>
      <point x="486" y="512" type="curve" smooth="yes"/>
      <point x="486" y="451"/>
      <point x="448" y="404"/>
      <point x="369" y="398" type="curve"/>
      <point x="347" y="422" type="line"/>
      <point x="350" y="422"/>
      <point x="356" y="422"/>
      <point x="359" y="422" type="curve" smooth="yes"/>
      <point x="416" y="422"/>
      <point x="445" y="456"/>
      <point x="445" y="487" type="curve" smooth="yes"/>
      <point x="445" y="534"/>
      <point x="379.426" y="554"/>
      <point x="313" y="554" type="curve" smooth="yes"/>
      <point x="243.149" y="554"/>
      <point x="196" y="526"/>
      <point x="196" y="492" type="curve" smooth="yes"/>
      <point x="196" y="444"/>
      <point x="275.162" y="422"/>
      <point x="341" y="422" type="curve" smooth="yes"/>
      <point x="342" y="422"/>
      <point x="342" y="422"/>
      <point x="343" y="422" type="curve"/>
      <point x="328" y="399" type="line"/>
      <point x="201.653" y="402"/>
      <point x="132" y="452"/>
    </contour>
    <contour>
      <point x="12" y="23" type="line"/>
      <point x="99" y="60"/>
      <point x="180" y="138"/>
      <point x="180" y="262" type="curve" smooth="yes"/>
      <point x="180" y="328"/>
      <point x="146" y="395"/>
      <point x="82" y="395" type="curve" smooth="yes"/>
      <point x="67" y="395"/>
      <point x="49" y="391"/>
      <point x="34" y="384" type="curve"/>
      <point x="34" y="412" type="line"/>
      <point x="47" y="419"/>
      <point x="68" y="422"/>
      <point x="84" y="422" type="curve" smooth="yes"/>
      <point x="158" y="422"/>
      <point x="211" y="352"/>
      <point x="211" y="267" type="curve" smooth="yes"/>
      <point x="211" y="209"/>
      <point x="200" y="175"/>
      <point x="186" y="145" type="curve"/>
      <point x="202" y="137"/>
      <point x="235" y="127"/>
      <point x="277" y="127" type="curve" smooth="yes"/>
      <point x="362" y="127"/>
      <point x="408" y="165"/>
      <point x="408" y="209" type="curve" smooth="yes"/>
      <point x="408" y="232"/>
      <point x="396" y="271"/>
      <point x="336" y="271" type="curve" smooth="yes"/>
      <point x="305" y="271"/>
      <point x="243" y="280"/>
      <point x="243" y="344" type="curve" smooth="yes"/>
      <point x="243" y="393"/>
      <point x="289" y="422"/>
      <point x="348" y="422" type="curve" smooth="yes"/>
      <point x="406" y="422"/>
      <point x="450" y="391"/>
      <point x="450" y="333" type="curve" smooth="yes"/>
      <point x="450" y="326"/>
      <point x="449" y="320"/>
      <point x="448" y="313" type="curve"/>
      <point x="416" y="313" type="line"/>
      <point x="417" y="319"/>
      <point x="418" y="325"/>
      <point x="418" y="331" type="curve" smooth="yes"/>
      <point x="418" y="370"/>
      <point x="389" y="395"/>
      <point x="347" y="395" type="curve" smooth="yes"/>
      <point x="311" y="395"/>
      <point x="274" y="379"/>
      <point x="274" y="345" type="curve" smooth="yes"/>
      <point x="274" y="309"/>
      <point x="301" y="299"/>
      <point x="339" y="299" type="curve" smooth="yes"/>
      <point x="414" y="299"/>
      <point x="485" y="259"/>
      <point x="485" y="160" type="curve" smooth="yes"/>
      <point x="485" y="64"/>
      <point x="399" y="0"/>
      <point x="314" y="0" type="curve" smooth="yes"/>
      <point x="238" y="0"/>
      <point x="191" y="20"/>
      <point x="144" y="81" type="curve"/>
      <point x="114" y="47"/>
      <point x="70" y="15"/>
      <point x="28" y="1" type="curve"/>
    </contour>
  </outline>
</glyph>
<glyph name="si_Ya.post.MatraIi" format="1">
  <advance width="531"/>
  <outline>
    <contour>
      <point x="334" y="508" type="curve" smooth="yes"/>
      <point x="334" y="476"/>
      <point x="363" y="449"/>
      <point x="399" y="449" type="curve" smooth="yes"/>
      <point x="435" y="449"/>
      <point x="464" y="476"/>
      <point x="464" y="508" type="curve" smooth="yes"/>
      <point x="464" y="540"/>
      <point x="435" y="566"/>
      <point x="399" y="566" type="curve" smooth="yes"/>
      <point x="363" y="566"/>
      <point x="334" y="540"/>
    </contour>
    <contour>
      <point x="136" y="524" type="curve" smooth="yes"/>
      <point x="136" y="613"/>
      <point x="223.152" y="651"/>
      <point x="313" y="651" type="curve" smooth="yes"/>
      <point x="405.852" y="651"/>
      <point x="496" y="604"/>
      <point x="496" y="513" type="curve" smooth="yes"/>
      <point x="496" y="446"/>
      <point x="440" y="421"/>
      <point x="399" y="421" type="curve" smooth="yes"/>
      <point x="354" y="421"/>
      <point x="303" y="453"/>
      <point x="303" y="508" type="curve" smooth="yes"/>
      <point x="303" y="527"/>
      <point x="309" y="542"/>
      <point x="316" y="553" type="curve"/>
      <point x="310" y="553"/>
      <point x="306" y="553"/>
      <point x="300" y="553" type="curve" smooth="yes"/>
      <point x="237.91" y="553"/>
      <point x="196" y="525"/>
      <point x="196" y="491" type="curve" smooth="yes"/>
      <point x="196" y="443"/>
      <point x="280.622" y="421"/>
      <point x="351" y="421" type="curve" smooth="yes"/>
      <point x="352" y="421"/>
      <point x="352" y="421"/>
      <point x="353" y="421" type="curve"/>
      <point x="338" y="400" type="line"/>
      <point x="207.785" y="403"/>
      <point x="136" y="451"/>
    </contour>
    <contour>
      <point x="12" y="23" type="line"/>
      <point x="99" y="60"/>
      <point x="180" y="138"/>
      <point x="180" y="262" type="curve" smooth="yes"/>
      <point x="180" y="328"/>
      <point x="146" y="395"/>
      <point x="82" y="395" type="curve" smooth="yes"/>
      <point x="67" y="395"/>
      <point x="49" y="391"/>
      <point x="34" y="384" type="curve"/>
      <point x="34" y="412" type="line"/>
      <point x="47" y="419"/>
      <point x="68" y="422"/>
      <point x="84" y="422" type="curve" smooth="yes"/>
      <point x="158" y="422"/>
      <point x="211" y="352"/>
      <point x="211" y="267" type="curve" smooth="yes"/>
      <point x="211" y="209"/>
      <point x="200" y="175"/>
      <point x="186" y="145" type="curve"/>
      <point x="202" y="137"/>
      <point x="235" y="127"/>
      <point x="277" y="127" type="curve" smooth="yes"/>
      <point x="362" y="127"/>
      <point x="408" y="165"/>
      <point x="408" y="209" type="curve" smooth="yes"/>
      <point x="408" y="232"/>
      <point x="396" y="271"/>
      <point x="336" y="271" type="curve" smooth="yes"/>
      <point x="305" y="271"/>
      <point x="243" y="280"/>
      <point x="243" y="344" type="curve" smooth="yes"/>
      <point x="243" y="393"/>
      <point x="289" y="422"/>
      <point x="348" y="422" type="curve" smooth="yes"/>
      <point x="406" y="422"/>
      <point x="450" y="391"/>
      <point x="450" y="333" type="curve" smooth="yes"/>
      <point x="450" y="326"/>
      <point x="449" y="320"/>
      <point x="448" y="313" type="curve"/>
      <point x="416" y="313" type="line"/>
      <point x="417" y="319"/>
      <point x="418" y="325"/>
      <point x="418" y="331" type="curve" smooth="yes"/>
      <point x="418" y="370"/>
      <point x="389" y="395"/>
      <point x="347" y="395" type="curve" smooth="yes"/>
      <point x="311" y="395"/>
      <point x="274" y="379"/>
      <point x="274" y="345" type="curve" smooth="yes"/>
      <point x="274" y="309"/>
      <point x="301" y="299"/>
      <point x="339" y="299" type="curve" smooth="yes"/>
      <point x="414" y="299"/>
      <point x="485" y="259"/>
      <point x="485" y="160" type="curve" smooth="yes"/>
      <point x="485" y="64"/>
      <point x="399" y="0"/>
      <point x="314" y="0" type="curve" smooth="yes"/>
      <point x="238" y="0"/>
      <point x="191" y="20"/>
      <point x="144" y="81" type="curve"/>
      <point x="114" y="47"/>
      <point x="70" y="15"/>
      <point x="28" y="1" type="curve"/>
    </contour>
  </outline>
</glyph>
<glyph name="si_Yu.post.reph" format="1">
  <advance width="531"/>
  <outline>
    <contour>
      <point x="221" y="492" type="curve" smooth="yes"/>
      <point x="221" y="472"/>
      <point x="239" y="457"/>
      <point x="260" y="457" type="curve" smooth="yes"/>
      <point x="281" y="457"/>
      <point x="299" y="472"/>
      <point x="299" y="492" type="curve" smooth="yes"/>
      <point x="299" y="512"/>
      <point x="281" y="528"/>
      <point x="260" y="528" type="curve" smooth="yes"/>
      <point x="239" y="528"/>
      <point x="221" y="512"/>
    </contour>
    <contour>
      <point x="120" y="511" type="curve" smooth="yes"/>
      <point x="120" y="573"/>
      <point x="177" y="609"/>
      <point x="257" y="609" type="curve" smooth="yes"/>
      <point x="332" y="609"/>
      <point x="395" y="567"/>
      <point x="395" y="498" type="curve" smooth="yes"/>
      <point x="395" y="475"/>
      <point x="386" y="454"/>
      <point x="370" y="435" type="curve"/>
      <point x="335" y="435" type="line"/>
      <point x="348" y="447"/>
      <point x="363" y="470"/>
      <point x="363" y="497" type="curve" smooth="yes"/>
      <point x="363" y="550"/>
      <point x="316" y="582"/>
      <point x="256" y="582" type="curve" smooth="yes"/>
      <point x="204" y="582"/>
      <point x="152" y="560"/>
      <point x="152" y="511" type="curve" smooth="yes"/>
      <point x="152" y="473"/>
      <point x="194" y="455"/>
      <point x="211" y="453" type="curve"/>
      <point x="203" y="459"/>
      <point x="193" y="472"/>
      <point x="193" y="493" type="curve" smooth="yes"/>
      <point x="193" y="527"/>
      <point x="224" y="552"/>
      <point x="259" y="552" type="curve" smooth="yes"/>
      <point x="299" y="552"/>
      <point x="326" y="525"/>
      <point x="326" y="491" type="curve" smooth="yes"/>
      <point x="326" y="453"/>
      <point x="292" y="428"/>
      <point x="235" y="428" type="curve" smooth="yes"/>
      <point x="177" y="428"/>
      <point x="120" y="456"/>
    </contour>
    <contour>
      <point x="25" y="-139" type="curve" smooth="yes"/>
      <point x="25" y="-88"/>
      <point x="70" y="-49"/>
      <point x="124" y="-49" type="curve" smooth="yes"/>
      <point x="165" y="-49"/>
      <point x="202" y="-72"/>
      <point x="216" y="-107" type="curve"/>
      <point x="184" y="-119" type="line"/>
      <point x="177" y="-102"/>
      <point x="156" y="-80"/>
      <point x="124" y="-80" type="curve" smooth="yes"/>
      <point x="88" y="-80"/>
      <point x="60" y="-107"/>
      <point x="60" y="-139" type="curve" smooth="yes"/>
      <point x="60" y="-167"/>
      <point x="81" y="-188"/>
      <point x="149" y="-188" type="curve" smooth="yes"/>
      <point x="429" y="-188" type="line"/>
      <point x="429" y="125" type="line"/>
      <point x="464" y="214" type="line"/>
      <point x="464" y="-229" type="line"/>
      <point x="128" y="-229" type="line" smooth="yes"/>
      <point x="50" y="-229"/>
      <point x="25" y="-182"/>
    </contour>
    <component base="si_Ya.post"/>
  </outline>
</glyph>
